%TF.GenerationSoftware,KiCad,Pcbnew,7.0.10*%
%TF.CreationDate,2024-02-18T04:07:48+01:00*%
%TF.ProjectId,main_board,6d61696e-5f62-46f6-9172-642e6b696361,rev?*%
%TF.SameCoordinates,Original*%
%TF.FileFunction,Legend,Top*%
%TF.FilePolarity,Positive*%
%FSLAX46Y46*%
G04 Gerber Fmt 4.6, Leading zero omitted, Abs format (unit mm)*
G04 Created by KiCad (PCBNEW 7.0.10) date 2024-02-18 04:07:48*
%MOMM*%
%LPD*%
G01*
G04 APERTURE LIST*
%ADD10C,0.150000*%
%ADD11C,0.120000*%
%ADD12C,0.127000*%
%ADD13C,0.200000*%
G04 APERTURE END LIST*
D10*
X71567922Y-58559819D02*
X72139350Y-58559819D01*
X71853636Y-59559819D02*
X71853636Y-58559819D01*
X49628588Y-42605438D02*
X49533350Y-42557819D01*
X49533350Y-42557819D02*
X49390493Y-42557819D01*
X49390493Y-42557819D02*
X49247636Y-42605438D01*
X49247636Y-42605438D02*
X49152398Y-42700676D01*
X49152398Y-42700676D02*
X49104779Y-42795914D01*
X49104779Y-42795914D02*
X49057160Y-42986390D01*
X49057160Y-42986390D02*
X49057160Y-43129247D01*
X49057160Y-43129247D02*
X49104779Y-43319723D01*
X49104779Y-43319723D02*
X49152398Y-43414961D01*
X49152398Y-43414961D02*
X49247636Y-43510200D01*
X49247636Y-43510200D02*
X49390493Y-43557819D01*
X49390493Y-43557819D02*
X49485731Y-43557819D01*
X49485731Y-43557819D02*
X49628588Y-43510200D01*
X49628588Y-43510200D02*
X49676207Y-43462580D01*
X49676207Y-43462580D02*
X49676207Y-43129247D01*
X49676207Y-43129247D02*
X49485731Y-43129247D01*
X50247636Y-43557819D02*
X50152398Y-43510200D01*
X50152398Y-43510200D02*
X50104779Y-43462580D01*
X50104779Y-43462580D02*
X50057160Y-43367342D01*
X50057160Y-43367342D02*
X50057160Y-43081628D01*
X50057160Y-43081628D02*
X50104779Y-42986390D01*
X50104779Y-42986390D02*
X50152398Y-42938771D01*
X50152398Y-42938771D02*
X50247636Y-42891152D01*
X50247636Y-42891152D02*
X50390493Y-42891152D01*
X50390493Y-42891152D02*
X50485731Y-42938771D01*
X50485731Y-42938771D02*
X50533350Y-42986390D01*
X50533350Y-42986390D02*
X50580969Y-43081628D01*
X50580969Y-43081628D02*
X50580969Y-43367342D01*
X50580969Y-43367342D02*
X50533350Y-43462580D01*
X50533350Y-43462580D02*
X50485731Y-43510200D01*
X50485731Y-43510200D02*
X50390493Y-43557819D01*
X50390493Y-43557819D02*
X50247636Y-43557819D01*
X51580969Y-43462580D02*
X51533350Y-43510200D01*
X51533350Y-43510200D02*
X51390493Y-43557819D01*
X51390493Y-43557819D02*
X51295255Y-43557819D01*
X51295255Y-43557819D02*
X51152398Y-43510200D01*
X51152398Y-43510200D02*
X51057160Y-43414961D01*
X51057160Y-43414961D02*
X51009541Y-43319723D01*
X51009541Y-43319723D02*
X50961922Y-43129247D01*
X50961922Y-43129247D02*
X50961922Y-42986390D01*
X50961922Y-42986390D02*
X51009541Y-42795914D01*
X51009541Y-42795914D02*
X51057160Y-42700676D01*
X51057160Y-42700676D02*
X51152398Y-42605438D01*
X51152398Y-42605438D02*
X51295255Y-42557819D01*
X51295255Y-42557819D02*
X51390493Y-42557819D01*
X51390493Y-42557819D02*
X51533350Y-42605438D01*
X51533350Y-42605438D02*
X51580969Y-42653057D01*
X52152398Y-43557819D02*
X52057160Y-43510200D01*
X52057160Y-43510200D02*
X52009541Y-43462580D01*
X52009541Y-43462580D02*
X51961922Y-43367342D01*
X51961922Y-43367342D02*
X51961922Y-43081628D01*
X51961922Y-43081628D02*
X52009541Y-42986390D01*
X52009541Y-42986390D02*
X52057160Y-42938771D01*
X52057160Y-42938771D02*
X52152398Y-42891152D01*
X52152398Y-42891152D02*
X52295255Y-42891152D01*
X52295255Y-42891152D02*
X52390493Y-42938771D01*
X52390493Y-42938771D02*
X52438112Y-42986390D01*
X52438112Y-42986390D02*
X52485731Y-43081628D01*
X52485731Y-43081628D02*
X52485731Y-43367342D01*
X52485731Y-43367342D02*
X52438112Y-43462580D01*
X52438112Y-43462580D02*
X52390493Y-43510200D01*
X52390493Y-43510200D02*
X52295255Y-43557819D01*
X52295255Y-43557819D02*
X52152398Y-43557819D01*
X52914303Y-43557819D02*
X52914303Y-42891152D01*
X52914303Y-42986390D02*
X52961922Y-42938771D01*
X52961922Y-42938771D02*
X53057160Y-42891152D01*
X53057160Y-42891152D02*
X53200017Y-42891152D01*
X53200017Y-42891152D02*
X53295255Y-42938771D01*
X53295255Y-42938771D02*
X53342874Y-43034009D01*
X53342874Y-43034009D02*
X53342874Y-43557819D01*
X53342874Y-43034009D02*
X53390493Y-42938771D01*
X53390493Y-42938771D02*
X53485731Y-42891152D01*
X53485731Y-42891152D02*
X53628588Y-42891152D01*
X53628588Y-42891152D02*
X53723827Y-42938771D01*
X53723827Y-42938771D02*
X53771446Y-43034009D01*
X53771446Y-43034009D02*
X53771446Y-43557819D01*
X54247636Y-42891152D02*
X54247636Y-43891152D01*
X54247636Y-42938771D02*
X54342874Y-42891152D01*
X54342874Y-42891152D02*
X54533350Y-42891152D01*
X54533350Y-42891152D02*
X54628588Y-42938771D01*
X54628588Y-42938771D02*
X54676207Y-42986390D01*
X54676207Y-42986390D02*
X54723826Y-43081628D01*
X54723826Y-43081628D02*
X54723826Y-43367342D01*
X54723826Y-43367342D02*
X54676207Y-43462580D01*
X54676207Y-43462580D02*
X54628588Y-43510200D01*
X54628588Y-43510200D02*
X54533350Y-43557819D01*
X54533350Y-43557819D02*
X54342874Y-43557819D01*
X54342874Y-43557819D02*
X54247636Y-43510200D01*
X55580969Y-42891152D02*
X55580969Y-43557819D01*
X55152398Y-42891152D02*
X55152398Y-43414961D01*
X55152398Y-43414961D02*
X55200017Y-43510200D01*
X55200017Y-43510200D02*
X55295255Y-43557819D01*
X55295255Y-43557819D02*
X55438112Y-43557819D01*
X55438112Y-43557819D02*
X55533350Y-43510200D01*
X55533350Y-43510200D02*
X55580969Y-43462580D01*
X55914303Y-42891152D02*
X56295255Y-42891152D01*
X56057160Y-42557819D02*
X56057160Y-43414961D01*
X56057160Y-43414961D02*
X56104779Y-43510200D01*
X56104779Y-43510200D02*
X56200017Y-43557819D01*
X56200017Y-43557819D02*
X56295255Y-43557819D01*
X56628589Y-43557819D02*
X56628589Y-42891152D01*
X56628589Y-42557819D02*
X56580970Y-42605438D01*
X56580970Y-42605438D02*
X56628589Y-42653057D01*
X56628589Y-42653057D02*
X56676208Y-42605438D01*
X56676208Y-42605438D02*
X56628589Y-42557819D01*
X56628589Y-42557819D02*
X56628589Y-42653057D01*
X57104779Y-42891152D02*
X57104779Y-43557819D01*
X57104779Y-42986390D02*
X57152398Y-42938771D01*
X57152398Y-42938771D02*
X57247636Y-42891152D01*
X57247636Y-42891152D02*
X57390493Y-42891152D01*
X57390493Y-42891152D02*
X57485731Y-42938771D01*
X57485731Y-42938771D02*
X57533350Y-43034009D01*
X57533350Y-43034009D02*
X57533350Y-43557819D01*
X58438112Y-42891152D02*
X58438112Y-43700676D01*
X58438112Y-43700676D02*
X58390493Y-43795914D01*
X58390493Y-43795914D02*
X58342874Y-43843533D01*
X58342874Y-43843533D02*
X58247636Y-43891152D01*
X58247636Y-43891152D02*
X58104779Y-43891152D01*
X58104779Y-43891152D02*
X58009541Y-43843533D01*
X58438112Y-43510200D02*
X58342874Y-43557819D01*
X58342874Y-43557819D02*
X58152398Y-43557819D01*
X58152398Y-43557819D02*
X58057160Y-43510200D01*
X58057160Y-43510200D02*
X58009541Y-43462580D01*
X58009541Y-43462580D02*
X57961922Y-43367342D01*
X57961922Y-43367342D02*
X57961922Y-43081628D01*
X57961922Y-43081628D02*
X58009541Y-42986390D01*
X58009541Y-42986390D02*
X58057160Y-42938771D01*
X58057160Y-42938771D02*
X58152398Y-42891152D01*
X58152398Y-42891152D02*
X58342874Y-42891152D01*
X58342874Y-42891152D02*
X58438112Y-42938771D01*
X68869160Y-56972200D02*
X69012017Y-57019819D01*
X69012017Y-57019819D02*
X69250112Y-57019819D01*
X69250112Y-57019819D02*
X69345350Y-56972200D01*
X69345350Y-56972200D02*
X69392969Y-56924580D01*
X69392969Y-56924580D02*
X69440588Y-56829342D01*
X69440588Y-56829342D02*
X69440588Y-56734104D01*
X69440588Y-56734104D02*
X69392969Y-56638866D01*
X69392969Y-56638866D02*
X69345350Y-56591247D01*
X69345350Y-56591247D02*
X69250112Y-56543628D01*
X69250112Y-56543628D02*
X69059636Y-56496009D01*
X69059636Y-56496009D02*
X68964398Y-56448390D01*
X68964398Y-56448390D02*
X68916779Y-56400771D01*
X68916779Y-56400771D02*
X68869160Y-56305533D01*
X68869160Y-56305533D02*
X68869160Y-56210295D01*
X68869160Y-56210295D02*
X68916779Y-56115057D01*
X68916779Y-56115057D02*
X68964398Y-56067438D01*
X68964398Y-56067438D02*
X69059636Y-56019819D01*
X69059636Y-56019819D02*
X69297731Y-56019819D01*
X69297731Y-56019819D02*
X69440588Y-56067438D01*
X71520207Y-64893819D02*
X71186874Y-64417628D01*
X70948779Y-64893819D02*
X70948779Y-63893819D01*
X70948779Y-63893819D02*
X71329731Y-63893819D01*
X71329731Y-63893819D02*
X71424969Y-63941438D01*
X71424969Y-63941438D02*
X71472588Y-63989057D01*
X71472588Y-63989057D02*
X71520207Y-64084295D01*
X71520207Y-64084295D02*
X71520207Y-64227152D01*
X71520207Y-64227152D02*
X71472588Y-64322390D01*
X71472588Y-64322390D02*
X71424969Y-64370009D01*
X71424969Y-64370009D02*
X71329731Y-64417628D01*
X71329731Y-64417628D02*
X70948779Y-64417628D01*
X52354819Y-62650666D02*
X51878628Y-62983999D01*
X52354819Y-63222094D02*
X51354819Y-63222094D01*
X51354819Y-63222094D02*
X51354819Y-62841142D01*
X51354819Y-62841142D02*
X51402438Y-62745904D01*
X51402438Y-62745904D02*
X51450057Y-62698285D01*
X51450057Y-62698285D02*
X51545295Y-62650666D01*
X51545295Y-62650666D02*
X51688152Y-62650666D01*
X51688152Y-62650666D02*
X51783390Y-62698285D01*
X51783390Y-62698285D02*
X51831009Y-62745904D01*
X51831009Y-62745904D02*
X51878628Y-62841142D01*
X51878628Y-62841142D02*
X51878628Y-63222094D01*
X51354819Y-62317332D02*
X51354819Y-61698285D01*
X51354819Y-61698285D02*
X51735771Y-62031618D01*
X51735771Y-62031618D02*
X51735771Y-61888761D01*
X51735771Y-61888761D02*
X51783390Y-61793523D01*
X51783390Y-61793523D02*
X51831009Y-61745904D01*
X51831009Y-61745904D02*
X51926247Y-61698285D01*
X51926247Y-61698285D02*
X52164342Y-61698285D01*
X52164342Y-61698285D02*
X52259580Y-61745904D01*
X52259580Y-61745904D02*
X52307200Y-61793523D01*
X52307200Y-61793523D02*
X52354819Y-61888761D01*
X52354819Y-61888761D02*
X52354819Y-62174475D01*
X52354819Y-62174475D02*
X52307200Y-62269713D01*
X52307200Y-62269713D02*
X52259580Y-62317332D01*
X57237333Y-57434819D02*
X56904000Y-56958628D01*
X56665905Y-57434819D02*
X56665905Y-56434819D01*
X56665905Y-56434819D02*
X57046857Y-56434819D01*
X57046857Y-56434819D02*
X57142095Y-56482438D01*
X57142095Y-56482438D02*
X57189714Y-56530057D01*
X57189714Y-56530057D02*
X57237333Y-56625295D01*
X57237333Y-56625295D02*
X57237333Y-56768152D01*
X57237333Y-56768152D02*
X57189714Y-56863390D01*
X57189714Y-56863390D02*
X57142095Y-56911009D01*
X57142095Y-56911009D02*
X57046857Y-56958628D01*
X57046857Y-56958628D02*
X56665905Y-56958628D01*
X58189714Y-57434819D02*
X57618286Y-57434819D01*
X57904000Y-57434819D02*
X57904000Y-56434819D01*
X57904000Y-56434819D02*
X57808762Y-56577676D01*
X57808762Y-56577676D02*
X57713524Y-56672914D01*
X57713524Y-56672914D02*
X57618286Y-56720533D01*
X34914819Y-62650666D02*
X34438628Y-62983999D01*
X34914819Y-63222094D02*
X33914819Y-63222094D01*
X33914819Y-63222094D02*
X33914819Y-62841142D01*
X33914819Y-62841142D02*
X33962438Y-62745904D01*
X33962438Y-62745904D02*
X34010057Y-62698285D01*
X34010057Y-62698285D02*
X34105295Y-62650666D01*
X34105295Y-62650666D02*
X34248152Y-62650666D01*
X34248152Y-62650666D02*
X34343390Y-62698285D01*
X34343390Y-62698285D02*
X34391009Y-62745904D01*
X34391009Y-62745904D02*
X34438628Y-62841142D01*
X34438628Y-62841142D02*
X34438628Y-63222094D01*
X34010057Y-62269713D02*
X33962438Y-62222094D01*
X33962438Y-62222094D02*
X33914819Y-62126856D01*
X33914819Y-62126856D02*
X33914819Y-61888761D01*
X33914819Y-61888761D02*
X33962438Y-61793523D01*
X33962438Y-61793523D02*
X34010057Y-61745904D01*
X34010057Y-61745904D02*
X34105295Y-61698285D01*
X34105295Y-61698285D02*
X34200533Y-61698285D01*
X34200533Y-61698285D02*
X34343390Y-61745904D01*
X34343390Y-61745904D02*
X34914819Y-62317332D01*
X34914819Y-62317332D02*
X34914819Y-61698285D01*
X-3701333Y-87780819D02*
X-3701333Y-88495104D01*
X-3701333Y-88495104D02*
X-3748952Y-88637961D01*
X-3748952Y-88637961D02*
X-3844190Y-88733200D01*
X-3844190Y-88733200D02*
X-3987047Y-88780819D01*
X-3987047Y-88780819D02*
X-4082285Y-88780819D01*
X-3272761Y-87876057D02*
X-3225142Y-87828438D01*
X-3225142Y-87828438D02*
X-3129904Y-87780819D01*
X-3129904Y-87780819D02*
X-2891809Y-87780819D01*
X-2891809Y-87780819D02*
X-2796571Y-87828438D01*
X-2796571Y-87828438D02*
X-2748952Y-87876057D01*
X-2748952Y-87876057D02*
X-2701333Y-87971295D01*
X-2701333Y-87971295D02*
X-2701333Y-88066533D01*
X-2701333Y-88066533D02*
X-2748952Y-88209390D01*
X-2748952Y-88209390D02*
X-3320380Y-88780819D01*
X-3320380Y-88780819D02*
X-2701333Y-88780819D01*
X90376856Y-83564819D02*
X90710189Y-84564819D01*
X90710189Y-84564819D02*
X91043522Y-83564819D01*
X91519713Y-84564819D02*
X91424475Y-84517200D01*
X91424475Y-84517200D02*
X91376856Y-84469580D01*
X91376856Y-84469580D02*
X91329237Y-84374342D01*
X91329237Y-84374342D02*
X91329237Y-84088628D01*
X91329237Y-84088628D02*
X91376856Y-83993390D01*
X91376856Y-83993390D02*
X91424475Y-83945771D01*
X91424475Y-83945771D02*
X91519713Y-83898152D01*
X91519713Y-83898152D02*
X91662570Y-83898152D01*
X91662570Y-83898152D02*
X91757808Y-83945771D01*
X91757808Y-83945771D02*
X91805427Y-83993390D01*
X91805427Y-83993390D02*
X91853046Y-84088628D01*
X91853046Y-84088628D02*
X91853046Y-84374342D01*
X91853046Y-84374342D02*
X91805427Y-84469580D01*
X91805427Y-84469580D02*
X91757808Y-84517200D01*
X91757808Y-84517200D02*
X91662570Y-84564819D01*
X91662570Y-84564819D02*
X91519713Y-84564819D01*
X92424475Y-84564819D02*
X92329237Y-84517200D01*
X92329237Y-84517200D02*
X92281618Y-84421961D01*
X92281618Y-84421961D02*
X92281618Y-83564819D01*
X92662571Y-83898152D02*
X93043523Y-83898152D01*
X92805428Y-83564819D02*
X92805428Y-84421961D01*
X92805428Y-84421961D02*
X92853047Y-84517200D01*
X92853047Y-84517200D02*
X92948285Y-84564819D01*
X92948285Y-84564819D02*
X93043523Y-84564819D01*
X93329238Y-84517200D02*
X93472095Y-84564819D01*
X93472095Y-84564819D02*
X93710190Y-84564819D01*
X93710190Y-84564819D02*
X93805428Y-84517200D01*
X93805428Y-84517200D02*
X93853047Y-84469580D01*
X93853047Y-84469580D02*
X93900666Y-84374342D01*
X93900666Y-84374342D02*
X93900666Y-84279104D01*
X93900666Y-84279104D02*
X93853047Y-84183866D01*
X93853047Y-84183866D02*
X93805428Y-84136247D01*
X93805428Y-84136247D02*
X93710190Y-84088628D01*
X93710190Y-84088628D02*
X93519714Y-84041009D01*
X93519714Y-84041009D02*
X93424476Y-83993390D01*
X93424476Y-83993390D02*
X93376857Y-83945771D01*
X93376857Y-83945771D02*
X93329238Y-83850533D01*
X93329238Y-83850533D02*
X93329238Y-83755295D01*
X93329238Y-83755295D02*
X93376857Y-83660057D01*
X93376857Y-83660057D02*
X93424476Y-83612438D01*
X93424476Y-83612438D02*
X93519714Y-83564819D01*
X93519714Y-83564819D02*
X93757809Y-83564819D01*
X93757809Y-83564819D02*
X93900666Y-83612438D01*
X94710190Y-84517200D02*
X94614952Y-84564819D01*
X94614952Y-84564819D02*
X94424476Y-84564819D01*
X94424476Y-84564819D02*
X94329238Y-84517200D01*
X94329238Y-84517200D02*
X94281619Y-84421961D01*
X94281619Y-84421961D02*
X94281619Y-84041009D01*
X94281619Y-84041009D02*
X94329238Y-83945771D01*
X94329238Y-83945771D02*
X94424476Y-83898152D01*
X94424476Y-83898152D02*
X94614952Y-83898152D01*
X94614952Y-83898152D02*
X94710190Y-83945771D01*
X94710190Y-83945771D02*
X94757809Y-84041009D01*
X94757809Y-84041009D02*
X94757809Y-84136247D01*
X94757809Y-84136247D02*
X94281619Y-84231485D01*
X95186381Y-83898152D02*
X95186381Y-84564819D01*
X95186381Y-83993390D02*
X95234000Y-83945771D01*
X95234000Y-83945771D02*
X95329238Y-83898152D01*
X95329238Y-83898152D02*
X95472095Y-83898152D01*
X95472095Y-83898152D02*
X95567333Y-83945771D01*
X95567333Y-83945771D02*
X95614952Y-84041009D01*
X95614952Y-84041009D02*
X95614952Y-84564819D01*
X96043524Y-84517200D02*
X96138762Y-84564819D01*
X96138762Y-84564819D02*
X96329238Y-84564819D01*
X96329238Y-84564819D02*
X96424476Y-84517200D01*
X96424476Y-84517200D02*
X96472095Y-84421961D01*
X96472095Y-84421961D02*
X96472095Y-84374342D01*
X96472095Y-84374342D02*
X96424476Y-84279104D01*
X96424476Y-84279104D02*
X96329238Y-84231485D01*
X96329238Y-84231485D02*
X96186381Y-84231485D01*
X96186381Y-84231485D02*
X96091143Y-84183866D01*
X96091143Y-84183866D02*
X96043524Y-84088628D01*
X96043524Y-84088628D02*
X96043524Y-84041009D01*
X96043524Y-84041009D02*
X96091143Y-83945771D01*
X96091143Y-83945771D02*
X96186381Y-83898152D01*
X96186381Y-83898152D02*
X96329238Y-83898152D01*
X96329238Y-83898152D02*
X96424476Y-83945771D01*
X97043524Y-84564819D02*
X96948286Y-84517200D01*
X96948286Y-84517200D02*
X96900667Y-84469580D01*
X96900667Y-84469580D02*
X96853048Y-84374342D01*
X96853048Y-84374342D02*
X96853048Y-84088628D01*
X96853048Y-84088628D02*
X96900667Y-83993390D01*
X96900667Y-83993390D02*
X96948286Y-83945771D01*
X96948286Y-83945771D02*
X97043524Y-83898152D01*
X97043524Y-83898152D02*
X97186381Y-83898152D01*
X97186381Y-83898152D02*
X97281619Y-83945771D01*
X97281619Y-83945771D02*
X97329238Y-83993390D01*
X97329238Y-83993390D02*
X97376857Y-84088628D01*
X97376857Y-84088628D02*
X97376857Y-84374342D01*
X97376857Y-84374342D02*
X97329238Y-84469580D01*
X97329238Y-84469580D02*
X97281619Y-84517200D01*
X97281619Y-84517200D02*
X97186381Y-84564819D01*
X97186381Y-84564819D02*
X97043524Y-84564819D01*
X97805429Y-84564819D02*
X97805429Y-83898152D01*
X97805429Y-84088628D02*
X97853048Y-83993390D01*
X97853048Y-83993390D02*
X97900667Y-83945771D01*
X97900667Y-83945771D02*
X97995905Y-83898152D01*
X97995905Y-83898152D02*
X98091143Y-83898152D01*
X93900666Y-95430819D02*
X93900666Y-96145104D01*
X93900666Y-96145104D02*
X93853047Y-96287961D01*
X93853047Y-96287961D02*
X93757809Y-96383200D01*
X93757809Y-96383200D02*
X93614952Y-96430819D01*
X93614952Y-96430819D02*
X93519714Y-96430819D01*
X94805428Y-95764152D02*
X94805428Y-96430819D01*
X94567333Y-95383200D02*
X94329238Y-96097485D01*
X94329238Y-96097485D02*
X94948285Y-96097485D01*
X91948095Y-98598438D02*
X91852857Y-98550819D01*
X91852857Y-98550819D02*
X91710000Y-98550819D01*
X91710000Y-98550819D02*
X91567143Y-98598438D01*
X91567143Y-98598438D02*
X91471905Y-98693676D01*
X91471905Y-98693676D02*
X91424286Y-98788914D01*
X91424286Y-98788914D02*
X91376667Y-98979390D01*
X91376667Y-98979390D02*
X91376667Y-99122247D01*
X91376667Y-99122247D02*
X91424286Y-99312723D01*
X91424286Y-99312723D02*
X91471905Y-99407961D01*
X91471905Y-99407961D02*
X91567143Y-99503200D01*
X91567143Y-99503200D02*
X91710000Y-99550819D01*
X91710000Y-99550819D02*
X91805238Y-99550819D01*
X91805238Y-99550819D02*
X91948095Y-99503200D01*
X91948095Y-99503200D02*
X91995714Y-99455580D01*
X91995714Y-99455580D02*
X91995714Y-99122247D01*
X91995714Y-99122247D02*
X91805238Y-99122247D01*
X92424286Y-99550819D02*
X92424286Y-98550819D01*
X92424286Y-98550819D02*
X92995714Y-99550819D01*
X92995714Y-99550819D02*
X92995714Y-98550819D01*
X93471905Y-99550819D02*
X93471905Y-98550819D01*
X93471905Y-98550819D02*
X93710000Y-98550819D01*
X93710000Y-98550819D02*
X93852857Y-98598438D01*
X93852857Y-98598438D02*
X93948095Y-98693676D01*
X93948095Y-98693676D02*
X93995714Y-98788914D01*
X93995714Y-98788914D02*
X94043333Y-98979390D01*
X94043333Y-98979390D02*
X94043333Y-99122247D01*
X94043333Y-99122247D02*
X93995714Y-99312723D01*
X93995714Y-99312723D02*
X93948095Y-99407961D01*
X93948095Y-99407961D02*
X93852857Y-99503200D01*
X93852857Y-99503200D02*
X93710000Y-99550819D01*
X93710000Y-99550819D02*
X93471905Y-99550819D01*
X93900666Y-89842819D02*
X93900666Y-90557104D01*
X93900666Y-90557104D02*
X93853047Y-90699961D01*
X93853047Y-90699961D02*
X93757809Y-90795200D01*
X93757809Y-90795200D02*
X93614952Y-90842819D01*
X93614952Y-90842819D02*
X93519714Y-90842819D01*
X94281619Y-89842819D02*
X94900666Y-89842819D01*
X94900666Y-89842819D02*
X94567333Y-90223771D01*
X94567333Y-90223771D02*
X94710190Y-90223771D01*
X94710190Y-90223771D02*
X94805428Y-90271390D01*
X94805428Y-90271390D02*
X94853047Y-90319009D01*
X94853047Y-90319009D02*
X94900666Y-90414247D01*
X94900666Y-90414247D02*
X94900666Y-90652342D01*
X94900666Y-90652342D02*
X94853047Y-90747580D01*
X94853047Y-90747580D02*
X94805428Y-90795200D01*
X94805428Y-90795200D02*
X94710190Y-90842819D01*
X94710190Y-90842819D02*
X94424476Y-90842819D01*
X94424476Y-90842819D02*
X94329238Y-90795200D01*
X94329238Y-90795200D02*
X94281619Y-90747580D01*
X94043523Y-92962819D02*
X93567333Y-92962819D01*
X93567333Y-92962819D02*
X93519714Y-93439009D01*
X93519714Y-93439009D02*
X93567333Y-93391390D01*
X93567333Y-93391390D02*
X93662571Y-93343771D01*
X93662571Y-93343771D02*
X93900666Y-93343771D01*
X93900666Y-93343771D02*
X93995904Y-93391390D01*
X93995904Y-93391390D02*
X94043523Y-93439009D01*
X94043523Y-93439009D02*
X94091142Y-93534247D01*
X94091142Y-93534247D02*
X94091142Y-93772342D01*
X94091142Y-93772342D02*
X94043523Y-93867580D01*
X94043523Y-93867580D02*
X93995904Y-93915200D01*
X93995904Y-93915200D02*
X93900666Y-93962819D01*
X93900666Y-93962819D02*
X93662571Y-93962819D01*
X93662571Y-93962819D02*
X93567333Y-93915200D01*
X93567333Y-93915200D02*
X93519714Y-93867580D01*
X94376857Y-92962819D02*
X94710190Y-93962819D01*
X94710190Y-93962819D02*
X95043523Y-92962819D01*
X59541580Y-74334666D02*
X59589200Y-74382285D01*
X59589200Y-74382285D02*
X59636819Y-74525142D01*
X59636819Y-74525142D02*
X59636819Y-74620380D01*
X59636819Y-74620380D02*
X59589200Y-74763237D01*
X59589200Y-74763237D02*
X59493961Y-74858475D01*
X59493961Y-74858475D02*
X59398723Y-74906094D01*
X59398723Y-74906094D02*
X59208247Y-74953713D01*
X59208247Y-74953713D02*
X59065390Y-74953713D01*
X59065390Y-74953713D02*
X58874914Y-74906094D01*
X58874914Y-74906094D02*
X58779676Y-74858475D01*
X58779676Y-74858475D02*
X58684438Y-74763237D01*
X58684438Y-74763237D02*
X58636819Y-74620380D01*
X58636819Y-74620380D02*
X58636819Y-74525142D01*
X58636819Y-74525142D02*
X58684438Y-74382285D01*
X58684438Y-74382285D02*
X58732057Y-74334666D01*
X59636819Y-73382285D02*
X59636819Y-73953713D01*
X59636819Y-73667999D02*
X58636819Y-73667999D01*
X58636819Y-73667999D02*
X58779676Y-73763237D01*
X58779676Y-73763237D02*
X58874914Y-73858475D01*
X58874914Y-73858475D02*
X58922533Y-73953713D01*
X68854666Y-51932819D02*
X68854666Y-52647104D01*
X68854666Y-52647104D02*
X68807047Y-52789961D01*
X68807047Y-52789961D02*
X68711809Y-52885200D01*
X68711809Y-52885200D02*
X68568952Y-52932819D01*
X68568952Y-52932819D02*
X68473714Y-52932819D01*
X69854666Y-52932819D02*
X69283238Y-52932819D01*
X69568952Y-52932819D02*
X69568952Y-51932819D01*
X69568952Y-51932819D02*
X69473714Y-52075676D01*
X69473714Y-52075676D02*
X69378476Y-52170914D01*
X69378476Y-52170914D02*
X69283238Y-52218533D01*
X65307047Y-73147104D02*
X65783237Y-73147104D01*
X65211809Y-73432819D02*
X65545142Y-72432819D01*
X65545142Y-72432819D02*
X65878475Y-73432819D01*
X66211809Y-73432819D02*
X66211809Y-72766152D01*
X66211809Y-72861390D02*
X66259428Y-72813771D01*
X66259428Y-72813771D02*
X66354666Y-72766152D01*
X66354666Y-72766152D02*
X66497523Y-72766152D01*
X66497523Y-72766152D02*
X66592761Y-72813771D01*
X66592761Y-72813771D02*
X66640380Y-72909009D01*
X66640380Y-72909009D02*
X66640380Y-73432819D01*
X66640380Y-72909009D02*
X66687999Y-72813771D01*
X66687999Y-72813771D02*
X66783237Y-72766152D01*
X66783237Y-72766152D02*
X66926094Y-72766152D01*
X66926094Y-72766152D02*
X67021333Y-72813771D01*
X67021333Y-72813771D02*
X67068952Y-72909009D01*
X67068952Y-72909009D02*
X67068952Y-73432819D01*
X67545142Y-72766152D02*
X67545142Y-73766152D01*
X67545142Y-72813771D02*
X67640380Y-72766152D01*
X67640380Y-72766152D02*
X67830856Y-72766152D01*
X67830856Y-72766152D02*
X67926094Y-72813771D01*
X67926094Y-72813771D02*
X67973713Y-72861390D01*
X67973713Y-72861390D02*
X68021332Y-72956628D01*
X68021332Y-72956628D02*
X68021332Y-73242342D01*
X68021332Y-73242342D02*
X67973713Y-73337580D01*
X67973713Y-73337580D02*
X67926094Y-73385200D01*
X67926094Y-73385200D02*
X67830856Y-73432819D01*
X67830856Y-73432819D02*
X67640380Y-73432819D01*
X67640380Y-73432819D02*
X67545142Y-73385200D01*
X68402285Y-73385200D02*
X68545142Y-73432819D01*
X68545142Y-73432819D02*
X68783237Y-73432819D01*
X68783237Y-73432819D02*
X68878475Y-73385200D01*
X68878475Y-73385200D02*
X68926094Y-73337580D01*
X68926094Y-73337580D02*
X68973713Y-73242342D01*
X68973713Y-73242342D02*
X68973713Y-73147104D01*
X68973713Y-73147104D02*
X68926094Y-73051866D01*
X68926094Y-73051866D02*
X68878475Y-73004247D01*
X68878475Y-73004247D02*
X68783237Y-72956628D01*
X68783237Y-72956628D02*
X68592761Y-72909009D01*
X68592761Y-72909009D02*
X68497523Y-72861390D01*
X68497523Y-72861390D02*
X68449904Y-72813771D01*
X68449904Y-72813771D02*
X68402285Y-72718533D01*
X68402285Y-72718533D02*
X68402285Y-72623295D01*
X68402285Y-72623295D02*
X68449904Y-72528057D01*
X68449904Y-72528057D02*
X68497523Y-72480438D01*
X68497523Y-72480438D02*
X68592761Y-72432819D01*
X68592761Y-72432819D02*
X68830856Y-72432819D01*
X68830856Y-72432819D02*
X68973713Y-72480438D01*
X69783237Y-73385200D02*
X69687999Y-73432819D01*
X69687999Y-73432819D02*
X69497523Y-73432819D01*
X69497523Y-73432819D02*
X69402285Y-73385200D01*
X69402285Y-73385200D02*
X69354666Y-73289961D01*
X69354666Y-73289961D02*
X69354666Y-72909009D01*
X69354666Y-72909009D02*
X69402285Y-72813771D01*
X69402285Y-72813771D02*
X69497523Y-72766152D01*
X69497523Y-72766152D02*
X69687999Y-72766152D01*
X69687999Y-72766152D02*
X69783237Y-72813771D01*
X69783237Y-72813771D02*
X69830856Y-72909009D01*
X69830856Y-72909009D02*
X69830856Y-73004247D01*
X69830856Y-73004247D02*
X69354666Y-73099485D01*
X70259428Y-72766152D02*
X70259428Y-73432819D01*
X70259428Y-72861390D02*
X70307047Y-72813771D01*
X70307047Y-72813771D02*
X70402285Y-72766152D01*
X70402285Y-72766152D02*
X70545142Y-72766152D01*
X70545142Y-72766152D02*
X70640380Y-72813771D01*
X70640380Y-72813771D02*
X70687999Y-72909009D01*
X70687999Y-72909009D02*
X70687999Y-73432819D01*
X71116571Y-73385200D02*
X71211809Y-73432819D01*
X71211809Y-73432819D02*
X71402285Y-73432819D01*
X71402285Y-73432819D02*
X71497523Y-73385200D01*
X71497523Y-73385200D02*
X71545142Y-73289961D01*
X71545142Y-73289961D02*
X71545142Y-73242342D01*
X71545142Y-73242342D02*
X71497523Y-73147104D01*
X71497523Y-73147104D02*
X71402285Y-73099485D01*
X71402285Y-73099485D02*
X71259428Y-73099485D01*
X71259428Y-73099485D02*
X71164190Y-73051866D01*
X71164190Y-73051866D02*
X71116571Y-72956628D01*
X71116571Y-72956628D02*
X71116571Y-72909009D01*
X71116571Y-72909009D02*
X71164190Y-72813771D01*
X71164190Y-72813771D02*
X71259428Y-72766152D01*
X71259428Y-72766152D02*
X71402285Y-72766152D01*
X71402285Y-72766152D02*
X71497523Y-72813771D01*
X72116571Y-73432819D02*
X72021333Y-73385200D01*
X72021333Y-73385200D02*
X71973714Y-73337580D01*
X71973714Y-73337580D02*
X71926095Y-73242342D01*
X71926095Y-73242342D02*
X71926095Y-72956628D01*
X71926095Y-72956628D02*
X71973714Y-72861390D01*
X71973714Y-72861390D02*
X72021333Y-72813771D01*
X72021333Y-72813771D02*
X72116571Y-72766152D01*
X72116571Y-72766152D02*
X72259428Y-72766152D01*
X72259428Y-72766152D02*
X72354666Y-72813771D01*
X72354666Y-72813771D02*
X72402285Y-72861390D01*
X72402285Y-72861390D02*
X72449904Y-72956628D01*
X72449904Y-72956628D02*
X72449904Y-73242342D01*
X72449904Y-73242342D02*
X72402285Y-73337580D01*
X72402285Y-73337580D02*
X72354666Y-73385200D01*
X72354666Y-73385200D02*
X72259428Y-73432819D01*
X72259428Y-73432819D02*
X72116571Y-73432819D01*
X72878476Y-73432819D02*
X72878476Y-72766152D01*
X72878476Y-72956628D02*
X72926095Y-72861390D01*
X72926095Y-72861390D02*
X72973714Y-72813771D01*
X72973714Y-72813771D02*
X73068952Y-72766152D01*
X73068952Y-72766152D02*
X73164190Y-72766152D01*
X88279612Y-90297198D02*
X89089448Y-90297198D01*
X89089448Y-90297198D02*
X89184723Y-90249561D01*
X89184723Y-90249561D02*
X89232361Y-90201924D01*
X89232361Y-90201924D02*
X89279998Y-90106649D01*
X89279998Y-90106649D02*
X89279998Y-89916099D01*
X89279998Y-89916099D02*
X89232361Y-89820824D01*
X89232361Y-89820824D02*
X89184723Y-89773187D01*
X89184723Y-89773187D02*
X89089448Y-89725549D01*
X89089448Y-89725549D02*
X88279612Y-89725549D01*
X89279998Y-88725164D02*
X89279998Y-89296813D01*
X89279998Y-89010988D02*
X88279612Y-89010988D01*
X88279612Y-89010988D02*
X88422524Y-89106263D01*
X88422524Y-89106263D02*
X88517799Y-89201538D01*
X88517799Y-89201538D02*
X88565437Y-89296813D01*
D11*
%TO.C,R3*%
X49530000Y-58444000D02*
X49530000Y-59214000D01*
X50900000Y-59214000D02*
X48160000Y-59214000D01*
X48160000Y-59214000D02*
X48160000Y-65754000D01*
X50900000Y-65754000D02*
X50900000Y-59214000D01*
X48160000Y-65754000D02*
X50900000Y-65754000D01*
X49530000Y-66524000D02*
X49530000Y-65754000D01*
%TO.C,R1*%
X61444000Y-54610000D02*
X60674000Y-54610000D01*
X60674000Y-55980000D02*
X60674000Y-53240000D01*
X60674000Y-53240000D02*
X54134000Y-53240000D01*
X54134000Y-55980000D02*
X60674000Y-55980000D01*
X54134000Y-53240000D02*
X54134000Y-55980000D01*
X53364000Y-54610000D02*
X54134000Y-54610000D01*
%TO.C,R2*%
X36830000Y-66524000D02*
X36830000Y-65754000D01*
X35460000Y-65754000D02*
X38200000Y-65754000D01*
X38200000Y-65754000D02*
X38200000Y-59214000D01*
X35460000Y-59214000D02*
X35460000Y-65754000D01*
X38200000Y-59214000D02*
X35460000Y-59214000D01*
X36830000Y-58444000D02*
X36830000Y-59214000D01*
%TO.C,J2*%
X93539000Y-81865000D02*
X94234000Y-81865000D01*
X93539000Y-82550000D02*
X93539000Y-81865000D01*
X93539000Y-83235000D02*
X93539000Y-83110000D01*
X93539000Y-83235000D02*
X93625724Y-83235000D01*
X93539000Y-83235000D02*
X94929000Y-83235000D01*
X94842276Y-83235000D02*
X94929000Y-83235000D01*
X94929000Y-83235000D02*
X94929000Y-83110000D01*
%TO.C,J4*%
X93539000Y-96851000D02*
X94234000Y-96851000D01*
X93539000Y-97536000D02*
X93539000Y-96851000D01*
X93539000Y-98221000D02*
X93539000Y-98096000D01*
X93539000Y-98221000D02*
X93625724Y-98221000D01*
X93539000Y-98221000D02*
X94929000Y-98221000D01*
X94842276Y-98221000D02*
X94929000Y-98221000D01*
X94929000Y-98221000D02*
X94929000Y-98096000D01*
%TO.C,J3*%
X93539000Y-91263000D02*
X94234000Y-91263000D01*
X93539000Y-91948000D02*
X93539000Y-91263000D01*
X93539000Y-92633000D02*
X93539000Y-92508000D01*
X93539000Y-92633000D02*
X93625724Y-92633000D01*
X93539000Y-92633000D02*
X94929000Y-92633000D01*
X94842276Y-92633000D02*
X94929000Y-92633000D01*
X94929000Y-92633000D02*
X94929000Y-92508000D01*
%TO.C,C1*%
X61243000Y-64521651D02*
X61243000Y-65321651D01*
X61643000Y-64921651D02*
X60843000Y-64921651D01*
X63008000Y-68931349D02*
X54848000Y-68931349D01*
X63008000Y-68971349D02*
X54848000Y-68971349D01*
X63008000Y-69011349D02*
X54848000Y-69011349D01*
X63007000Y-69051349D02*
X54849000Y-69051349D01*
X63005000Y-69091349D02*
X54851000Y-69091349D01*
X63004000Y-69131349D02*
X54852000Y-69131349D01*
X63002000Y-69171349D02*
X54854000Y-69171349D01*
X62999000Y-69211349D02*
X54857000Y-69211349D01*
X62996000Y-69251349D02*
X54860000Y-69251349D01*
X62993000Y-69291349D02*
X54863000Y-69291349D01*
X62989000Y-69331349D02*
X54867000Y-69331349D01*
X62985000Y-69371349D02*
X54871000Y-69371349D01*
X62980000Y-69411349D02*
X54876000Y-69411349D01*
X62976000Y-69451349D02*
X54880000Y-69451349D01*
X62970000Y-69491349D02*
X54886000Y-69491349D01*
X62965000Y-69531349D02*
X54891000Y-69531349D01*
X62958000Y-69571349D02*
X54898000Y-69571349D01*
X62952000Y-69611349D02*
X54904000Y-69611349D01*
X62945000Y-69652349D02*
X54911000Y-69652349D01*
X62938000Y-69692349D02*
X54918000Y-69692349D01*
X62930000Y-69732349D02*
X54926000Y-69732349D01*
X62922000Y-69772349D02*
X54934000Y-69772349D01*
X62913000Y-69812349D02*
X59968000Y-69812349D01*
X57888000Y-69812349D02*
X54943000Y-69812349D01*
X62904000Y-69852349D02*
X59968000Y-69852349D01*
X57888000Y-69852349D02*
X54952000Y-69852349D01*
X62895000Y-69892349D02*
X59968000Y-69892349D01*
X57888000Y-69892349D02*
X54961000Y-69892349D01*
X62885000Y-69932349D02*
X59968000Y-69932349D01*
X57888000Y-69932349D02*
X54971000Y-69932349D01*
X62875000Y-69972349D02*
X59968000Y-69972349D01*
X57888000Y-69972349D02*
X54981000Y-69972349D01*
X62864000Y-70012349D02*
X59968000Y-70012349D01*
X57888000Y-70012349D02*
X54992000Y-70012349D01*
X62853000Y-70052349D02*
X59968000Y-70052349D01*
X57888000Y-70052349D02*
X55003000Y-70052349D01*
X62842000Y-70092349D02*
X59968000Y-70092349D01*
X57888000Y-70092349D02*
X55014000Y-70092349D01*
X62830000Y-70132349D02*
X59968000Y-70132349D01*
X57888000Y-70132349D02*
X55026000Y-70132349D01*
X62817000Y-70172349D02*
X59968000Y-70172349D01*
X57888000Y-70172349D02*
X55039000Y-70172349D01*
X62805000Y-70212349D02*
X59968000Y-70212349D01*
X57888000Y-70212349D02*
X55051000Y-70212349D01*
X62791000Y-70252349D02*
X59968000Y-70252349D01*
X57888000Y-70252349D02*
X55065000Y-70252349D01*
X62778000Y-70292349D02*
X59968000Y-70292349D01*
X57888000Y-70292349D02*
X55078000Y-70292349D01*
X62763000Y-70332349D02*
X59968000Y-70332349D01*
X57888000Y-70332349D02*
X55093000Y-70332349D01*
X62749000Y-70372349D02*
X59968000Y-70372349D01*
X57888000Y-70372349D02*
X55107000Y-70372349D01*
X62733000Y-70412349D02*
X59968000Y-70412349D01*
X57888000Y-70412349D02*
X55123000Y-70412349D01*
X62718000Y-70452349D02*
X59968000Y-70452349D01*
X57888000Y-70452349D02*
X55138000Y-70452349D01*
X62702000Y-70492349D02*
X59968000Y-70492349D01*
X57888000Y-70492349D02*
X55154000Y-70492349D01*
X62685000Y-70532349D02*
X59968000Y-70532349D01*
X57888000Y-70532349D02*
X55171000Y-70532349D01*
X62668000Y-70572349D02*
X59968000Y-70572349D01*
X57888000Y-70572349D02*
X55188000Y-70572349D01*
X62650000Y-70612349D02*
X59968000Y-70612349D01*
X57888000Y-70612349D02*
X55206000Y-70612349D01*
X62632000Y-70652349D02*
X59968000Y-70652349D01*
X57888000Y-70652349D02*
X55224000Y-70652349D01*
X62614000Y-70692349D02*
X59968000Y-70692349D01*
X57888000Y-70692349D02*
X55242000Y-70692349D01*
X62594000Y-70732349D02*
X59968000Y-70732349D01*
X57888000Y-70732349D02*
X55262000Y-70732349D01*
X62575000Y-70772349D02*
X59968000Y-70772349D01*
X57888000Y-70772349D02*
X55281000Y-70772349D01*
X62555000Y-70812349D02*
X59968000Y-70812349D01*
X57888000Y-70812349D02*
X55301000Y-70812349D01*
X62534000Y-70852349D02*
X59968000Y-70852349D01*
X57888000Y-70852349D02*
X55322000Y-70852349D01*
X62512000Y-70892349D02*
X59968000Y-70892349D01*
X57888000Y-70892349D02*
X55344000Y-70892349D01*
X62490000Y-70932349D02*
X59968000Y-70932349D01*
X57888000Y-70932349D02*
X55366000Y-70932349D01*
X62468000Y-70972349D02*
X59968000Y-70972349D01*
X57888000Y-70972349D02*
X55388000Y-70972349D01*
X62445000Y-71012349D02*
X59968000Y-71012349D01*
X57888000Y-71012349D02*
X55411000Y-71012349D01*
X62421000Y-71052349D02*
X59968000Y-71052349D01*
X57888000Y-71052349D02*
X55435000Y-71052349D01*
X62397000Y-71092349D02*
X59968000Y-71092349D01*
X57888000Y-71092349D02*
X55459000Y-71092349D01*
X62372000Y-71132349D02*
X59968000Y-71132349D01*
X57888000Y-71132349D02*
X55484000Y-71132349D01*
X62346000Y-71172349D02*
X59968000Y-71172349D01*
X57888000Y-71172349D02*
X55510000Y-71172349D01*
X62320000Y-71212349D02*
X59968000Y-71212349D01*
X57888000Y-71212349D02*
X55536000Y-71212349D01*
X62293000Y-71252349D02*
X59968000Y-71252349D01*
X57888000Y-71252349D02*
X55563000Y-71252349D01*
X62266000Y-71292349D02*
X59968000Y-71292349D01*
X57888000Y-71292349D02*
X55590000Y-71292349D01*
X62237000Y-71332349D02*
X59968000Y-71332349D01*
X57888000Y-71332349D02*
X55619000Y-71332349D01*
X62208000Y-71372349D02*
X59968000Y-71372349D01*
X57888000Y-71372349D02*
X55648000Y-71372349D01*
X62178000Y-71412349D02*
X59968000Y-71412349D01*
X57888000Y-71412349D02*
X55678000Y-71412349D01*
X62148000Y-71452349D02*
X59968000Y-71452349D01*
X57888000Y-71452349D02*
X55708000Y-71452349D01*
X62117000Y-71492349D02*
X59968000Y-71492349D01*
X57888000Y-71492349D02*
X55739000Y-71492349D01*
X62084000Y-71532349D02*
X59968000Y-71532349D01*
X57888000Y-71532349D02*
X55772000Y-71532349D01*
X62052000Y-71572349D02*
X59968000Y-71572349D01*
X57888000Y-71572349D02*
X55804000Y-71572349D01*
X62018000Y-71612349D02*
X59968000Y-71612349D01*
X57888000Y-71612349D02*
X55838000Y-71612349D01*
X61983000Y-71652349D02*
X59968000Y-71652349D01*
X57888000Y-71652349D02*
X55873000Y-71652349D01*
X61947000Y-71692349D02*
X59968000Y-71692349D01*
X57888000Y-71692349D02*
X55909000Y-71692349D01*
X61911000Y-71732349D02*
X59968000Y-71732349D01*
X57888000Y-71732349D02*
X55945000Y-71732349D01*
X61873000Y-71772349D02*
X59968000Y-71772349D01*
X57888000Y-71772349D02*
X55983000Y-71772349D01*
X61835000Y-71812349D02*
X59968000Y-71812349D01*
X57888000Y-71812349D02*
X56021000Y-71812349D01*
X61795000Y-71852349D02*
X59968000Y-71852349D01*
X57888000Y-71852349D02*
X56061000Y-71852349D01*
X61754000Y-71892349D02*
X56102000Y-71892349D01*
X61712000Y-71932349D02*
X56144000Y-71932349D01*
X61669000Y-71972349D02*
X56187000Y-71972349D01*
X61625000Y-72012349D02*
X56231000Y-72012349D01*
X61579000Y-72052349D02*
X56277000Y-72052349D01*
X61532000Y-72092349D02*
X56324000Y-72092349D01*
X61484000Y-72132349D02*
X56372000Y-72132349D01*
X61433000Y-72172349D02*
X56423000Y-72172349D01*
X61382000Y-72212349D02*
X56474000Y-72212349D01*
X61328000Y-72252349D02*
X56528000Y-72252349D01*
X61273000Y-72292349D02*
X56583000Y-72292349D01*
X61215000Y-72332349D02*
X56641000Y-72332349D01*
X61156000Y-72372349D02*
X56700000Y-72372349D01*
X61094000Y-72412349D02*
X56762000Y-72412349D01*
X61030000Y-72452349D02*
X56826000Y-72452349D01*
X60962000Y-72492349D02*
X56894000Y-72492349D01*
X60892000Y-72532349D02*
X56964000Y-72532349D01*
X60818000Y-72572349D02*
X57038000Y-72572349D01*
X60741000Y-72612349D02*
X57115000Y-72612349D01*
X60659000Y-72652349D02*
X57197000Y-72652349D01*
X60573000Y-72692349D02*
X57283000Y-72692349D01*
X60480000Y-72732349D02*
X57376000Y-72732349D01*
X60381000Y-72772349D02*
X57475000Y-72772349D01*
X60274000Y-72812349D02*
X57582000Y-72812349D01*
X60157000Y-72852349D02*
X57699000Y-72852349D01*
X60026000Y-72892349D02*
X57830000Y-72892349D01*
X59876000Y-72932349D02*
X57980000Y-72932349D01*
X59696000Y-72972349D02*
X58160000Y-72972349D01*
X59461000Y-73012349D02*
X58395000Y-73012349D01*
X63048000Y-68931349D02*
G75*
G03*
X54808000Y-68931349I-4120000J0D01*
G01*
X54808000Y-68931349D02*
G75*
G03*
X63048000Y-68931349I4120000J0D01*
G01*
%TO.C,J1*%
X64968000Y-57608000D02*
X66868000Y-57608000D01*
X64968000Y-71848000D02*
X64968000Y-57608000D01*
X66868000Y-53608000D02*
X73108000Y-53608000D01*
X66868000Y-57608000D02*
X66868000Y-53608000D01*
X73108000Y-53608000D02*
X73108000Y-57608000D01*
X73108000Y-57608000D02*
X73408000Y-57608000D01*
X73408000Y-57608000D02*
X73408000Y-71848000D01*
X73408000Y-71848000D02*
X64968000Y-71848000D01*
D12*
%TO.C,U1*%
X89940000Y-76220000D02*
X89940000Y-104120000D01*
X35540000Y-76220000D02*
X89940000Y-76220000D01*
X89940000Y-104120000D02*
X35540000Y-104120000D01*
X35540000Y-104120000D02*
X35540000Y-76220000D01*
D13*
X82650000Y-75570000D02*
G75*
G03*
X82450000Y-75570000I-100000J0D01*
G01*
X82450000Y-75570000D02*
G75*
G03*
X82650000Y-75570000I100000J0D01*
G01*
%TD*%
M02*
