M48
; DRILL file {KiCad 7.0.10} date Sun 18 Feb 2024 04:07:53 CET
; FORMAT={-:-/ absolute / inch / decimal}
; #@! TF.CreationDate,2024-02-18T04:07:53+01:00
; #@! TF.GenerationSoftware,Kicad,Pcbnew,7.0.10
; #@! TF.FileFunction,Plated,1,2,PTH
FMAT,2
INCH
; #@! TA.AperFunction,Plated,PTH,ComponentDrill
T1C0.0197
; #@! TA.AperFunction,Plated,PTH,ComponentDrill
T2C0.0315
; #@! TA.AperFunction,Plated,PTH,ComponentDrill
T3C0.0409
; #@! TA.AperFunction,Plated,PTH,ComponentDrill
T4C0.0787
%
G90
G05
T1
X3.71Y-3.25
X3.71Y-3.62
X3.71Y-3.84
T2
X1.45Y-2.26
X1.45Y-2.66
X1.95Y-2.26
X1.95Y-2.66
X2.06Y-2.15
X2.32Y-2.639
X2.32Y-2.7886
X2.46Y-2.15
T3
X1.45Y-3.05
X1.45Y-4.05
X1.55Y-3.05
X1.55Y-4.05
X1.65Y-3.05
X1.65Y-4.05
X1.75Y-3.05
X1.75Y-4.05
X1.85Y-3.05
X1.85Y-4.05
X1.95Y-3.05
X1.95Y-4.05
X2.05Y-3.05
X2.05Y-4.05
X2.15Y-3.05
X2.15Y-4.05
X2.25Y-3.05
X2.25Y-4.05
X2.35Y-3.05
X2.35Y-4.05
X2.45Y-3.05
X2.45Y-4.05
X2.55Y-3.05
X2.55Y-4.05
X2.65Y-3.05
X2.65Y-4.05
X2.75Y-3.05
X2.75Y-4.05
X2.85Y-3.05
X2.85Y-4.05
X2.95Y-3.05
X2.95Y-4.05
X3.05Y-3.05
X3.05Y-4.05
X3.15Y-3.05
X3.15Y-4.05
X3.25Y-3.05
X3.25Y-4.05
T4
X2.72Y-2.32
X2.7987Y-2.4145
X2.7987Y-2.631
M30
