%TF.GenerationSoftware,KiCad,Pcbnew,7.0.10*%
%TF.CreationDate,2024-02-18T04:07:48+01:00*%
%TF.ProjectId,main_board,6d61696e-5f62-46f6-9172-642e6b696361,rev?*%
%TF.SameCoordinates,Original*%
%TF.FileFunction,Copper,L1,Top*%
%TF.FilePolarity,Positive*%
%FSLAX46Y46*%
G04 Gerber Fmt 4.6, Leading zero omitted, Abs format (unit mm)*
G04 Created by KiCad (PCBNEW 7.0.10) date 2024-02-18 04:07:48*
%MOMM*%
%LPD*%
G01*
G04 APERTURE LIST*
%TA.AperFunction,ComponentPad*%
%ADD10C,1.600000*%
%TD*%
%TA.AperFunction,ComponentPad*%
%ADD11O,1.600000X1.600000*%
%TD*%
%TA.AperFunction,ComponentPad*%
%ADD12R,0.850000X0.850000*%
%TD*%
%TA.AperFunction,ComponentPad*%
%ADD13R,1.600000X1.600000*%
%TD*%
%TA.AperFunction,ComponentPad*%
%ADD14C,2.800000*%
%TD*%
%TA.AperFunction,ComponentPad*%
%ADD15R,1.560000X1.560000*%
%TD*%
%TA.AperFunction,ComponentPad*%
%ADD16C,1.560000*%
%TD*%
%TA.AperFunction,Conductor*%
%ADD17C,1.000000*%
%TD*%
G04 APERTURE END LIST*
D10*
%TO.P,R3,1*%
%TO.N,Net-(C1-Pad1)*%
X49530000Y-57404000D03*
D11*
%TO.P,R3,2*%
%TO.N,GND*%
X49530000Y-67564000D03*
%TD*%
D10*
%TO.P,R1,1*%
%TO.N,Net-(U1-IO34)*%
X62484000Y-54610000D03*
D11*
%TO.P,R1,2*%
%TO.N,Net-(C1-Pad1)*%
X52324000Y-54610000D03*
%TD*%
D10*
%TO.P,R2,1*%
%TO.N,VCC*%
X36830000Y-67564000D03*
D11*
%TO.P,R2,2*%
%TO.N,Net-(C1-Pad1)*%
X36830000Y-57404000D03*
%TD*%
D12*
%TO.P,J2,1,Pin_1*%
%TO.N,Net-(J2-Pin_1)*%
X94234000Y-82550000D03*
%TD*%
%TO.P,J4,1,Pin_1*%
%TO.N,GND*%
X94234000Y-97536000D03*
%TD*%
%TO.P,J3,1,Pin_1*%
%TO.N,VCC*%
X94234000Y-91948000D03*
%TD*%
D13*
%TO.P,C1,1*%
%TO.N,Net-(C1-Pad1)*%
X58928000Y-67031349D03*
D10*
%TO.P,C1,2*%
%TO.N,GND*%
X58928000Y-70831349D03*
%TD*%
D14*
%TO.P,J1,R*%
%TO.N,unconnected-(J1-PadR)*%
X71088000Y-66828000D03*
%TO.P,J1,S*%
%TO.N,Net-(C1-Pad1)*%
X69088000Y-58928000D03*
%TO.P,J1,T*%
%TO.N,Net-(U1-IO34)*%
X71088000Y-61328000D03*
%TD*%
D15*
%TO.P,U1,J2-1,3V3*%
%TO.N,unconnected-(U1-3V3-PadJ2-1)*%
X82550000Y-77470000D03*
D16*
%TO.P,U1,J2-2,EN*%
%TO.N,unconnected-(U1-EN-PadJ2-2)*%
X80010000Y-77470000D03*
%TO.P,U1,J2-3,SENSOR_VP*%
%TO.N,unconnected-(U1-SENSOR_VP-PadJ2-3)*%
X77470000Y-77470000D03*
%TO.P,U1,J2-4,SENSOR_VN*%
%TO.N,unconnected-(U1-SENSOR_VN-PadJ2-4)*%
X74930000Y-77470000D03*
%TO.P,U1,J2-5,IO34*%
%TO.N,Net-(U1-IO34)*%
X72390000Y-77470000D03*
%TO.P,U1,J2-6,IO35*%
%TO.N,Net-(J2-Pin_1)*%
X69850000Y-77470000D03*
%TO.P,U1,J2-7,IO32*%
%TO.N,unconnected-(U1-IO32-PadJ2-7)*%
X67310000Y-77470000D03*
%TO.P,U1,J2-8,IO33*%
%TO.N,unconnected-(U1-IO33-PadJ2-8)*%
X64770000Y-77470000D03*
%TO.P,U1,J2-9,IO25*%
%TO.N,unconnected-(U1-IO25-PadJ2-9)*%
X62230000Y-77470000D03*
%TO.P,U1,J2-10,IO26*%
%TO.N,unconnected-(U1-IO26-PadJ2-10)*%
X59690000Y-77470000D03*
%TO.P,U1,J2-11,IO27*%
%TO.N,unconnected-(U1-IO27-PadJ2-11)*%
X57150000Y-77470000D03*
%TO.P,U1,J2-12,IO14*%
%TO.N,unconnected-(U1-IO14-PadJ2-12)*%
X54610000Y-77470000D03*
%TO.P,U1,J2-13,IO12*%
%TO.N,unconnected-(U1-IO12-PadJ2-13)*%
X52070000Y-77470000D03*
%TO.P,U1,J2-14,GND1*%
%TO.N,GND*%
X49530000Y-77470000D03*
%TO.P,U1,J2-15,IO13*%
%TO.N,unconnected-(U1-IO13-PadJ2-15)*%
X46990000Y-77470000D03*
%TO.P,U1,J2-16,SD2*%
%TO.N,unconnected-(U1-SD2-PadJ2-16)*%
X44450000Y-77470000D03*
%TO.P,U1,J2-17,SD3*%
%TO.N,unconnected-(U1-SD3-PadJ2-17)*%
X41910000Y-77470000D03*
%TO.P,U1,J2-18,CMD*%
%TO.N,unconnected-(U1-CMD-PadJ2-18)*%
X39370000Y-77470000D03*
%TO.P,U1,J2-19,EXT_5V*%
%TO.N,VCC*%
X36830000Y-77470000D03*
%TO.P,U1,J3-1,GND3*%
%TO.N,GND*%
X82550000Y-102870000D03*
%TO.P,U1,J3-2,IO23*%
%TO.N,unconnected-(U1-IO23-PadJ3-2)*%
X80010000Y-102870000D03*
%TO.P,U1,J3-3,IO22*%
%TO.N,unconnected-(U1-IO22-PadJ3-3)*%
X77470000Y-102870000D03*
%TO.P,U1,J3-4,TXD0*%
%TO.N,unconnected-(U1-TXD0-PadJ3-4)*%
X74930000Y-102870000D03*
%TO.P,U1,J3-5,RXD0*%
%TO.N,unconnected-(U1-RXD0-PadJ3-5)*%
X72390000Y-102870000D03*
%TO.P,U1,J3-6,IO21*%
%TO.N,unconnected-(U1-IO21-PadJ3-6)*%
X69850000Y-102870000D03*
%TO.P,U1,J3-7,GND2*%
%TO.N,GND*%
X67310000Y-102870000D03*
%TO.P,U1,J3-8,IO19*%
%TO.N,unconnected-(U1-IO19-PadJ3-8)*%
X64770000Y-102870000D03*
%TO.P,U1,J3-9,IO18*%
%TO.N,unconnected-(U1-IO18-PadJ3-9)*%
X62230000Y-102870000D03*
%TO.P,U1,J3-10,IO5*%
%TO.N,unconnected-(U1-IO5-PadJ3-10)*%
X59690000Y-102870000D03*
%TO.P,U1,J3-11,IO17*%
%TO.N,unconnected-(U1-IO17-PadJ3-11)*%
X57150000Y-102870000D03*
%TO.P,U1,J3-12,IO16*%
%TO.N,unconnected-(U1-IO16-PadJ3-12)*%
X54610000Y-102870000D03*
%TO.P,U1,J3-13,IO4*%
%TO.N,unconnected-(U1-IO4-PadJ3-13)*%
X52070000Y-102870000D03*
%TO.P,U1,J3-14,IO0*%
%TO.N,unconnected-(U1-IO0-PadJ3-14)*%
X49530000Y-102870000D03*
%TO.P,U1,J3-15,IO2*%
%TO.N,unconnected-(U1-IO2-PadJ3-15)*%
X46990000Y-102870000D03*
%TO.P,U1,J3-16,IO15*%
%TO.N,unconnected-(U1-IO15-PadJ3-16)*%
X44450000Y-102870000D03*
%TO.P,U1,J3-17,SD1*%
%TO.N,unconnected-(U1-SD1-PadJ3-17)*%
X41910000Y-102870000D03*
%TO.P,U1,J3-18,SD0*%
%TO.N,unconnected-(U1-SD0-PadJ3-18)*%
X39370000Y-102870000D03*
%TO.P,U1,J3-19,CLK*%
%TO.N,unconnected-(U1-CLK-PadJ3-19)*%
X36830000Y-102870000D03*
%TD*%
D17*
%TO.N,Net-(C1-Pad1)*%
X46736000Y-54610000D02*
X52324000Y-54610000D01*
X36830000Y-57404000D02*
X39624000Y-54610000D01*
X58928000Y-67031349D02*
X60984651Y-67031349D01*
X60984651Y-67031349D02*
X69088000Y-58928000D01*
X58928000Y-66802000D02*
X58928000Y-67031349D01*
X49530000Y-57404000D02*
X58928000Y-66802000D01*
X49530000Y-57404000D02*
X46736000Y-54610000D01*
X39624000Y-54610000D02*
X46736000Y-54610000D01*
%TO.N,GND*%
X96520000Y-89916000D02*
X96520000Y-95250000D01*
X94234000Y-97536000D02*
X96520000Y-95250000D01*
X49530000Y-67564000D02*
X49530000Y-73406000D01*
X94234000Y-87630000D02*
X96520000Y-89916000D01*
X59690000Y-87630000D02*
X49530000Y-77470000D01*
X86360000Y-97536000D02*
X94234000Y-97536000D01*
X49530000Y-73406000D02*
X49530000Y-77470000D01*
X67310000Y-102870000D02*
X67310000Y-101092000D01*
X70866000Y-97536000D02*
X86360000Y-97536000D01*
X58928000Y-70831349D02*
X52104651Y-70831349D01*
X82550000Y-101346000D02*
X86360000Y-97536000D01*
X67310000Y-101092000D02*
X70866000Y-97536000D01*
X52104651Y-70831349D02*
X49530000Y-73406000D01*
X59690000Y-87630000D02*
X94234000Y-87630000D01*
X82550000Y-102870000D02*
X82550000Y-101346000D01*
%TO.N,Net-(U1-IO34)*%
X71628000Y-60788000D02*
X71088000Y-61328000D01*
X67818000Y-71374000D02*
X72390000Y-75946000D01*
X69596000Y-54610000D02*
X71628000Y-56642000D01*
X72390000Y-75946000D02*
X72390000Y-77470000D01*
X71628000Y-56642000D02*
X71628000Y-60788000D01*
X67818000Y-64598000D02*
X67818000Y-71374000D01*
X62484000Y-54610000D02*
X69596000Y-54610000D01*
X71088000Y-61328000D02*
X67818000Y-64598000D01*
%TO.N,Net-(J2-Pin_1)*%
X69850000Y-79756000D02*
X69850000Y-77470000D01*
X72644000Y-82550000D02*
X69850000Y-79756000D01*
X94234000Y-82550000D02*
X72644000Y-82550000D01*
%TO.N,VCC*%
X36830000Y-82296000D02*
X36830000Y-77470000D01*
X46482000Y-91948000D02*
X36830000Y-82296000D01*
X36830000Y-77470000D02*
X36830000Y-67564000D01*
X94234000Y-91948000D02*
X46482000Y-91948000D01*
%TD*%
%TA.AperFunction,Conductor*%
%TO.N,GND*%
G36*
X74238039Y-31769685D02*
G01*
X74283794Y-31822489D01*
X74295000Y-31874000D01*
X74295000Y-74930000D01*
X96095865Y-74930000D01*
X96162904Y-74949685D01*
X96208659Y-75002489D01*
X96218603Y-75071647D01*
X96189578Y-75135203D01*
X96132372Y-75171966D01*
X96132486Y-75172290D01*
X96131131Y-75172764D01*
X96130800Y-75172977D01*
X96130195Y-75173153D01*
X96129203Y-75173438D01*
X96129197Y-75173440D01*
X95869625Y-75280958D01*
X95867202Y-75281932D01*
X95865740Y-75282501D01*
X95862551Y-75283888D01*
X95807433Y-75306719D01*
X95807421Y-75306725D01*
X95502583Y-75475203D01*
X95502578Y-75475206D01*
X95218537Y-75676745D01*
X95218529Y-75676751D01*
X94958833Y-75908830D01*
X94958830Y-75908833D01*
X94726751Y-76168529D01*
X94726745Y-76168537D01*
X94525206Y-76452578D01*
X94525203Y-76452583D01*
X94356724Y-76757423D01*
X94223437Y-77079207D01*
X94127020Y-77413877D01*
X94127018Y-77413886D01*
X94068679Y-77757247D01*
X94068677Y-77757259D01*
X94049149Y-78105000D01*
X94068677Y-78452740D01*
X94068679Y-78452752D01*
X94127018Y-78796113D01*
X94127020Y-78796122D01*
X94222879Y-79128854D01*
X94223439Y-79130798D01*
X94310748Y-79341580D01*
X94356724Y-79452576D01*
X94525203Y-79757416D01*
X94525206Y-79757421D01*
X94726745Y-80041462D01*
X94726751Y-80041470D01*
X94958830Y-80301166D01*
X94958833Y-80301169D01*
X95218529Y-80533248D01*
X95218532Y-80533250D01*
X95218534Y-80533252D01*
X95248383Y-80554431D01*
X95502578Y-80734793D01*
X95502583Y-80734796D01*
X95502586Y-80734797D01*
X95502588Y-80734799D01*
X95671977Y-80828417D01*
X95807424Y-80903276D01*
X95807428Y-80903278D01*
X95862514Y-80926095D01*
X95865699Y-80927481D01*
X95865965Y-80927584D01*
X95865968Y-80927586D01*
X95867196Y-80928064D01*
X95869544Y-80929007D01*
X96129202Y-81036561D01*
X96187890Y-81053468D01*
X96192723Y-81055103D01*
X96192747Y-81055030D01*
X96196106Y-81056121D01*
X96196112Y-81056122D01*
X96196121Y-81056126D01*
X96206153Y-81058762D01*
X96208723Y-81059470D01*
X96463883Y-81132981D01*
X96528105Y-81143892D01*
X96538545Y-81146147D01*
X96538778Y-81146195D01*
X96555898Y-81148656D01*
X96559009Y-81149143D01*
X96807255Y-81191322D01*
X96876375Y-81195203D01*
X96887066Y-81196271D01*
X96888397Y-81196462D01*
X96889461Y-81196615D01*
X96912374Y-81197269D01*
X96915592Y-81197406D01*
X97155000Y-81210851D01*
X97228285Y-81206735D01*
X97238725Y-81206592D01*
X97243609Y-81206732D01*
X97270724Y-81204402D01*
X97274166Y-81204158D01*
X97502745Y-81191322D01*
X97579211Y-81178329D01*
X97589336Y-81177037D01*
X97596603Y-81176413D01*
X97626483Y-81170358D01*
X97630182Y-81169669D01*
X97846117Y-81132981D01*
X97924695Y-81110342D01*
X97934386Y-81107969D01*
X97943839Y-81106054D01*
X97975208Y-81095861D01*
X97979096Y-81094670D01*
X98180798Y-81036561D01*
X98260310Y-81003625D01*
X98269401Y-81000272D01*
X98280791Y-80996572D01*
X98312518Y-80982082D01*
X98316434Y-80980378D01*
X98472490Y-80915737D01*
X98502569Y-80903279D01*
X98502570Y-80903277D01*
X98502578Y-80903275D01*
X98581688Y-80859552D01*
X98590096Y-80855317D01*
X98603068Y-80849393D01*
X98634042Y-80830714D01*
X98637971Y-80828445D01*
X98807412Y-80734799D01*
X98884697Y-80679962D01*
X98892360Y-80674942D01*
X98906466Y-80666437D01*
X98935761Y-80643847D01*
X98939614Y-80640996D01*
X99091466Y-80533252D01*
X99165453Y-80467132D01*
X99172279Y-80461463D01*
X99187031Y-80450089D01*
X99213811Y-80424062D01*
X99217575Y-80420553D01*
X99351168Y-80301168D01*
X99420246Y-80223870D01*
X99426276Y-80217580D01*
X99441106Y-80203169D01*
X99464856Y-80174123D01*
X99468279Y-80170120D01*
X99583252Y-80041466D01*
X99645927Y-79953133D01*
X99650996Y-79946484D01*
X99665378Y-79928896D01*
X99685512Y-79897565D01*
X99688655Y-79892913D01*
X99784799Y-79757412D01*
X99839417Y-79658587D01*
X99843615Y-79651552D01*
X99856923Y-79630846D01*
X99873162Y-79597816D01*
X99875841Y-79592683D01*
X99953275Y-79452578D01*
X99998318Y-79343833D01*
X100001571Y-79336644D01*
X100013244Y-79312904D01*
X100025348Y-79278978D01*
X100027554Y-79273252D01*
X100086561Y-79130798D01*
X100086846Y-79129810D01*
X100086982Y-79129595D01*
X100087715Y-79127502D01*
X100088203Y-79127673D01*
X100124320Y-79070840D01*
X100187727Y-79041491D01*
X100256935Y-79051081D01*
X100309972Y-79096566D01*
X100329998Y-79163504D01*
X100330000Y-79164137D01*
X100330000Y-100540862D01*
X100310315Y-100607901D01*
X100257511Y-100653656D01*
X100188353Y-100663600D01*
X100124797Y-100634575D01*
X100088042Y-100577383D01*
X100087715Y-100577498D01*
X100087235Y-100576127D01*
X100087023Y-100575797D01*
X100086848Y-100575196D01*
X100086563Y-100574208D01*
X100027568Y-100431781D01*
X100025341Y-100426000D01*
X100013246Y-100392102D01*
X100013244Y-100392096D01*
X100001578Y-100368370D01*
X99998302Y-100361126D01*
X99953280Y-100252433D01*
X99953278Y-100252429D01*
X99953275Y-100252422D01*
X99875861Y-100112352D01*
X99873124Y-100107106D01*
X99856922Y-100074152D01*
X99843625Y-100053462D01*
X99839412Y-100046403D01*
X99784796Y-99947583D01*
X99784793Y-99947578D01*
X99688678Y-99812117D01*
X99685504Y-99807422D01*
X99665378Y-99776104D01*
X99665372Y-99776097D01*
X99665372Y-99776096D01*
X99651028Y-99758555D01*
X99645891Y-99751816D01*
X99583247Y-99663527D01*
X99468326Y-99534932D01*
X99464824Y-99530837D01*
X99441106Y-99501831D01*
X99441105Y-99501830D01*
X99426276Y-99487418D01*
X99420240Y-99481123D01*
X99351169Y-99403833D01*
X99351166Y-99403830D01*
X99217604Y-99284471D01*
X99213811Y-99280937D01*
X99187031Y-99254911D01*
X99172315Y-99243563D01*
X99165409Y-99237827D01*
X99091476Y-99171756D01*
X99091469Y-99171751D01*
X99091466Y-99171748D01*
X98939626Y-99064011D01*
X98935726Y-99061126D01*
X98921520Y-99050171D01*
X98906469Y-99038564D01*
X98906458Y-99038557D01*
X98892376Y-99030065D01*
X98884664Y-99025014D01*
X98843585Y-98995867D01*
X98807414Y-98970202D01*
X98638035Y-98876589D01*
X98633985Y-98874250D01*
X98614626Y-98862577D01*
X98603068Y-98855607D01*
X98603062Y-98855604D01*
X98603058Y-98855602D01*
X98590127Y-98849697D01*
X98581656Y-98845430D01*
X98564822Y-98836126D01*
X98502578Y-98801725D01*
X98441853Y-98776572D01*
X98316481Y-98724641D01*
X98312421Y-98722873D01*
X98280797Y-98708430D01*
X98269413Y-98704731D01*
X98260282Y-98701362D01*
X98180809Y-98668443D01*
X98180803Y-98668441D01*
X98180798Y-98668439D01*
X98153974Y-98660711D01*
X97979132Y-98610338D01*
X97975146Y-98609117D01*
X97943839Y-98598945D01*
X97934387Y-98597030D01*
X97924692Y-98594655D01*
X97846127Y-98572021D01*
X97846113Y-98572018D01*
X97630245Y-98535340D01*
X97626391Y-98534622D01*
X97596612Y-98528588D01*
X97596604Y-98528587D01*
X97596603Y-98528587D01*
X97594746Y-98528427D01*
X97589334Y-98527962D01*
X97579193Y-98526666D01*
X97502746Y-98513678D01*
X97274258Y-98500846D01*
X97270602Y-98500586D01*
X97243608Y-98498267D01*
X97238740Y-98498407D01*
X97228250Y-98498262D01*
X97155000Y-98494149D01*
X96915664Y-98507589D01*
X96912257Y-98507733D01*
X96889469Y-98508384D01*
X96889447Y-98508386D01*
X96887056Y-98508730D01*
X96876381Y-98509795D01*
X96807252Y-98513678D01*
X96559023Y-98555853D01*
X96555904Y-98556342D01*
X96538789Y-98558803D01*
X96538541Y-98558853D01*
X96528102Y-98561107D01*
X96463883Y-98572019D01*
X96463876Y-98572020D01*
X96208831Y-98645497D01*
X96206039Y-98646266D01*
X96196128Y-98648872D01*
X96196125Y-98648872D01*
X96196121Y-98648874D01*
X96196116Y-98648875D01*
X96192757Y-98649967D01*
X96192733Y-98649896D01*
X96187901Y-98651527D01*
X96129202Y-98668438D01*
X96129197Y-98668440D01*
X95869625Y-98775958D01*
X95867202Y-98776932D01*
X95865740Y-98777501D01*
X95862551Y-98778888D01*
X95807433Y-98801719D01*
X95807421Y-98801725D01*
X95502583Y-98970203D01*
X95502578Y-98970206D01*
X95218537Y-99171745D01*
X95218529Y-99171751D01*
X94958833Y-99403830D01*
X94958830Y-99403833D01*
X94726751Y-99663529D01*
X94726745Y-99663537D01*
X94525206Y-99947578D01*
X94525203Y-99947583D01*
X94356724Y-100252423D01*
X94223437Y-100574207D01*
X94127020Y-100908877D01*
X94127018Y-100908886D01*
X94068679Y-101252247D01*
X94068677Y-101252259D01*
X94049149Y-101600000D01*
X94068677Y-101947740D01*
X94068679Y-101947752D01*
X94127018Y-102291113D01*
X94127020Y-102291122D01*
X94222879Y-102623854D01*
X94223439Y-102625798D01*
X94309754Y-102834180D01*
X94356724Y-102947576D01*
X94525203Y-103252416D01*
X94525206Y-103252421D01*
X94726745Y-103536462D01*
X94726751Y-103536470D01*
X94958827Y-103796163D01*
X94958829Y-103796165D01*
X94958832Y-103796168D01*
X95101362Y-103923541D01*
X95138233Y-103982890D01*
X95137164Y-104052751D01*
X95098494Y-104110944D01*
X95034502Y-104138993D01*
X95018735Y-104140000D01*
X83361141Y-104140000D01*
X83294102Y-104120315D01*
X83248347Y-104067511D01*
X83238403Y-103998353D01*
X83259601Y-103951935D01*
X83261112Y-103934665D01*
X82698765Y-103372318D01*
X82822724Y-103318475D01*
X82933608Y-103228265D01*
X83016041Y-103111483D01*
X83049864Y-103016311D01*
X83614665Y-103581112D01*
X83662742Y-103512451D01*
X83662746Y-103512445D01*
X83757399Y-103309459D01*
X83757403Y-103309450D01*
X83815367Y-103093124D01*
X83815369Y-103093113D01*
X83834889Y-102870002D01*
X83834889Y-102869997D01*
X83815369Y-102646886D01*
X83815367Y-102646875D01*
X83757403Y-102430549D01*
X83757399Y-102430540D01*
X83662747Y-102227557D01*
X83662746Y-102227555D01*
X83614664Y-102158887D01*
X83614664Y-102158886D01*
X83050559Y-102722991D01*
X83044582Y-102694225D01*
X82978819Y-102567307D01*
X82881251Y-102462838D01*
X82759116Y-102388566D01*
X82695660Y-102370786D01*
X83261112Y-101805334D01*
X83261112Y-101805333D01*
X83192445Y-101757253D01*
X83192443Y-101757252D01*
X82989459Y-101662600D01*
X82989450Y-101662596D01*
X82773124Y-101604632D01*
X82773113Y-101604630D01*
X82550002Y-101585111D01*
X82549998Y-101585111D01*
X82326886Y-101604630D01*
X82326875Y-101604632D01*
X82110549Y-101662596D01*
X82110540Y-101662600D01*
X81907556Y-101757253D01*
X81838887Y-101805334D01*
X82401234Y-102367681D01*
X82277276Y-102421525D01*
X82166392Y-102511735D01*
X82083959Y-102628517D01*
X82050135Y-102723688D01*
X81485334Y-102158887D01*
X81437254Y-102227554D01*
X81392657Y-102323192D01*
X81346484Y-102375631D01*
X81279290Y-102394782D01*
X81212409Y-102374566D01*
X81167893Y-102323191D01*
X81167617Y-102322600D01*
X81123181Y-102227305D01*
X80994667Y-102043767D01*
X80836233Y-101885333D01*
X80836229Y-101885330D01*
X80836228Y-101885329D01*
X80652700Y-101756821D01*
X80652696Y-101756819D01*
X80652694Y-101756818D01*
X80449630Y-101662128D01*
X80449627Y-101662127D01*
X80449625Y-101662126D01*
X80233208Y-101604137D01*
X80233200Y-101604136D01*
X80010002Y-101584609D01*
X80009998Y-101584609D01*
X79786799Y-101604136D01*
X79786791Y-101604137D01*
X79570374Y-101662126D01*
X79570370Y-101662128D01*
X79569358Y-101662600D01*
X79367306Y-101756818D01*
X79367304Y-101756819D01*
X79183764Y-101885334D01*
X79025334Y-102043764D01*
X78896819Y-102227304D01*
X78896818Y-102227306D01*
X78852382Y-102322600D01*
X78806209Y-102375039D01*
X78739016Y-102394191D01*
X78672135Y-102373975D01*
X78627618Y-102322600D01*
X78612326Y-102289807D01*
X78583181Y-102227305D01*
X78454667Y-102043767D01*
X78296233Y-101885333D01*
X78296229Y-101885330D01*
X78296228Y-101885329D01*
X78112700Y-101756821D01*
X78112696Y-101756819D01*
X78112694Y-101756818D01*
X77909630Y-101662128D01*
X77909627Y-101662127D01*
X77909625Y-101662126D01*
X77693208Y-101604137D01*
X77693200Y-101604136D01*
X77470002Y-101584609D01*
X77469998Y-101584609D01*
X77246799Y-101604136D01*
X77246791Y-101604137D01*
X77030374Y-101662126D01*
X77030370Y-101662128D01*
X77029358Y-101662600D01*
X76827306Y-101756818D01*
X76827304Y-101756819D01*
X76643764Y-101885334D01*
X76485334Y-102043764D01*
X76356819Y-102227304D01*
X76356818Y-102227306D01*
X76312382Y-102322600D01*
X76266209Y-102375039D01*
X76199016Y-102394191D01*
X76132135Y-102373975D01*
X76087618Y-102322600D01*
X76072326Y-102289807D01*
X76043181Y-102227305D01*
X75914667Y-102043767D01*
X75756233Y-101885333D01*
X75756229Y-101885330D01*
X75756228Y-101885329D01*
X75572700Y-101756821D01*
X75572696Y-101756819D01*
X75572694Y-101756818D01*
X75369630Y-101662128D01*
X75369627Y-101662127D01*
X75369625Y-101662126D01*
X75153208Y-101604137D01*
X75153200Y-101604136D01*
X74930002Y-101584609D01*
X74929998Y-101584609D01*
X74706799Y-101604136D01*
X74706791Y-101604137D01*
X74490374Y-101662126D01*
X74490370Y-101662128D01*
X74489358Y-101662600D01*
X74287306Y-101756818D01*
X74287304Y-101756819D01*
X74103764Y-101885334D01*
X73945334Y-102043764D01*
X73816819Y-102227304D01*
X73816818Y-102227306D01*
X73772382Y-102322600D01*
X73726209Y-102375039D01*
X73659016Y-102394191D01*
X73592135Y-102373975D01*
X73547618Y-102322600D01*
X73532326Y-102289807D01*
X73503181Y-102227305D01*
X73374667Y-102043767D01*
X73216233Y-101885333D01*
X73216229Y-101885330D01*
X73216228Y-101885329D01*
X73032700Y-101756821D01*
X73032696Y-101756819D01*
X73032694Y-101756818D01*
X72829630Y-101662128D01*
X72829627Y-101662127D01*
X72829625Y-101662126D01*
X72613208Y-101604137D01*
X72613200Y-101604136D01*
X72390002Y-101584609D01*
X72389998Y-101584609D01*
X72166799Y-101604136D01*
X72166791Y-101604137D01*
X71950374Y-101662126D01*
X71950370Y-101662128D01*
X71949358Y-101662600D01*
X71747306Y-101756818D01*
X71747304Y-101756819D01*
X71563764Y-101885334D01*
X71405334Y-102043764D01*
X71276819Y-102227304D01*
X71276818Y-102227306D01*
X71232382Y-102322600D01*
X71186209Y-102375039D01*
X71119016Y-102394191D01*
X71052135Y-102373975D01*
X71007618Y-102322600D01*
X70992326Y-102289807D01*
X70963181Y-102227305D01*
X70834667Y-102043767D01*
X70676233Y-101885333D01*
X70676229Y-101885330D01*
X70676228Y-101885329D01*
X70492700Y-101756821D01*
X70492696Y-101756819D01*
X70492694Y-101756818D01*
X70289630Y-101662128D01*
X70289627Y-101662127D01*
X70289625Y-101662126D01*
X70073208Y-101604137D01*
X70073200Y-101604136D01*
X69850002Y-101584609D01*
X69849998Y-101584609D01*
X69626799Y-101604136D01*
X69626791Y-101604137D01*
X69410374Y-101662126D01*
X69410370Y-101662128D01*
X69409358Y-101662600D01*
X69207306Y-101756818D01*
X69207304Y-101756819D01*
X69023764Y-101885334D01*
X68865334Y-102043764D01*
X68736820Y-102227303D01*
X68736819Y-102227305D01*
X68710346Y-102284074D01*
X68692106Y-102323192D01*
X68645933Y-102375630D01*
X68578739Y-102394782D01*
X68511858Y-102374566D01*
X68467342Y-102323191D01*
X68422747Y-102227557D01*
X68422746Y-102227555D01*
X68374664Y-102158887D01*
X68374664Y-102158886D01*
X67810559Y-102722991D01*
X67804582Y-102694225D01*
X67738819Y-102567307D01*
X67641251Y-102462838D01*
X67519116Y-102388566D01*
X67455660Y-102370786D01*
X68021112Y-101805334D01*
X68021112Y-101805333D01*
X67952445Y-101757253D01*
X67952443Y-101757252D01*
X67749459Y-101662600D01*
X67749450Y-101662596D01*
X67533124Y-101604632D01*
X67533113Y-101604630D01*
X67310002Y-101585111D01*
X67309998Y-101585111D01*
X67086886Y-101604630D01*
X67086875Y-101604632D01*
X66870549Y-101662596D01*
X66870540Y-101662600D01*
X66667556Y-101757253D01*
X66598887Y-101805334D01*
X67161234Y-102367681D01*
X67037276Y-102421525D01*
X66926392Y-102511735D01*
X66843959Y-102628517D01*
X66810135Y-102723688D01*
X66245334Y-102158887D01*
X66197254Y-102227554D01*
X66152657Y-102323192D01*
X66106484Y-102375631D01*
X66039290Y-102394782D01*
X65972409Y-102374566D01*
X65927893Y-102323191D01*
X65927617Y-102322600D01*
X65883181Y-102227305D01*
X65754667Y-102043767D01*
X65596233Y-101885333D01*
X65596229Y-101885330D01*
X65596228Y-101885329D01*
X65412700Y-101756821D01*
X65412696Y-101756819D01*
X65412694Y-101756818D01*
X65209630Y-101662128D01*
X65209627Y-101662127D01*
X65209625Y-101662126D01*
X64993208Y-101604137D01*
X64993200Y-101604136D01*
X64770002Y-101584609D01*
X64769998Y-101584609D01*
X64546799Y-101604136D01*
X64546791Y-101604137D01*
X64330374Y-101662126D01*
X64330370Y-101662128D01*
X64329358Y-101662600D01*
X64127306Y-101756818D01*
X64127304Y-101756819D01*
X63943764Y-101885334D01*
X63785334Y-102043764D01*
X63656819Y-102227304D01*
X63656818Y-102227306D01*
X63612382Y-102322600D01*
X63566209Y-102375039D01*
X63499016Y-102394191D01*
X63432135Y-102373975D01*
X63387618Y-102322600D01*
X63372326Y-102289807D01*
X63343181Y-102227305D01*
X63214667Y-102043767D01*
X63056233Y-101885333D01*
X63056229Y-101885330D01*
X63056228Y-101885329D01*
X62872700Y-101756821D01*
X62872696Y-101756819D01*
X62872694Y-101756818D01*
X62669630Y-101662128D01*
X62669627Y-101662127D01*
X62669625Y-101662126D01*
X62453208Y-101604137D01*
X62453200Y-101604136D01*
X62230002Y-101584609D01*
X62229998Y-101584609D01*
X62006799Y-101604136D01*
X62006791Y-101604137D01*
X61790374Y-101662126D01*
X61790370Y-101662128D01*
X61789358Y-101662600D01*
X61587306Y-101756818D01*
X61587304Y-101756819D01*
X61403764Y-101885334D01*
X61245334Y-102043764D01*
X61116819Y-102227304D01*
X61116818Y-102227306D01*
X61072382Y-102322600D01*
X61026209Y-102375039D01*
X60959016Y-102394191D01*
X60892135Y-102373975D01*
X60847618Y-102322600D01*
X60832326Y-102289807D01*
X60803181Y-102227305D01*
X60674667Y-102043767D01*
X60516233Y-101885333D01*
X60516229Y-101885330D01*
X60516228Y-101885329D01*
X60332700Y-101756821D01*
X60332696Y-101756819D01*
X60332694Y-101756818D01*
X60129630Y-101662128D01*
X60129627Y-101662127D01*
X60129625Y-101662126D01*
X59913208Y-101604137D01*
X59913200Y-101604136D01*
X59690002Y-101584609D01*
X59689998Y-101584609D01*
X59466799Y-101604136D01*
X59466791Y-101604137D01*
X59250374Y-101662126D01*
X59250370Y-101662128D01*
X59249358Y-101662600D01*
X59047306Y-101756818D01*
X59047304Y-101756819D01*
X58863764Y-101885334D01*
X58705334Y-102043764D01*
X58576819Y-102227304D01*
X58576818Y-102227306D01*
X58532382Y-102322600D01*
X58486209Y-102375039D01*
X58419016Y-102394191D01*
X58352135Y-102373975D01*
X58307618Y-102322600D01*
X58292326Y-102289807D01*
X58263181Y-102227305D01*
X58134667Y-102043767D01*
X57976233Y-101885333D01*
X57976229Y-101885330D01*
X57976228Y-101885329D01*
X57792700Y-101756821D01*
X57792696Y-101756819D01*
X57792694Y-101756818D01*
X57589630Y-101662128D01*
X57589627Y-101662127D01*
X57589625Y-101662126D01*
X57373208Y-101604137D01*
X57373200Y-101604136D01*
X57150002Y-101584609D01*
X57149998Y-101584609D01*
X56926799Y-101604136D01*
X56926791Y-101604137D01*
X56710374Y-101662126D01*
X56710370Y-101662128D01*
X56709358Y-101662600D01*
X56507306Y-101756818D01*
X56507304Y-101756819D01*
X56323764Y-101885334D01*
X56165334Y-102043764D01*
X56036819Y-102227304D01*
X56036818Y-102227306D01*
X55992382Y-102322600D01*
X55946209Y-102375039D01*
X55879016Y-102394191D01*
X55812135Y-102373975D01*
X55767618Y-102322600D01*
X55752326Y-102289807D01*
X55723181Y-102227305D01*
X55594667Y-102043767D01*
X55436233Y-101885333D01*
X55436229Y-101885330D01*
X55436228Y-101885329D01*
X55252700Y-101756821D01*
X55252696Y-101756819D01*
X55252694Y-101756818D01*
X55049630Y-101662128D01*
X55049627Y-101662127D01*
X55049625Y-101662126D01*
X54833208Y-101604137D01*
X54833200Y-101604136D01*
X54610002Y-101584609D01*
X54609998Y-101584609D01*
X54386799Y-101604136D01*
X54386791Y-101604137D01*
X54170374Y-101662126D01*
X54170370Y-101662128D01*
X54169358Y-101662600D01*
X53967306Y-101756818D01*
X53967304Y-101756819D01*
X53783764Y-101885334D01*
X53625334Y-102043764D01*
X53496819Y-102227304D01*
X53496818Y-102227306D01*
X53452382Y-102322600D01*
X53406209Y-102375039D01*
X53339016Y-102394191D01*
X53272135Y-102373975D01*
X53227618Y-102322600D01*
X53212326Y-102289807D01*
X53183181Y-102227305D01*
X53054667Y-102043767D01*
X52896233Y-101885333D01*
X52896229Y-101885330D01*
X52896228Y-101885329D01*
X52712700Y-101756821D01*
X52712696Y-101756819D01*
X52712694Y-101756818D01*
X52509630Y-101662128D01*
X52509627Y-101662127D01*
X52509625Y-101662126D01*
X52293208Y-101604137D01*
X52293200Y-101604136D01*
X52070002Y-101584609D01*
X52069998Y-101584609D01*
X51846799Y-101604136D01*
X51846791Y-101604137D01*
X51630374Y-101662126D01*
X51630370Y-101662128D01*
X51629358Y-101662600D01*
X51427306Y-101756818D01*
X51427304Y-101756819D01*
X51243764Y-101885334D01*
X51085334Y-102043764D01*
X50956819Y-102227304D01*
X50956818Y-102227306D01*
X50912382Y-102322600D01*
X50866209Y-102375039D01*
X50799016Y-102394191D01*
X50732135Y-102373975D01*
X50687618Y-102322600D01*
X50672326Y-102289807D01*
X50643181Y-102227305D01*
X50514667Y-102043767D01*
X50356233Y-101885333D01*
X50356229Y-101885330D01*
X50356228Y-101885329D01*
X50172700Y-101756821D01*
X50172696Y-101756819D01*
X50172694Y-101756818D01*
X49969630Y-101662128D01*
X49969627Y-101662127D01*
X49969625Y-101662126D01*
X49753208Y-101604137D01*
X49753200Y-101604136D01*
X49530002Y-101584609D01*
X49529998Y-101584609D01*
X49306799Y-101604136D01*
X49306791Y-101604137D01*
X49090374Y-101662126D01*
X49090370Y-101662128D01*
X49089358Y-101662600D01*
X48887306Y-101756818D01*
X48887304Y-101756819D01*
X48703764Y-101885334D01*
X48545334Y-102043764D01*
X48416819Y-102227304D01*
X48416818Y-102227306D01*
X48372382Y-102322600D01*
X48326209Y-102375039D01*
X48259016Y-102394191D01*
X48192135Y-102373975D01*
X48147618Y-102322600D01*
X48132326Y-102289807D01*
X48103181Y-102227305D01*
X47974667Y-102043767D01*
X47816233Y-101885333D01*
X47816229Y-101885330D01*
X47816228Y-101885329D01*
X47632700Y-101756821D01*
X47632696Y-101756819D01*
X47632694Y-101756818D01*
X47429630Y-101662128D01*
X47429627Y-101662127D01*
X47429625Y-101662126D01*
X47213208Y-101604137D01*
X47213200Y-101604136D01*
X46990002Y-101584609D01*
X46989998Y-101584609D01*
X46766799Y-101604136D01*
X46766791Y-101604137D01*
X46550374Y-101662126D01*
X46550370Y-101662128D01*
X46549358Y-101662600D01*
X46347306Y-101756818D01*
X46347304Y-101756819D01*
X46163764Y-101885334D01*
X46005334Y-102043764D01*
X45876819Y-102227304D01*
X45876818Y-102227306D01*
X45832382Y-102322600D01*
X45786209Y-102375039D01*
X45719016Y-102394191D01*
X45652135Y-102373975D01*
X45607618Y-102322600D01*
X45592326Y-102289807D01*
X45563181Y-102227305D01*
X45434667Y-102043767D01*
X45276233Y-101885333D01*
X45276229Y-101885330D01*
X45276228Y-101885329D01*
X45092700Y-101756821D01*
X45092696Y-101756819D01*
X45092694Y-101756818D01*
X44889630Y-101662128D01*
X44889627Y-101662127D01*
X44889625Y-101662126D01*
X44673208Y-101604137D01*
X44673200Y-101604136D01*
X44450002Y-101584609D01*
X44449998Y-101584609D01*
X44226799Y-101604136D01*
X44226791Y-101604137D01*
X44010374Y-101662126D01*
X44010370Y-101662128D01*
X44009358Y-101662600D01*
X43807306Y-101756818D01*
X43807304Y-101756819D01*
X43623764Y-101885334D01*
X43465334Y-102043764D01*
X43336819Y-102227304D01*
X43336818Y-102227306D01*
X43292382Y-102322600D01*
X43246209Y-102375039D01*
X43179016Y-102394191D01*
X43112135Y-102373975D01*
X43067618Y-102322600D01*
X43052326Y-102289807D01*
X43023181Y-102227305D01*
X42894667Y-102043767D01*
X42736233Y-101885333D01*
X42736229Y-101885330D01*
X42736228Y-101885329D01*
X42552700Y-101756821D01*
X42552696Y-101756819D01*
X42552694Y-101756818D01*
X42349630Y-101662128D01*
X42349627Y-101662127D01*
X42349625Y-101662126D01*
X42133208Y-101604137D01*
X42133200Y-101604136D01*
X41910002Y-101584609D01*
X41909998Y-101584609D01*
X41686799Y-101604136D01*
X41686791Y-101604137D01*
X41470374Y-101662126D01*
X41470370Y-101662128D01*
X41469358Y-101662600D01*
X41267306Y-101756818D01*
X41267304Y-101756819D01*
X41083764Y-101885334D01*
X40925334Y-102043764D01*
X40796819Y-102227304D01*
X40796818Y-102227306D01*
X40752382Y-102322600D01*
X40706209Y-102375039D01*
X40639016Y-102394191D01*
X40572135Y-102373975D01*
X40527618Y-102322600D01*
X40512326Y-102289807D01*
X40483181Y-102227305D01*
X40354667Y-102043767D01*
X40196233Y-101885333D01*
X40196229Y-101885330D01*
X40196228Y-101885329D01*
X40012700Y-101756821D01*
X40012696Y-101756819D01*
X40012694Y-101756818D01*
X39809630Y-101662128D01*
X39809627Y-101662127D01*
X39809625Y-101662126D01*
X39593208Y-101604137D01*
X39593200Y-101604136D01*
X39370002Y-101584609D01*
X39369998Y-101584609D01*
X39146799Y-101604136D01*
X39146791Y-101604137D01*
X38930374Y-101662126D01*
X38930370Y-101662128D01*
X38929358Y-101662600D01*
X38727306Y-101756818D01*
X38727304Y-101756819D01*
X38543764Y-101885334D01*
X38385334Y-102043764D01*
X38256819Y-102227304D01*
X38256818Y-102227306D01*
X38212382Y-102322600D01*
X38166209Y-102375039D01*
X38099016Y-102394191D01*
X38032135Y-102373975D01*
X37987618Y-102322600D01*
X37972326Y-102289807D01*
X37943181Y-102227305D01*
X37814667Y-102043767D01*
X37656233Y-101885333D01*
X37656229Y-101885330D01*
X37656228Y-101885329D01*
X37472700Y-101756821D01*
X37472696Y-101756819D01*
X37472694Y-101756818D01*
X37269630Y-101662128D01*
X37269627Y-101662127D01*
X37269625Y-101662126D01*
X37053208Y-101604137D01*
X37053200Y-101604136D01*
X36830002Y-101584609D01*
X36829998Y-101584609D01*
X36606799Y-101604136D01*
X36606791Y-101604137D01*
X36390374Y-101662126D01*
X36390370Y-101662128D01*
X36389358Y-101662600D01*
X36187306Y-101756818D01*
X36187304Y-101756819D01*
X36003764Y-101885334D01*
X35845334Y-102043764D01*
X35716819Y-102227304D01*
X35716818Y-102227306D01*
X35622129Y-102430368D01*
X35622126Y-102430374D01*
X35564137Y-102646791D01*
X35564136Y-102646799D01*
X35544609Y-102869998D01*
X35544609Y-102870001D01*
X35564136Y-103093200D01*
X35564137Y-103093208D01*
X35622126Y-103309625D01*
X35622127Y-103309627D01*
X35622128Y-103309630D01*
X35686735Y-103448181D01*
X35716819Y-103512696D01*
X35716821Y-103512700D01*
X35845329Y-103696228D01*
X35845334Y-103696234D01*
X36003765Y-103854665D01*
X36003771Y-103854670D01*
X36089110Y-103914425D01*
X36132735Y-103969002D01*
X36139929Y-104038500D01*
X36108406Y-104100855D01*
X36048176Y-104136269D01*
X36017987Y-104140000D01*
X33779000Y-104140000D01*
X33711961Y-104120315D01*
X33666206Y-104067511D01*
X33655000Y-104016000D01*
X33655000Y-95885000D01*
X36264149Y-95885000D01*
X36283677Y-96232740D01*
X36283679Y-96232752D01*
X36342018Y-96576113D01*
X36342020Y-96576122D01*
X36438437Y-96910792D01*
X36438439Y-96910798D01*
X36526705Y-97123890D01*
X36571724Y-97232576D01*
X36740203Y-97537416D01*
X36740206Y-97537421D01*
X36941745Y-97821462D01*
X36941751Y-97821470D01*
X37173830Y-98081166D01*
X37173833Y-98081169D01*
X37433529Y-98313248D01*
X37433532Y-98313250D01*
X37433534Y-98313252D01*
X37463383Y-98334431D01*
X37717578Y-98514793D01*
X37717583Y-98514796D01*
X37717586Y-98514797D01*
X37717588Y-98514799D01*
X37995580Y-98668440D01*
X38022424Y-98683276D01*
X38022428Y-98683278D01*
X38077514Y-98706095D01*
X38080699Y-98707481D01*
X38080965Y-98707584D01*
X38080968Y-98707586D01*
X38082196Y-98708064D01*
X38084544Y-98709007D01*
X38344202Y-98816561D01*
X38402890Y-98833468D01*
X38407723Y-98835103D01*
X38407747Y-98835030D01*
X38411106Y-98836121D01*
X38411112Y-98836122D01*
X38411121Y-98836126D01*
X38421153Y-98838762D01*
X38423723Y-98839470D01*
X38678883Y-98912981D01*
X38743105Y-98923892D01*
X38753545Y-98926147D01*
X38753778Y-98926195D01*
X38770898Y-98928656D01*
X38774009Y-98929143D01*
X39022255Y-98971322D01*
X39091375Y-98975203D01*
X39102066Y-98976271D01*
X39103397Y-98976462D01*
X39104461Y-98976615D01*
X39127374Y-98977269D01*
X39130592Y-98977406D01*
X39370000Y-98990851D01*
X39443285Y-98986735D01*
X39453725Y-98986592D01*
X39458609Y-98986732D01*
X39485724Y-98984402D01*
X39489166Y-98984158D01*
X39717745Y-98971322D01*
X39794211Y-98958329D01*
X39804336Y-98957037D01*
X39811603Y-98956413D01*
X39841483Y-98950358D01*
X39845182Y-98949669D01*
X40061117Y-98912981D01*
X40139695Y-98890342D01*
X40149386Y-98887969D01*
X40158839Y-98886054D01*
X40190208Y-98875861D01*
X40194096Y-98874670D01*
X40395798Y-98816561D01*
X40475310Y-98783625D01*
X40484401Y-98780272D01*
X40495791Y-98776572D01*
X40527518Y-98762082D01*
X40531434Y-98760378D01*
X40687490Y-98695737D01*
X40717569Y-98683279D01*
X40717570Y-98683277D01*
X40717578Y-98683275D01*
X40796688Y-98639552D01*
X40805096Y-98635317D01*
X40818068Y-98629393D01*
X40849042Y-98610714D01*
X40852971Y-98608445D01*
X41022412Y-98514799D01*
X41099697Y-98459962D01*
X41107360Y-98454942D01*
X41121466Y-98446437D01*
X41150761Y-98423847D01*
X41154614Y-98420996D01*
X41306466Y-98313252D01*
X41380453Y-98247132D01*
X41387279Y-98241463D01*
X41402031Y-98230089D01*
X41428811Y-98204062D01*
X41432575Y-98200553D01*
X41566168Y-98081168D01*
X41635246Y-98003870D01*
X41641276Y-97997580D01*
X41656106Y-97983169D01*
X41679856Y-97954123D01*
X41683279Y-97950120D01*
X41798252Y-97821466D01*
X41823416Y-97786000D01*
X93309000Y-97786000D01*
X93309000Y-98008844D01*
X93315401Y-98068372D01*
X93315403Y-98068379D01*
X93365645Y-98203086D01*
X93365649Y-98203093D01*
X93451809Y-98318187D01*
X93451812Y-98318190D01*
X93566906Y-98404350D01*
X93566913Y-98404354D01*
X93701620Y-98454596D01*
X93701627Y-98454598D01*
X93761155Y-98460999D01*
X93761172Y-98461000D01*
X93984000Y-98461000D01*
X93984000Y-97786000D01*
X93309000Y-97786000D01*
X41823416Y-97786000D01*
X41860927Y-97733133D01*
X41865996Y-97726484D01*
X41880378Y-97708896D01*
X41900512Y-97677565D01*
X41903655Y-97672913D01*
X41999799Y-97537412D01*
X42000579Y-97536000D01*
X93979102Y-97536000D01*
X93998505Y-97633545D01*
X94053760Y-97716240D01*
X94136455Y-97771495D01*
X94209376Y-97786000D01*
X94258624Y-97786000D01*
X94484000Y-97786000D01*
X94484000Y-98461000D01*
X94706828Y-98461000D01*
X94706844Y-98460999D01*
X94766372Y-98454598D01*
X94766379Y-98454596D01*
X94901086Y-98404354D01*
X94901093Y-98404350D01*
X95016187Y-98318190D01*
X95016190Y-98318187D01*
X95102350Y-98203093D01*
X95102354Y-98203086D01*
X95152596Y-98068379D01*
X95152598Y-98068372D01*
X95158999Y-98008844D01*
X95159000Y-98008827D01*
X95159000Y-97786000D01*
X94484000Y-97786000D01*
X94258624Y-97786000D01*
X94331545Y-97771495D01*
X94414240Y-97716240D01*
X94469495Y-97633545D01*
X94488898Y-97536000D01*
X94469495Y-97438455D01*
X94414240Y-97355760D01*
X94331545Y-97300505D01*
X94258624Y-97286000D01*
X94209376Y-97286000D01*
X94136455Y-97300505D01*
X94053760Y-97355760D01*
X93998505Y-97438455D01*
X93979102Y-97536000D01*
X42000579Y-97536000D01*
X42054417Y-97438587D01*
X42058615Y-97431552D01*
X42071923Y-97410846D01*
X42088162Y-97377816D01*
X42090841Y-97372683D01*
X42138749Y-97286000D01*
X93309000Y-97286000D01*
X93984000Y-97286000D01*
X93984000Y-96611000D01*
X94484000Y-96611000D01*
X94484000Y-97286000D01*
X95159000Y-97286000D01*
X95159000Y-97063172D01*
X95158999Y-97063155D01*
X95152598Y-97003627D01*
X95152596Y-97003620D01*
X95102354Y-96868913D01*
X95102350Y-96868906D01*
X95016190Y-96753812D01*
X95016187Y-96753809D01*
X94901093Y-96667649D01*
X94901086Y-96667645D01*
X94766379Y-96617403D01*
X94766372Y-96617401D01*
X94706844Y-96611000D01*
X94484000Y-96611000D01*
X93984000Y-96611000D01*
X93761155Y-96611000D01*
X93701627Y-96617401D01*
X93701620Y-96617403D01*
X93566913Y-96667645D01*
X93566906Y-96667649D01*
X93451812Y-96753809D01*
X93451809Y-96753812D01*
X93365649Y-96868906D01*
X93365645Y-96868913D01*
X93315403Y-97003620D01*
X93315401Y-97003627D01*
X93309000Y-97063155D01*
X93309000Y-97286000D01*
X42138749Y-97286000D01*
X42168275Y-97232578D01*
X42213318Y-97123833D01*
X42216571Y-97116644D01*
X42228244Y-97092904D01*
X42240348Y-97058978D01*
X42242554Y-97053252D01*
X42301561Y-96910798D01*
X42335481Y-96793057D01*
X42337823Y-96785785D01*
X42347304Y-96759215D01*
X42355256Y-96725015D01*
X42356863Y-96718839D01*
X42397981Y-96576117D01*
X42419332Y-96450451D01*
X42420792Y-96443190D01*
X42427550Y-96414130D01*
X42431428Y-96380330D01*
X42432359Y-96373778D01*
X42456322Y-96232745D01*
X42463751Y-96100450D01*
X42464363Y-96093295D01*
X42467936Y-96062151D01*
X42467937Y-96062146D01*
X42468593Y-96016145D01*
X42468772Y-96011047D01*
X42475851Y-95885000D01*
X42468772Y-95758957D01*
X42468593Y-95753852D01*
X42467937Y-95707854D01*
X42464360Y-95676682D01*
X42463751Y-95669543D01*
X42456322Y-95537255D01*
X42432366Y-95396262D01*
X42431424Y-95389636D01*
X42427550Y-95355870D01*
X42420792Y-95326809D01*
X42419327Y-95319519D01*
X42397981Y-95193883D01*
X42356868Y-95051178D01*
X42355256Y-95044982D01*
X42347304Y-95010785D01*
X42337829Y-94984232D01*
X42335472Y-94976910D01*
X42301562Y-94859207D01*
X42301561Y-94859202D01*
X42242566Y-94716776D01*
X42240341Y-94711000D01*
X42228246Y-94677102D01*
X42228244Y-94677096D01*
X42216578Y-94653370D01*
X42213302Y-94646126D01*
X42168280Y-94537433D01*
X42168278Y-94537429D01*
X42168275Y-94537422D01*
X42090861Y-94397352D01*
X42088124Y-94392106D01*
X42071922Y-94359152D01*
X42058625Y-94338462D01*
X42054412Y-94331403D01*
X41999796Y-94232583D01*
X41999793Y-94232578D01*
X41903678Y-94097117D01*
X41900504Y-94092422D01*
X41880378Y-94061104D01*
X41880372Y-94061097D01*
X41880372Y-94061096D01*
X41866028Y-94043555D01*
X41860891Y-94036816D01*
X41798247Y-93948527D01*
X41683326Y-93819932D01*
X41679824Y-93815837D01*
X41656106Y-93786831D01*
X41656105Y-93786830D01*
X41641276Y-93772418D01*
X41635240Y-93766123D01*
X41566169Y-93688833D01*
X41566166Y-93688830D01*
X41432604Y-93569471D01*
X41428811Y-93565937D01*
X41402031Y-93539911D01*
X41387315Y-93528563D01*
X41380409Y-93522827D01*
X41306476Y-93456756D01*
X41306469Y-93456751D01*
X41306466Y-93456748D01*
X41154626Y-93349011D01*
X41150726Y-93346126D01*
X41136520Y-93335171D01*
X41121469Y-93323564D01*
X41121458Y-93323557D01*
X41107376Y-93315065D01*
X41099664Y-93310014D01*
X41058585Y-93280867D01*
X41022414Y-93255202D01*
X40853035Y-93161589D01*
X40848985Y-93159250D01*
X40829626Y-93147577D01*
X40818068Y-93140607D01*
X40818062Y-93140604D01*
X40818058Y-93140602D01*
X40805127Y-93134697D01*
X40796656Y-93130430D01*
X40717576Y-93086724D01*
X40531481Y-93009641D01*
X40527421Y-93007873D01*
X40495797Y-92993430D01*
X40484413Y-92989731D01*
X40475282Y-92986362D01*
X40395809Y-92953443D01*
X40395803Y-92953441D01*
X40395798Y-92953439D01*
X40351903Y-92940793D01*
X40194132Y-92895338D01*
X40190146Y-92894117D01*
X40158839Y-92883945D01*
X40149387Y-92882030D01*
X40139692Y-92879655D01*
X40061127Y-92857021D01*
X40061113Y-92857018D01*
X39845245Y-92820340D01*
X39841391Y-92819622D01*
X39811612Y-92813588D01*
X39811604Y-92813587D01*
X39811603Y-92813587D01*
X39809746Y-92813427D01*
X39804334Y-92812962D01*
X39794193Y-92811666D01*
X39717746Y-92798678D01*
X39489258Y-92785846D01*
X39485602Y-92785586D01*
X39458608Y-92783267D01*
X39453740Y-92783407D01*
X39443250Y-92783262D01*
X39370000Y-92779149D01*
X39130664Y-92792589D01*
X39127257Y-92792733D01*
X39104469Y-92793384D01*
X39104447Y-92793386D01*
X39102056Y-92793730D01*
X39091381Y-92794795D01*
X39022252Y-92798678D01*
X38774023Y-92840853D01*
X38770904Y-92841342D01*
X38753789Y-92843803D01*
X38753541Y-92843853D01*
X38743102Y-92846107D01*
X38678883Y-92857019D01*
X38678876Y-92857020D01*
X38423831Y-92930497D01*
X38421039Y-92931266D01*
X38411128Y-92933872D01*
X38411125Y-92933872D01*
X38411121Y-92933874D01*
X38411116Y-92933875D01*
X38407757Y-92934967D01*
X38407733Y-92934896D01*
X38402901Y-92936527D01*
X38344202Y-92953438D01*
X38344197Y-92953440D01*
X38084625Y-93060958D01*
X38082202Y-93061932D01*
X38080740Y-93062501D01*
X38077551Y-93063888D01*
X38022433Y-93086719D01*
X38022421Y-93086725D01*
X37717583Y-93255203D01*
X37717578Y-93255206D01*
X37433537Y-93456745D01*
X37433529Y-93456751D01*
X37173833Y-93688830D01*
X37173830Y-93688833D01*
X36941751Y-93948529D01*
X36941745Y-93948537D01*
X36740206Y-94232578D01*
X36740203Y-94232583D01*
X36571724Y-94537423D01*
X36438437Y-94859207D01*
X36342020Y-95193877D01*
X36342018Y-95193886D01*
X36283679Y-95537247D01*
X36283677Y-95537259D01*
X36264149Y-95885000D01*
X33655000Y-95885000D01*
X33655000Y-67564001D01*
X35524532Y-67564001D01*
X35544364Y-67790686D01*
X35544366Y-67790697D01*
X35603258Y-68010488D01*
X35603261Y-68010497D01*
X35686449Y-68188893D01*
X35699432Y-68216734D01*
X35780034Y-68331847D01*
X35807075Y-68370465D01*
X35829402Y-68436671D01*
X35829500Y-68441588D01*
X35829500Y-76627281D01*
X35809815Y-76694320D01*
X35807089Y-76698384D01*
X35716819Y-76827305D01*
X35716819Y-76827306D01*
X35716817Y-76827309D01*
X35622129Y-77030368D01*
X35622126Y-77030374D01*
X35564137Y-77246791D01*
X35564136Y-77246799D01*
X35544609Y-77469998D01*
X35544609Y-77470001D01*
X35564136Y-77693200D01*
X35564137Y-77693208D01*
X35622126Y-77909625D01*
X35622127Y-77909627D01*
X35622128Y-77909630D01*
X35716819Y-78112696D01*
X35807075Y-78241595D01*
X35829402Y-78307800D01*
X35829500Y-78312718D01*
X35829500Y-82281721D01*
X35829460Y-82284861D01*
X35827243Y-82372362D01*
X35827243Y-82372371D01*
X35837648Y-82430420D01*
X35838956Y-82439748D01*
X35844925Y-82498430D01*
X35844927Y-82498444D01*
X35854033Y-82527468D01*
X35857772Y-82542701D01*
X35863142Y-82572653D01*
X35863142Y-82572655D01*
X35885020Y-82627424D01*
X35888177Y-82636292D01*
X35905841Y-82692588D01*
X35905842Y-82692589D01*
X35905844Y-82692595D01*
X35920603Y-82719185D01*
X35927336Y-82733361D01*
X35938622Y-82761614D01*
X35938627Y-82761624D01*
X35971080Y-82810866D01*
X35975962Y-82818923D01*
X36004588Y-82870498D01*
X36004589Y-82870500D01*
X36004591Y-82870502D01*
X36024410Y-82893588D01*
X36033855Y-82906115D01*
X36050599Y-82931521D01*
X36092299Y-82973220D01*
X36098704Y-82980131D01*
X36135398Y-83022873D01*
X36137134Y-83024895D01*
X36161187Y-83043513D01*
X36172968Y-83053889D01*
X45764450Y-92645371D01*
X45766643Y-92647620D01*
X45826940Y-92711052D01*
X45826947Y-92711058D01*
X45875352Y-92744748D01*
X45882869Y-92750415D01*
X45928593Y-92787698D01*
X45955565Y-92801786D01*
X45968980Y-92809915D01*
X45993951Y-92827295D01*
X46037788Y-92846107D01*
X46048163Y-92850559D01*
X46056652Y-92854590D01*
X46108951Y-92881909D01*
X46130998Y-92888216D01*
X46138184Y-92890273D01*
X46152976Y-92895539D01*
X46180939Y-92907539D01*
X46180942Y-92907540D01*
X46238727Y-92919414D01*
X46247869Y-92921657D01*
X46304582Y-92937886D01*
X46334918Y-92940196D01*
X46350457Y-92942376D01*
X46380255Y-92948500D01*
X46380259Y-92948500D01*
X46439244Y-92948500D01*
X46448659Y-92948857D01*
X46507476Y-92953337D01*
X46537651Y-92949493D01*
X46553318Y-92948500D01*
X94284743Y-92948500D01*
X94366412Y-92940195D01*
X94436438Y-92933074D01*
X94608191Y-92879185D01*
X94645311Y-92873499D01*
X94706871Y-92873499D01*
X94706872Y-92873499D01*
X94766483Y-92867091D01*
X94901331Y-92816796D01*
X95016546Y-92730546D01*
X95102796Y-92615331D01*
X95153091Y-92480483D01*
X95159500Y-92420873D01*
X95159499Y-92361844D01*
X95172173Y-92307232D01*
X95177060Y-92297271D01*
X95228063Y-92100285D01*
X95238369Y-91897064D01*
X95207556Y-91695929D01*
X95167218Y-91587012D01*
X95159499Y-91543947D01*
X95159499Y-91475129D01*
X95159498Y-91475123D01*
X95153091Y-91415516D01*
X95102797Y-91280671D01*
X95102793Y-91280664D01*
X95016547Y-91165455D01*
X95016544Y-91165452D01*
X94901335Y-91079206D01*
X94901328Y-91079202D01*
X94766482Y-91028908D01*
X94766483Y-91028908D01*
X94706883Y-91022501D01*
X94706881Y-91022500D01*
X94706873Y-91022500D01*
X94706865Y-91022500D01*
X94639862Y-91022500D01*
X94590960Y-91012450D01*
X94535060Y-90988460D01*
X94335741Y-90947500D01*
X46947783Y-90947500D01*
X46880744Y-90927815D01*
X46860102Y-90911181D01*
X37866819Y-81917898D01*
X37833334Y-81856575D01*
X37830500Y-81830217D01*
X37830500Y-78312718D01*
X37850185Y-78245679D01*
X37852912Y-78241613D01*
X37943181Y-78112696D01*
X37987618Y-78017399D01*
X38033790Y-77964960D01*
X38100983Y-77945808D01*
X38167865Y-77966023D01*
X38212382Y-78017400D01*
X38256817Y-78112692D01*
X38256821Y-78112700D01*
X38385329Y-78296228D01*
X38385334Y-78296234D01*
X38543765Y-78454665D01*
X38543771Y-78454670D01*
X38727299Y-78583178D01*
X38727301Y-78583179D01*
X38727304Y-78583181D01*
X38930370Y-78677872D01*
X39146794Y-78735863D01*
X39306226Y-78749811D01*
X39369998Y-78755391D01*
X39370000Y-78755391D01*
X39370002Y-78755391D01*
X39425927Y-78750498D01*
X39593206Y-78735863D01*
X39809630Y-78677872D01*
X40012696Y-78583181D01*
X40196233Y-78454667D01*
X40354667Y-78296233D01*
X40483181Y-78112696D01*
X40527618Y-78017399D01*
X40573790Y-77964960D01*
X40640983Y-77945808D01*
X40707865Y-77966023D01*
X40752382Y-78017400D01*
X40796817Y-78112692D01*
X40796821Y-78112700D01*
X40925329Y-78296228D01*
X40925334Y-78296234D01*
X41083765Y-78454665D01*
X41083771Y-78454670D01*
X41267299Y-78583178D01*
X41267301Y-78583179D01*
X41267304Y-78583181D01*
X41470370Y-78677872D01*
X41686794Y-78735863D01*
X41846226Y-78749811D01*
X41909998Y-78755391D01*
X41910000Y-78755391D01*
X41910002Y-78755391D01*
X41965927Y-78750498D01*
X42133206Y-78735863D01*
X42349630Y-78677872D01*
X42552696Y-78583181D01*
X42736233Y-78454667D01*
X42894667Y-78296233D01*
X43023181Y-78112696D01*
X43067618Y-78017399D01*
X43113790Y-77964960D01*
X43180983Y-77945808D01*
X43247865Y-77966023D01*
X43292382Y-78017400D01*
X43336817Y-78112692D01*
X43336821Y-78112700D01*
X43465329Y-78296228D01*
X43465334Y-78296234D01*
X43623765Y-78454665D01*
X43623771Y-78454670D01*
X43807299Y-78583178D01*
X43807301Y-78583179D01*
X43807304Y-78583181D01*
X44010370Y-78677872D01*
X44226794Y-78735863D01*
X44386226Y-78749811D01*
X44449998Y-78755391D01*
X44450000Y-78755391D01*
X44450002Y-78755391D01*
X44505927Y-78750498D01*
X44673206Y-78735863D01*
X44889630Y-78677872D01*
X45092696Y-78583181D01*
X45276233Y-78454667D01*
X45434667Y-78296233D01*
X45563181Y-78112696D01*
X45607618Y-78017399D01*
X45653790Y-77964960D01*
X45720983Y-77945808D01*
X45787865Y-77966023D01*
X45832382Y-78017400D01*
X45876817Y-78112692D01*
X45876821Y-78112700D01*
X46005329Y-78296228D01*
X46005334Y-78296234D01*
X46163765Y-78454665D01*
X46163771Y-78454670D01*
X46347299Y-78583178D01*
X46347301Y-78583179D01*
X46347304Y-78583181D01*
X46550370Y-78677872D01*
X46766794Y-78735863D01*
X46926226Y-78749811D01*
X46989998Y-78755391D01*
X46990000Y-78755391D01*
X46990002Y-78755391D01*
X47045927Y-78750498D01*
X47213206Y-78735863D01*
X47429630Y-78677872D01*
X47632696Y-78583181D01*
X47816233Y-78454667D01*
X47974667Y-78296233D01*
X48103181Y-78112696D01*
X48147895Y-78016804D01*
X48194064Y-77964370D01*
X48261258Y-77945217D01*
X48328139Y-77965432D01*
X48372657Y-78016808D01*
X48417252Y-78112443D01*
X48417253Y-78112445D01*
X48465334Y-78181112D01*
X49029439Y-77617006D01*
X49035418Y-77645775D01*
X49101181Y-77772693D01*
X49198749Y-77877162D01*
X49320884Y-77951434D01*
X49384339Y-77969213D01*
X48818886Y-78534664D01*
X48887555Y-78582746D01*
X49090540Y-78677399D01*
X49090549Y-78677403D01*
X49306875Y-78735367D01*
X49306886Y-78735369D01*
X49529998Y-78754889D01*
X49530002Y-78754889D01*
X49753113Y-78735369D01*
X49753124Y-78735367D01*
X49969450Y-78677403D01*
X49969459Y-78677399D01*
X50172445Y-78582746D01*
X50172451Y-78582742D01*
X50241112Y-78534665D01*
X49678765Y-77972318D01*
X49802724Y-77918475D01*
X49913608Y-77828265D01*
X49996041Y-77711483D01*
X50029864Y-77616311D01*
X50594665Y-78181112D01*
X50642742Y-78112451D01*
X50642743Y-78112450D01*
X50687341Y-78016809D01*
X50733513Y-77964370D01*
X50800707Y-77945217D01*
X50867588Y-77965432D01*
X50912106Y-78016808D01*
X50956819Y-78112696D01*
X50956821Y-78112700D01*
X51085329Y-78296228D01*
X51085334Y-78296234D01*
X51243765Y-78454665D01*
X51243771Y-78454670D01*
X51427299Y-78583178D01*
X51427301Y-78583179D01*
X51427304Y-78583181D01*
X51630370Y-78677872D01*
X51846794Y-78735863D01*
X52006226Y-78749811D01*
X52069998Y-78755391D01*
X52070000Y-78755391D01*
X52070002Y-78755391D01*
X52125927Y-78750498D01*
X52293206Y-78735863D01*
X52509630Y-78677872D01*
X52712696Y-78583181D01*
X52896233Y-78454667D01*
X53054667Y-78296233D01*
X53183181Y-78112696D01*
X53227618Y-78017399D01*
X53273790Y-77964960D01*
X53340983Y-77945808D01*
X53407865Y-77966023D01*
X53452382Y-78017400D01*
X53496817Y-78112692D01*
X53496821Y-78112700D01*
X53625329Y-78296228D01*
X53625334Y-78296234D01*
X53783765Y-78454665D01*
X53783771Y-78454670D01*
X53967299Y-78583178D01*
X53967301Y-78583179D01*
X53967304Y-78583181D01*
X54170370Y-78677872D01*
X54386794Y-78735863D01*
X54546226Y-78749811D01*
X54609998Y-78755391D01*
X54610000Y-78755391D01*
X54610002Y-78755391D01*
X54665927Y-78750498D01*
X54833206Y-78735863D01*
X55049630Y-78677872D01*
X55252696Y-78583181D01*
X55436233Y-78454667D01*
X55594667Y-78296233D01*
X55723181Y-78112696D01*
X55767618Y-78017399D01*
X55813790Y-77964960D01*
X55880983Y-77945808D01*
X55947865Y-77966023D01*
X55992382Y-78017400D01*
X56036817Y-78112692D01*
X56036821Y-78112700D01*
X56165329Y-78296228D01*
X56165334Y-78296234D01*
X56323765Y-78454665D01*
X56323771Y-78454670D01*
X56507299Y-78583178D01*
X56507301Y-78583179D01*
X56507304Y-78583181D01*
X56710370Y-78677872D01*
X56926794Y-78735863D01*
X57086226Y-78749811D01*
X57149998Y-78755391D01*
X57150000Y-78755391D01*
X57150002Y-78755391D01*
X57205927Y-78750498D01*
X57373206Y-78735863D01*
X57589630Y-78677872D01*
X57792696Y-78583181D01*
X57976233Y-78454667D01*
X58134667Y-78296233D01*
X58263181Y-78112696D01*
X58307618Y-78017399D01*
X58353790Y-77964960D01*
X58420983Y-77945808D01*
X58487865Y-77966023D01*
X58532382Y-78017400D01*
X58576817Y-78112692D01*
X58576821Y-78112700D01*
X58705329Y-78296228D01*
X58705334Y-78296234D01*
X58863765Y-78454665D01*
X58863771Y-78454670D01*
X59047299Y-78583178D01*
X59047301Y-78583179D01*
X59047304Y-78583181D01*
X59250370Y-78677872D01*
X59466794Y-78735863D01*
X59626226Y-78749811D01*
X59689998Y-78755391D01*
X59690000Y-78755391D01*
X59690002Y-78755391D01*
X59745927Y-78750498D01*
X59913206Y-78735863D01*
X60129630Y-78677872D01*
X60332696Y-78583181D01*
X60516233Y-78454667D01*
X60674667Y-78296233D01*
X60803181Y-78112696D01*
X60847618Y-78017399D01*
X60893790Y-77964960D01*
X60960983Y-77945808D01*
X61027865Y-77966023D01*
X61072382Y-78017400D01*
X61116817Y-78112692D01*
X61116821Y-78112700D01*
X61245329Y-78296228D01*
X61245334Y-78296234D01*
X61403765Y-78454665D01*
X61403771Y-78454670D01*
X61587299Y-78583178D01*
X61587301Y-78583179D01*
X61587304Y-78583181D01*
X61790370Y-78677872D01*
X62006794Y-78735863D01*
X62166226Y-78749811D01*
X62229998Y-78755391D01*
X62230000Y-78755391D01*
X62230002Y-78755391D01*
X62285927Y-78750498D01*
X62453206Y-78735863D01*
X62669630Y-78677872D01*
X62872696Y-78583181D01*
X63056233Y-78454667D01*
X63214667Y-78296233D01*
X63343181Y-78112696D01*
X63387618Y-78017399D01*
X63433790Y-77964960D01*
X63500983Y-77945808D01*
X63567865Y-77966023D01*
X63612382Y-78017400D01*
X63656817Y-78112692D01*
X63656821Y-78112700D01*
X63785329Y-78296228D01*
X63785334Y-78296234D01*
X63943765Y-78454665D01*
X63943771Y-78454670D01*
X64127299Y-78583178D01*
X64127301Y-78583179D01*
X64127304Y-78583181D01*
X64330370Y-78677872D01*
X64546794Y-78735863D01*
X64706226Y-78749811D01*
X64769998Y-78755391D01*
X64770000Y-78755391D01*
X64770002Y-78755391D01*
X64825927Y-78750498D01*
X64993206Y-78735863D01*
X65209630Y-78677872D01*
X65412696Y-78583181D01*
X65596233Y-78454667D01*
X65754667Y-78296233D01*
X65883181Y-78112696D01*
X65927618Y-78017399D01*
X65973790Y-77964960D01*
X66040983Y-77945808D01*
X66107865Y-77966023D01*
X66152382Y-78017400D01*
X66196817Y-78112692D01*
X66196821Y-78112700D01*
X66325329Y-78296228D01*
X66325334Y-78296234D01*
X66483765Y-78454665D01*
X66483771Y-78454670D01*
X66667299Y-78583178D01*
X66667301Y-78583179D01*
X66667304Y-78583181D01*
X66870370Y-78677872D01*
X67086794Y-78735863D01*
X67246226Y-78749811D01*
X67309998Y-78755391D01*
X67310000Y-78755391D01*
X67310002Y-78755391D01*
X67365927Y-78750498D01*
X67533206Y-78735863D01*
X67749630Y-78677872D01*
X67952696Y-78583181D01*
X68136233Y-78454667D01*
X68294667Y-78296233D01*
X68423181Y-78112696D01*
X68467618Y-78017399D01*
X68513790Y-77964960D01*
X68580983Y-77945808D01*
X68647865Y-77966023D01*
X68692381Y-78017399D01*
X68736819Y-78112696D01*
X68827075Y-78241595D01*
X68849402Y-78307800D01*
X68849500Y-78312718D01*
X68849500Y-79741721D01*
X68849460Y-79744861D01*
X68847243Y-79832362D01*
X68847243Y-79832371D01*
X68857648Y-79890420D01*
X68858956Y-79899748D01*
X68864925Y-79958430D01*
X68864927Y-79958444D01*
X68874033Y-79987468D01*
X68877772Y-80002701D01*
X68883142Y-80032653D01*
X68883142Y-80032655D01*
X68905020Y-80087424D01*
X68908177Y-80096292D01*
X68925841Y-80152588D01*
X68925842Y-80152589D01*
X68925844Y-80152595D01*
X68940603Y-80179185D01*
X68947336Y-80193361D01*
X68957010Y-80217580D01*
X68958622Y-80221614D01*
X68958627Y-80221624D01*
X68991080Y-80270866D01*
X68995962Y-80278923D01*
X69024588Y-80330498D01*
X69024589Y-80330500D01*
X69024591Y-80330502D01*
X69044410Y-80353588D01*
X69053855Y-80366115D01*
X69070599Y-80391521D01*
X69112299Y-80433220D01*
X69118704Y-80440131D01*
X69157131Y-80484892D01*
X69157134Y-80484895D01*
X69181187Y-80503513D01*
X69192968Y-80513889D01*
X71926449Y-83247370D01*
X71928642Y-83249619D01*
X71988938Y-83313050D01*
X71988941Y-83313053D01*
X72037348Y-83346746D01*
X72044869Y-83352417D01*
X72090587Y-83389694D01*
X72090590Y-83389695D01*
X72090593Y-83389698D01*
X72117565Y-83403786D01*
X72130982Y-83411916D01*
X72155951Y-83429295D01*
X72210163Y-83452559D01*
X72218663Y-83456595D01*
X72270951Y-83483909D01*
X72300199Y-83492277D01*
X72314975Y-83497538D01*
X72342942Y-83509540D01*
X72342945Y-83509540D01*
X72342946Y-83509541D01*
X72400713Y-83521412D01*
X72409866Y-83523658D01*
X72466582Y-83539887D01*
X72496914Y-83542196D01*
X72512463Y-83544377D01*
X72542255Y-83550500D01*
X72542259Y-83550500D01*
X72601242Y-83550500D01*
X72610656Y-83550857D01*
X72619010Y-83551494D01*
X72669476Y-83555337D01*
X72669476Y-83555336D01*
X72669477Y-83555337D01*
X72699652Y-83551493D01*
X72715319Y-83550500D01*
X94284743Y-83550500D01*
X94389108Y-83539887D01*
X94436438Y-83535074D01*
X94608191Y-83481185D01*
X94645311Y-83475499D01*
X94706871Y-83475499D01*
X94706872Y-83475499D01*
X94766483Y-83469091D01*
X94901331Y-83418796D01*
X95016546Y-83332546D01*
X95102796Y-83217331D01*
X95153091Y-83082483D01*
X95159500Y-83022873D01*
X95159499Y-82963844D01*
X95172173Y-82909232D01*
X95177060Y-82899271D01*
X95228063Y-82702285D01*
X95238369Y-82499064D01*
X95207556Y-82297929D01*
X95167218Y-82189012D01*
X95159499Y-82145947D01*
X95159499Y-82077129D01*
X95159498Y-82077123D01*
X95153091Y-82017516D01*
X95102797Y-81882671D01*
X95102793Y-81882664D01*
X95016547Y-81767455D01*
X95016544Y-81767452D01*
X94901335Y-81681206D01*
X94901328Y-81681202D01*
X94766482Y-81630908D01*
X94766483Y-81630908D01*
X94706883Y-81624501D01*
X94706881Y-81624500D01*
X94706873Y-81624500D01*
X94706865Y-81624500D01*
X94639862Y-81624500D01*
X94590960Y-81614450D01*
X94535060Y-81590460D01*
X94335741Y-81549500D01*
X73109782Y-81549500D01*
X73042743Y-81529815D01*
X73022101Y-81513181D01*
X70886819Y-79377899D01*
X70853334Y-79316576D01*
X70850500Y-79290218D01*
X70850500Y-78312718D01*
X70870185Y-78245679D01*
X70872912Y-78241613D01*
X70963181Y-78112696D01*
X71007618Y-78017399D01*
X71053790Y-77964960D01*
X71120983Y-77945808D01*
X71187865Y-77966023D01*
X71232382Y-78017400D01*
X71276817Y-78112692D01*
X71276821Y-78112700D01*
X71405329Y-78296228D01*
X71405334Y-78296234D01*
X71563765Y-78454665D01*
X71563771Y-78454670D01*
X71747299Y-78583178D01*
X71747301Y-78583179D01*
X71747304Y-78583181D01*
X71950370Y-78677872D01*
X72166794Y-78735863D01*
X72326226Y-78749811D01*
X72389998Y-78755391D01*
X72390000Y-78755391D01*
X72390002Y-78755391D01*
X72445927Y-78750498D01*
X72613206Y-78735863D01*
X72829630Y-78677872D01*
X73032696Y-78583181D01*
X73216233Y-78454667D01*
X73374667Y-78296233D01*
X73503181Y-78112696D01*
X73547618Y-78017399D01*
X73593790Y-77964960D01*
X73660983Y-77945808D01*
X73727865Y-77966023D01*
X73772382Y-78017400D01*
X73816817Y-78112692D01*
X73816821Y-78112700D01*
X73945329Y-78296228D01*
X73945334Y-78296234D01*
X74103765Y-78454665D01*
X74103771Y-78454670D01*
X74287299Y-78583178D01*
X74287301Y-78583179D01*
X74287304Y-78583181D01*
X74490370Y-78677872D01*
X74706794Y-78735863D01*
X74866226Y-78749811D01*
X74929998Y-78755391D01*
X74930000Y-78755391D01*
X74930002Y-78755391D01*
X74985927Y-78750498D01*
X75153206Y-78735863D01*
X75369630Y-78677872D01*
X75572696Y-78583181D01*
X75756233Y-78454667D01*
X75914667Y-78296233D01*
X76043181Y-78112696D01*
X76087618Y-78017399D01*
X76133790Y-77964960D01*
X76200983Y-77945808D01*
X76267865Y-77966023D01*
X76312382Y-78017400D01*
X76356817Y-78112692D01*
X76356821Y-78112700D01*
X76485329Y-78296228D01*
X76485334Y-78296234D01*
X76643765Y-78454665D01*
X76643771Y-78454670D01*
X76827299Y-78583178D01*
X76827301Y-78583179D01*
X76827304Y-78583181D01*
X77030370Y-78677872D01*
X77246794Y-78735863D01*
X77406226Y-78749811D01*
X77469998Y-78755391D01*
X77470000Y-78755391D01*
X77470002Y-78755391D01*
X77525927Y-78750498D01*
X77693206Y-78735863D01*
X77909630Y-78677872D01*
X78112696Y-78583181D01*
X78296233Y-78454667D01*
X78454667Y-78296233D01*
X78583181Y-78112696D01*
X78627618Y-78017399D01*
X78673790Y-77964960D01*
X78740983Y-77945808D01*
X78807865Y-77966023D01*
X78852382Y-78017400D01*
X78896817Y-78112692D01*
X78896821Y-78112700D01*
X79025329Y-78296228D01*
X79025334Y-78296234D01*
X79183765Y-78454665D01*
X79183771Y-78454670D01*
X79367299Y-78583178D01*
X79367301Y-78583179D01*
X79367304Y-78583181D01*
X79570370Y-78677872D01*
X79786794Y-78735863D01*
X79946226Y-78749811D01*
X80009998Y-78755391D01*
X80010000Y-78755391D01*
X80010002Y-78755391D01*
X80065927Y-78750498D01*
X80233206Y-78735863D01*
X80449630Y-78677872D01*
X80652696Y-78583181D01*
X80836233Y-78454667D01*
X80994667Y-78296233D01*
X81043926Y-78225882D01*
X81098501Y-78182259D01*
X81167999Y-78175065D01*
X81230354Y-78206587D01*
X81265769Y-78266816D01*
X81269202Y-78294570D01*
X81269324Y-78294564D01*
X81269417Y-78296309D01*
X81269500Y-78296977D01*
X81269500Y-78297855D01*
X81269501Y-78297876D01*
X81275908Y-78357483D01*
X81326202Y-78492328D01*
X81326206Y-78492335D01*
X81412452Y-78607544D01*
X81412455Y-78607547D01*
X81527664Y-78693793D01*
X81527671Y-78693797D01*
X81662517Y-78744091D01*
X81662516Y-78744091D01*
X81669444Y-78744835D01*
X81722127Y-78750500D01*
X83377872Y-78750499D01*
X83437483Y-78744091D01*
X83572331Y-78693796D01*
X83687546Y-78607546D01*
X83773796Y-78492331D01*
X83824091Y-78357483D01*
X83830500Y-78297873D01*
X83830499Y-76642128D01*
X83824091Y-76582517D01*
X83812486Y-76551403D01*
X83773797Y-76447671D01*
X83773793Y-76447664D01*
X83687547Y-76332455D01*
X83687544Y-76332452D01*
X83572335Y-76246206D01*
X83572328Y-76246202D01*
X83437482Y-76195908D01*
X83437483Y-76195908D01*
X83377883Y-76189501D01*
X83377881Y-76189500D01*
X83377873Y-76189500D01*
X83377864Y-76189500D01*
X81722129Y-76189500D01*
X81722123Y-76189501D01*
X81662516Y-76195908D01*
X81527671Y-76246202D01*
X81527664Y-76246206D01*
X81412455Y-76332452D01*
X81412452Y-76332455D01*
X81326206Y-76447664D01*
X81326202Y-76447671D01*
X81275908Y-76582517D01*
X81269501Y-76642116D01*
X81269501Y-76642123D01*
X81269500Y-76642135D01*
X81269500Y-76642991D01*
X81269443Y-76643182D01*
X81269322Y-76645452D01*
X81268785Y-76645423D01*
X81249815Y-76710030D01*
X81197011Y-76755785D01*
X81127853Y-76765729D01*
X81064297Y-76736704D01*
X81043925Y-76714115D01*
X80995847Y-76645452D01*
X80994667Y-76643767D01*
X80836233Y-76485333D01*
X80836229Y-76485330D01*
X80836228Y-76485329D01*
X80652700Y-76356821D01*
X80652696Y-76356819D01*
X80600445Y-76332454D01*
X80449630Y-76262128D01*
X80449627Y-76262127D01*
X80449625Y-76262126D01*
X80233208Y-76204137D01*
X80233200Y-76204136D01*
X80010002Y-76184609D01*
X80009998Y-76184609D01*
X79786799Y-76204136D01*
X79786791Y-76204137D01*
X79570374Y-76262126D01*
X79570370Y-76262128D01*
X79569358Y-76262600D01*
X79367306Y-76356818D01*
X79367304Y-76356819D01*
X79183764Y-76485334D01*
X79025334Y-76643764D01*
X78896819Y-76827304D01*
X78896818Y-76827306D01*
X78852382Y-76922600D01*
X78806209Y-76975039D01*
X78739016Y-76994191D01*
X78672135Y-76973975D01*
X78627618Y-76922600D01*
X78615725Y-76897096D01*
X78583181Y-76827305D01*
X78492924Y-76698404D01*
X78454668Y-76643768D01*
X78390052Y-76579152D01*
X78296233Y-76485333D01*
X78296229Y-76485330D01*
X78296228Y-76485329D01*
X78112700Y-76356821D01*
X78112696Y-76356819D01*
X78060445Y-76332454D01*
X77909630Y-76262128D01*
X77909627Y-76262127D01*
X77909625Y-76262126D01*
X77693208Y-76204137D01*
X77693200Y-76204136D01*
X77470002Y-76184609D01*
X77469998Y-76184609D01*
X77246799Y-76204136D01*
X77246791Y-76204137D01*
X77030374Y-76262126D01*
X77030370Y-76262128D01*
X77029358Y-76262600D01*
X76827306Y-76356818D01*
X76827304Y-76356819D01*
X76643764Y-76485334D01*
X76485334Y-76643764D01*
X76356819Y-76827304D01*
X76356818Y-76827306D01*
X76312382Y-76922600D01*
X76266209Y-76975039D01*
X76199016Y-76994191D01*
X76132135Y-76973975D01*
X76087618Y-76922600D01*
X76075725Y-76897096D01*
X76043181Y-76827305D01*
X75952924Y-76698404D01*
X75914668Y-76643768D01*
X75850052Y-76579152D01*
X75756233Y-76485333D01*
X75756229Y-76485330D01*
X75756228Y-76485329D01*
X75572700Y-76356821D01*
X75572696Y-76356819D01*
X75520445Y-76332454D01*
X75369630Y-76262128D01*
X75369627Y-76262127D01*
X75369625Y-76262126D01*
X75153208Y-76204137D01*
X75153200Y-76204136D01*
X74930002Y-76184609D01*
X74929998Y-76184609D01*
X74706799Y-76204136D01*
X74706791Y-76204137D01*
X74490374Y-76262126D01*
X74490370Y-76262128D01*
X74489358Y-76262600D01*
X74287306Y-76356818D01*
X74287304Y-76356819D01*
X74103764Y-76485334D01*
X73945334Y-76643764D01*
X73816819Y-76827304D01*
X73816818Y-76827306D01*
X73772382Y-76922600D01*
X73726209Y-76975039D01*
X73659016Y-76994191D01*
X73592135Y-76973975D01*
X73547618Y-76922600D01*
X73535725Y-76897096D01*
X73503181Y-76827305D01*
X73412923Y-76698402D01*
X73390597Y-76632197D01*
X73390500Y-76627281D01*
X73390500Y-75960237D01*
X73390540Y-75957095D01*
X73392756Y-75869642D01*
X73392755Y-75869641D01*
X73392756Y-75869636D01*
X73382345Y-75811554D01*
X73381042Y-75802260D01*
X73375074Y-75743562D01*
X73373396Y-75738214D01*
X73365967Y-75714536D01*
X73362224Y-75699287D01*
X73356858Y-75669348D01*
X73334976Y-75614567D01*
X73331822Y-75605709D01*
X73314159Y-75549412D01*
X73314158Y-75549411D01*
X73314157Y-75549406D01*
X73299396Y-75522814D01*
X73292659Y-75508629D01*
X73281378Y-75480385D01*
X73281375Y-75480380D01*
X73281246Y-75480185D01*
X73277962Y-75475201D01*
X73248918Y-75431131D01*
X73244036Y-75423074D01*
X73215409Y-75371498D01*
X73195588Y-75348410D01*
X73186144Y-75335885D01*
X73169402Y-75310481D01*
X73127692Y-75268771D01*
X73121300Y-75261875D01*
X73082866Y-75217105D01*
X73058804Y-75198479D01*
X73047026Y-75188105D01*
X68854819Y-70995898D01*
X68821334Y-70934575D01*
X68818500Y-70908217D01*
X68818500Y-66828001D01*
X69182645Y-66828001D01*
X69202039Y-67099160D01*
X69202040Y-67099167D01*
X69253843Y-67337302D01*
X69259825Y-67364801D01*
X69287445Y-67438852D01*
X69354830Y-67619519D01*
X69485109Y-67858107D01*
X69485110Y-67858108D01*
X69485113Y-67858113D01*
X69648029Y-68075742D01*
X69648033Y-68075746D01*
X69648038Y-68075752D01*
X69840247Y-68267961D01*
X69840253Y-68267966D01*
X69840258Y-68267971D01*
X70057887Y-68430887D01*
X70057891Y-68430889D01*
X70057892Y-68430890D01*
X70296481Y-68561169D01*
X70296480Y-68561169D01*
X70296484Y-68561170D01*
X70296487Y-68561172D01*
X70551199Y-68656175D01*
X70816840Y-68713961D01*
X71068605Y-68731967D01*
X71087999Y-68733355D01*
X71088000Y-68733355D01*
X71088001Y-68733355D01*
X71106100Y-68732060D01*
X71359160Y-68713961D01*
X71624801Y-68656175D01*
X71879513Y-68561172D01*
X71879517Y-68561169D01*
X71879519Y-68561169D01*
X71998813Y-68496029D01*
X72118113Y-68430887D01*
X72335742Y-68267971D01*
X72527971Y-68075742D01*
X72690887Y-67858113D01*
X72821172Y-67619513D01*
X72916175Y-67364801D01*
X72973961Y-67099160D01*
X72993355Y-66828000D01*
X72973961Y-66556840D01*
X72916175Y-66291199D01*
X72821172Y-66036487D01*
X72821170Y-66036484D01*
X72821169Y-66036480D01*
X72690890Y-65797892D01*
X72690889Y-65797891D01*
X72690887Y-65797887D01*
X72527971Y-65580258D01*
X72527966Y-65580253D01*
X72527961Y-65580247D01*
X72335752Y-65388038D01*
X72335746Y-65388033D01*
X72335742Y-65388029D01*
X72118113Y-65225113D01*
X72118108Y-65225110D01*
X72118107Y-65225109D01*
X71879518Y-65094830D01*
X71879519Y-65094830D01*
X71829920Y-65076330D01*
X71624801Y-64999825D01*
X71624794Y-64999823D01*
X71624793Y-64999823D01*
X71359167Y-64942040D01*
X71359160Y-64942039D01*
X71088001Y-64922645D01*
X71087999Y-64922645D01*
X70816839Y-64942039D01*
X70816832Y-64942040D01*
X70551206Y-64999823D01*
X70551202Y-64999824D01*
X70551199Y-64999825D01*
X70423843Y-65047326D01*
X70296480Y-65094830D01*
X70057892Y-65225109D01*
X70057891Y-65225110D01*
X69840259Y-65388028D01*
X69840247Y-65388038D01*
X69648038Y-65580247D01*
X69648028Y-65580259D01*
X69485110Y-65797891D01*
X69485109Y-65797892D01*
X69354830Y-66036480D01*
X69307326Y-66163843D01*
X69259825Y-66291199D01*
X69259824Y-66291202D01*
X69259823Y-66291206D01*
X69202040Y-66556832D01*
X69202039Y-66556839D01*
X69182645Y-66827998D01*
X69182645Y-66828001D01*
X68818500Y-66828001D01*
X68818500Y-65063782D01*
X68838185Y-64996743D01*
X68854814Y-64976106D01*
X70604796Y-63226123D01*
X70666117Y-63192640D01*
X70718830Y-63192640D01*
X70816840Y-63213961D01*
X71067110Y-63231860D01*
X71087999Y-63233355D01*
X71088000Y-63233355D01*
X71088001Y-63233355D01*
X71106100Y-63232060D01*
X71359160Y-63213961D01*
X71624801Y-63156175D01*
X71879513Y-63061172D01*
X71879517Y-63061169D01*
X71879519Y-63061169D01*
X71998813Y-62996029D01*
X72118113Y-62930887D01*
X72335742Y-62767971D01*
X72527971Y-62575742D01*
X72690887Y-62358113D01*
X72821172Y-62119513D01*
X72916175Y-61864801D01*
X72973961Y-61599160D01*
X72993355Y-61328000D01*
X72973961Y-61056840D01*
X72916175Y-60791199D01*
X72821172Y-60536487D01*
X72821170Y-60536484D01*
X72821169Y-60536480D01*
X72690890Y-60297892D01*
X72690889Y-60297890D01*
X72690887Y-60297887D01*
X72653231Y-60247585D01*
X72628816Y-60182121D01*
X72628500Y-60173276D01*
X72628500Y-56656277D01*
X72628540Y-56653135D01*
X72630757Y-56565641D01*
X72630756Y-56565640D01*
X72630757Y-56565637D01*
X72620349Y-56507573D01*
X72619041Y-56498242D01*
X72613074Y-56439562D01*
X72603963Y-56410524D01*
X72600226Y-56395301D01*
X72594858Y-56365347D01*
X72572974Y-56310562D01*
X72569822Y-56301709D01*
X72552159Y-56245412D01*
X72552158Y-56245411D01*
X72552157Y-56245406D01*
X72537396Y-56218814D01*
X72530659Y-56204629D01*
X72519378Y-56176385D01*
X72519375Y-56176380D01*
X72486918Y-56127131D01*
X72482036Y-56119074D01*
X72481643Y-56118366D01*
X72453409Y-56067498D01*
X72433588Y-56044410D01*
X72424144Y-56031885D01*
X72407402Y-56006481D01*
X72365692Y-55964771D01*
X72359300Y-55957875D01*
X72320866Y-55913105D01*
X72298297Y-55895635D01*
X72296804Y-55894479D01*
X72285026Y-55884105D01*
X70313566Y-53912646D01*
X70311373Y-53910397D01*
X70251061Y-53846949D01*
X70251060Y-53846948D01*
X70251059Y-53846947D01*
X70202640Y-53813246D01*
X70195120Y-53807575D01*
X70149413Y-53770305D01*
X70149406Y-53770301D01*
X70122441Y-53756216D01*
X70109026Y-53748089D01*
X70084049Y-53730705D01*
X70084046Y-53730703D01*
X70084045Y-53730703D01*
X70084041Y-53730701D01*
X70029845Y-53707443D01*
X70021336Y-53703402D01*
X69969057Y-53676094D01*
X69969046Y-53676090D01*
X69939806Y-53667723D01*
X69925021Y-53662459D01*
X69897058Y-53650459D01*
X69839273Y-53638583D01*
X69830127Y-53636338D01*
X69773423Y-53620113D01*
X69749699Y-53618306D01*
X69743072Y-53617801D01*
X69727533Y-53615622D01*
X69697742Y-53609500D01*
X69697741Y-53609500D01*
X69638759Y-53609500D01*
X69629344Y-53609142D01*
X69626643Y-53608936D01*
X69570524Y-53604662D01*
X69540349Y-53608506D01*
X69524682Y-53609500D01*
X63361588Y-53609500D01*
X63294549Y-53589815D01*
X63290465Y-53587075D01*
X63136734Y-53479432D01*
X63136732Y-53479431D01*
X62930497Y-53383261D01*
X62930488Y-53383258D01*
X62710697Y-53324366D01*
X62710693Y-53324365D01*
X62710692Y-53324365D01*
X62710691Y-53324364D01*
X62710686Y-53324364D01*
X62484002Y-53304532D01*
X62483998Y-53304532D01*
X62257313Y-53324364D01*
X62257302Y-53324366D01*
X62037511Y-53383258D01*
X62037502Y-53383261D01*
X61831267Y-53479431D01*
X61831265Y-53479432D01*
X61644858Y-53609954D01*
X61483954Y-53770858D01*
X61353432Y-53957265D01*
X61353431Y-53957267D01*
X61257261Y-54163502D01*
X61257258Y-54163511D01*
X61198366Y-54383302D01*
X61198364Y-54383313D01*
X61178532Y-54609998D01*
X61178532Y-54610001D01*
X61198364Y-54836686D01*
X61198366Y-54836697D01*
X61257258Y-55056488D01*
X61257261Y-55056497D01*
X61353431Y-55262732D01*
X61353432Y-55262734D01*
X61483954Y-55449141D01*
X61644858Y-55610045D01*
X61644861Y-55610047D01*
X61831266Y-55740568D01*
X62037504Y-55836739D01*
X62257308Y-55895635D01*
X62419230Y-55909801D01*
X62483998Y-55915468D01*
X62484000Y-55915468D01*
X62484002Y-55915468D01*
X62540673Y-55910509D01*
X62710692Y-55895635D01*
X62930496Y-55836739D01*
X63136734Y-55740568D01*
X63290465Y-55632924D01*
X63356671Y-55610598D01*
X63361588Y-55610500D01*
X69130217Y-55610500D01*
X69197256Y-55630185D01*
X69217898Y-55646819D01*
X70591181Y-57020101D01*
X70624666Y-57081424D01*
X70627500Y-57107782D01*
X70627500Y-57480424D01*
X70607815Y-57547463D01*
X70555011Y-57593218D01*
X70485853Y-57603162D01*
X70422297Y-57574137D01*
X70415819Y-57568105D01*
X70335752Y-57488038D01*
X70335746Y-57488033D01*
X70335742Y-57488029D01*
X70118113Y-57325113D01*
X70118108Y-57325110D01*
X70118107Y-57325109D01*
X69879518Y-57194830D01*
X69879519Y-57194830D01*
X69829920Y-57176330D01*
X69624801Y-57099825D01*
X69624794Y-57099823D01*
X69624793Y-57099823D01*
X69359167Y-57042040D01*
X69359160Y-57042039D01*
X69088001Y-57022645D01*
X69087999Y-57022645D01*
X68816839Y-57042039D01*
X68816832Y-57042040D01*
X68551206Y-57099823D01*
X68551202Y-57099824D01*
X68551199Y-57099825D01*
X68423843Y-57147326D01*
X68296480Y-57194830D01*
X68057892Y-57325109D01*
X68057891Y-57325110D01*
X67840259Y-57488028D01*
X67840247Y-57488038D01*
X67648038Y-57680247D01*
X67648028Y-57680259D01*
X67485110Y-57897891D01*
X67485109Y-57897892D01*
X67354830Y-58136480D01*
X67315049Y-58243139D01*
X67259825Y-58391199D01*
X67259824Y-58391202D01*
X67259823Y-58391206D01*
X67202040Y-58656832D01*
X67202039Y-58656839D01*
X67182645Y-58927998D01*
X67182645Y-58928001D01*
X67202039Y-59199160D01*
X67202040Y-59199167D01*
X67223358Y-59297165D01*
X67218374Y-59366857D01*
X67189873Y-59411204D01*
X60606550Y-65994530D01*
X60545227Y-66028015D01*
X60518869Y-66030849D01*
X60265180Y-66030849D01*
X60198141Y-66011164D01*
X60165913Y-65981160D01*
X60085546Y-65873803D01*
X60062709Y-65856707D01*
X59970335Y-65787555D01*
X59970328Y-65787551D01*
X59835482Y-65737257D01*
X59835483Y-65737257D01*
X59775883Y-65730850D01*
X59775881Y-65730849D01*
X59775873Y-65730849D01*
X59775865Y-65730849D01*
X59323132Y-65730849D01*
X59256093Y-65711164D01*
X59235451Y-65694530D01*
X50856887Y-57315967D01*
X50823402Y-57254644D01*
X50821040Y-57239093D01*
X50817167Y-57194828D01*
X50815635Y-57177308D01*
X50756739Y-56957504D01*
X50660568Y-56751266D01*
X50530047Y-56564861D01*
X50530045Y-56564858D01*
X50369141Y-56403954D01*
X50182734Y-56273432D01*
X50182732Y-56273431D01*
X49976497Y-56177261D01*
X49976488Y-56177258D01*
X49756697Y-56118366D01*
X49756688Y-56118364D01*
X49694902Y-56112958D01*
X49629834Y-56087504D01*
X49618031Y-56077111D01*
X49363101Y-55822181D01*
X49329616Y-55760858D01*
X49334600Y-55691166D01*
X49376472Y-55635233D01*
X49441936Y-55610816D01*
X49450782Y-55610500D01*
X51446412Y-55610500D01*
X51513451Y-55630185D01*
X51517523Y-55632917D01*
X51671266Y-55740568D01*
X51877504Y-55836739D01*
X52097308Y-55895635D01*
X52259230Y-55909801D01*
X52323998Y-55915468D01*
X52324000Y-55915468D01*
X52324002Y-55915468D01*
X52380673Y-55910509D01*
X52550692Y-55895635D01*
X52770496Y-55836739D01*
X52976734Y-55740568D01*
X53163139Y-55610047D01*
X53324047Y-55449139D01*
X53454568Y-55262734D01*
X53550739Y-55056496D01*
X53609635Y-54836692D01*
X53629468Y-54610000D01*
X53609635Y-54383308D01*
X53550739Y-54163504D01*
X53454568Y-53957266D01*
X53324047Y-53770861D01*
X53324045Y-53770858D01*
X53163141Y-53609954D01*
X52976734Y-53479432D01*
X52976732Y-53479431D01*
X52770497Y-53383261D01*
X52770488Y-53383258D01*
X52550697Y-53324366D01*
X52550693Y-53324365D01*
X52550692Y-53324365D01*
X52550691Y-53324364D01*
X52550686Y-53324364D01*
X52324002Y-53304532D01*
X52323998Y-53304532D01*
X52097313Y-53324364D01*
X52097302Y-53324366D01*
X51877511Y-53383258D01*
X51877502Y-53383261D01*
X51671267Y-53479431D01*
X51671265Y-53479432D01*
X51517535Y-53587075D01*
X51451329Y-53609402D01*
X51446412Y-53609500D01*
X46778759Y-53609500D01*
X46769344Y-53609142D01*
X46766643Y-53608936D01*
X46710524Y-53604662D01*
X46680349Y-53608506D01*
X46664682Y-53609500D01*
X39638278Y-53609500D01*
X39635138Y-53609460D01*
X39547637Y-53607243D01*
X39547628Y-53607243D01*
X39489579Y-53617648D01*
X39480252Y-53618956D01*
X39421564Y-53624925D01*
X39421554Y-53624927D01*
X39392528Y-53634034D01*
X39377288Y-53637775D01*
X39347350Y-53643141D01*
X39292570Y-53665021D01*
X39283702Y-53668178D01*
X39227414Y-53685840D01*
X39227413Y-53685840D01*
X39200818Y-53700601D01*
X39186648Y-53707330D01*
X39158384Y-53718621D01*
X39109121Y-53751087D01*
X39101066Y-53755967D01*
X39049502Y-53784588D01*
X39049499Y-53784590D01*
X39026405Y-53804414D01*
X39013883Y-53813855D01*
X38988482Y-53830598D01*
X38988475Y-53830603D01*
X38946781Y-53872297D01*
X38939874Y-53878698D01*
X38895106Y-53917132D01*
X38895105Y-53917133D01*
X38876480Y-53941194D01*
X38866107Y-53952971D01*
X36741967Y-56077111D01*
X36680644Y-56110596D01*
X36665096Y-56112958D01*
X36603311Y-56118364D01*
X36603302Y-56118366D01*
X36383511Y-56177258D01*
X36383502Y-56177261D01*
X36177267Y-56273431D01*
X36177265Y-56273432D01*
X35990858Y-56403954D01*
X35829954Y-56564858D01*
X35699432Y-56751265D01*
X35699431Y-56751267D01*
X35603261Y-56957502D01*
X35603258Y-56957511D01*
X35544366Y-57177302D01*
X35544364Y-57177313D01*
X35524532Y-57403998D01*
X35524532Y-57404001D01*
X35544364Y-57630686D01*
X35544366Y-57630697D01*
X35603258Y-57850488D01*
X35603261Y-57850497D01*
X35699431Y-58056732D01*
X35699432Y-58056734D01*
X35829954Y-58243141D01*
X35990858Y-58404045D01*
X35990861Y-58404047D01*
X36177266Y-58534568D01*
X36383504Y-58630739D01*
X36603308Y-58689635D01*
X36765230Y-58703801D01*
X36829998Y-58709468D01*
X36830000Y-58709468D01*
X36830002Y-58709468D01*
X36886673Y-58704509D01*
X37056692Y-58689635D01*
X37276496Y-58630739D01*
X37482734Y-58534568D01*
X37669139Y-58404047D01*
X37830047Y-58243139D01*
X37960568Y-58056734D01*
X38056739Y-57850496D01*
X38115635Y-57630692D01*
X38121039Y-57568906D01*
X38146490Y-57503840D01*
X38156878Y-57492041D01*
X40002102Y-55646819D01*
X40063425Y-55613334D01*
X40089783Y-55610500D01*
X46270217Y-55610500D01*
X46337256Y-55630185D01*
X46357898Y-55646819D01*
X48203112Y-57492033D01*
X48236597Y-57553356D01*
X48238959Y-57568906D01*
X48244364Y-57630687D01*
X48244366Y-57630697D01*
X48303258Y-57850488D01*
X48303261Y-57850497D01*
X48399431Y-58056732D01*
X48399432Y-58056734D01*
X48529954Y-58243141D01*
X48690858Y-58404045D01*
X48690861Y-58404047D01*
X48877266Y-58534568D01*
X49083504Y-58630739D01*
X49303308Y-58689635D01*
X49365092Y-58695039D01*
X49430159Y-58720490D01*
X49441966Y-58730886D01*
X57591181Y-66880101D01*
X57624666Y-66941424D01*
X57627500Y-66967782D01*
X57627500Y-67879219D01*
X57627501Y-67879225D01*
X57633908Y-67938832D01*
X57684202Y-68073677D01*
X57684206Y-68073684D01*
X57770452Y-68188893D01*
X57770455Y-68188896D01*
X57885664Y-68275142D01*
X57885671Y-68275146D01*
X58020517Y-68325440D01*
X58020516Y-68325440D01*
X58027444Y-68326184D01*
X58080127Y-68331849D01*
X59775872Y-68331848D01*
X59835483Y-68325440D01*
X59970331Y-68275145D01*
X60085546Y-68188895D01*
X60165914Y-68081537D01*
X60221847Y-68039667D01*
X60265180Y-68031849D01*
X60970372Y-68031849D01*
X60973514Y-68031889D01*
X61061009Y-68034106D01*
X61061009Y-68034105D01*
X61061014Y-68034106D01*
X61119076Y-68023698D01*
X61128405Y-68022390D01*
X61187089Y-68016423D01*
X61216122Y-68007313D01*
X61231351Y-68003575D01*
X61261304Y-67998207D01*
X61261308Y-67998205D01*
X61261310Y-67998205D01*
X61316074Y-67976329D01*
X61324943Y-67973170D01*
X61381239Y-67955508D01*
X61407851Y-67940736D01*
X61422013Y-67934011D01*
X61450268Y-67922726D01*
X61499530Y-67890258D01*
X61507561Y-67885392D01*
X61559153Y-67856758D01*
X61559160Y-67856751D01*
X61559163Y-67856750D01*
X61582234Y-67836943D01*
X61594776Y-67827486D01*
X61620170Y-67810751D01*
X61661877Y-67769043D01*
X61668789Y-67762637D01*
X61713546Y-67724215D01*
X61732175Y-67700147D01*
X61742535Y-67688384D01*
X68604795Y-60826123D01*
X68666116Y-60792640D01*
X68718830Y-60792640D01*
X68816840Y-60813961D01*
X69067110Y-60831860D01*
X69087999Y-60833355D01*
X69092429Y-60833355D01*
X69092429Y-60834323D01*
X69156252Y-60848193D01*
X69205668Y-60897588D01*
X69220534Y-60965858D01*
X69218015Y-60983394D01*
X69202039Y-61056839D01*
X69182645Y-61327998D01*
X69182645Y-61328001D01*
X69202039Y-61599160D01*
X69202040Y-61599167D01*
X69223358Y-61697166D01*
X69218374Y-61766858D01*
X69189873Y-61811205D01*
X67120646Y-63880432D01*
X67118399Y-63882624D01*
X67054946Y-63942942D01*
X67021245Y-63991361D01*
X67015574Y-63998882D01*
X66978302Y-64044592D01*
X66978298Y-64044598D01*
X66964209Y-64071568D01*
X66956082Y-64084983D01*
X66938702Y-64109955D01*
X66915438Y-64164165D01*
X66911398Y-64172672D01*
X66884090Y-64224951D01*
X66884090Y-64224952D01*
X66875720Y-64254201D01*
X66870459Y-64268979D01*
X66858459Y-64296943D01*
X66846588Y-64354711D01*
X66844342Y-64363860D01*
X66828113Y-64420577D01*
X66825802Y-64450926D01*
X66823622Y-64466466D01*
X66817500Y-64496258D01*
X66817500Y-64555240D01*
X66817142Y-64564656D01*
X66812662Y-64623474D01*
X66816506Y-64653649D01*
X66817500Y-64669317D01*
X66817500Y-71359721D01*
X66817460Y-71362861D01*
X66815243Y-71450362D01*
X66815243Y-71450371D01*
X66825648Y-71508420D01*
X66826956Y-71517748D01*
X66832925Y-71576430D01*
X66832927Y-71576444D01*
X66842033Y-71605468D01*
X66845772Y-71620701D01*
X66851142Y-71650653D01*
X66851142Y-71650655D01*
X66873020Y-71705424D01*
X66876177Y-71714292D01*
X66893841Y-71770588D01*
X66893842Y-71770589D01*
X66893844Y-71770595D01*
X66908603Y-71797185D01*
X66915336Y-71811361D01*
X66926622Y-71839614D01*
X66926627Y-71839624D01*
X66959080Y-71888866D01*
X66963962Y-71896923D01*
X66992588Y-71948498D01*
X66992589Y-71948500D01*
X66992591Y-71948502D01*
X67012410Y-71971588D01*
X67021855Y-71984115D01*
X67038599Y-72009521D01*
X67080299Y-72051220D01*
X67086704Y-72058131D01*
X67125131Y-72102892D01*
X67125134Y-72102895D01*
X67149187Y-72121513D01*
X67160968Y-72131889D01*
X71353181Y-76324102D01*
X71386666Y-76385425D01*
X71389500Y-76411783D01*
X71389500Y-76627281D01*
X71369815Y-76694320D01*
X71367089Y-76698384D01*
X71276819Y-76827305D01*
X71276819Y-76827306D01*
X71276817Y-76827309D01*
X71232382Y-76922600D01*
X71186209Y-76975039D01*
X71119016Y-76994191D01*
X71052135Y-76973975D01*
X71007618Y-76922600D01*
X70995725Y-76897096D01*
X70963181Y-76827305D01*
X70872924Y-76698404D01*
X70834668Y-76643768D01*
X70770052Y-76579152D01*
X70676233Y-76485333D01*
X70676229Y-76485330D01*
X70676228Y-76485329D01*
X70492700Y-76356821D01*
X70492696Y-76356819D01*
X70440445Y-76332454D01*
X70289630Y-76262128D01*
X70289627Y-76262127D01*
X70289625Y-76262126D01*
X70073208Y-76204137D01*
X70073200Y-76204136D01*
X69850002Y-76184609D01*
X69849998Y-76184609D01*
X69626799Y-76204136D01*
X69626791Y-76204137D01*
X69410374Y-76262126D01*
X69410370Y-76262128D01*
X69409358Y-76262600D01*
X69207306Y-76356818D01*
X69207304Y-76356819D01*
X69023764Y-76485334D01*
X68865334Y-76643764D01*
X68736819Y-76827304D01*
X68736818Y-76827306D01*
X68692382Y-76922600D01*
X68646209Y-76975039D01*
X68579016Y-76994191D01*
X68512135Y-76973975D01*
X68467618Y-76922600D01*
X68455725Y-76897096D01*
X68423181Y-76827305D01*
X68332924Y-76698404D01*
X68294668Y-76643768D01*
X68230052Y-76579152D01*
X68136233Y-76485333D01*
X68136229Y-76485330D01*
X68136228Y-76485329D01*
X67952700Y-76356821D01*
X67952696Y-76356819D01*
X67900445Y-76332454D01*
X67749630Y-76262128D01*
X67749627Y-76262127D01*
X67749625Y-76262126D01*
X67533208Y-76204137D01*
X67533200Y-76204136D01*
X67310002Y-76184609D01*
X67309998Y-76184609D01*
X67086799Y-76204136D01*
X67086791Y-76204137D01*
X66870374Y-76262126D01*
X66870370Y-76262128D01*
X66869358Y-76262600D01*
X66667306Y-76356818D01*
X66667304Y-76356819D01*
X66483764Y-76485334D01*
X66325334Y-76643764D01*
X66196819Y-76827304D01*
X66196818Y-76827306D01*
X66152382Y-76922600D01*
X66106209Y-76975039D01*
X66039016Y-76994191D01*
X65972135Y-76973975D01*
X65927618Y-76922600D01*
X65915725Y-76897096D01*
X65883181Y-76827305D01*
X65792924Y-76698404D01*
X65754668Y-76643768D01*
X65690052Y-76579152D01*
X65596233Y-76485333D01*
X65596229Y-76485330D01*
X65596228Y-76485329D01*
X65412700Y-76356821D01*
X65412696Y-76356819D01*
X65360445Y-76332454D01*
X65209630Y-76262128D01*
X65209627Y-76262127D01*
X65209625Y-76262126D01*
X64993208Y-76204137D01*
X64993200Y-76204136D01*
X64770002Y-76184609D01*
X64769998Y-76184609D01*
X64546799Y-76204136D01*
X64546791Y-76204137D01*
X64330374Y-76262126D01*
X64330370Y-76262128D01*
X64329358Y-76262600D01*
X64127306Y-76356818D01*
X64127304Y-76356819D01*
X63943764Y-76485334D01*
X63785334Y-76643764D01*
X63656819Y-76827304D01*
X63656818Y-76827306D01*
X63612382Y-76922600D01*
X63566209Y-76975039D01*
X63499016Y-76994191D01*
X63432135Y-76973975D01*
X63387618Y-76922600D01*
X63375725Y-76897096D01*
X63343181Y-76827305D01*
X63252924Y-76698404D01*
X63214668Y-76643768D01*
X63150052Y-76579152D01*
X63056233Y-76485333D01*
X63056229Y-76485330D01*
X63056228Y-76485329D01*
X62872700Y-76356821D01*
X62872696Y-76356819D01*
X62820445Y-76332454D01*
X62669630Y-76262128D01*
X62669627Y-76262127D01*
X62669625Y-76262126D01*
X62453208Y-76204137D01*
X62453200Y-76204136D01*
X62230002Y-76184609D01*
X62229998Y-76184609D01*
X62006799Y-76204136D01*
X62006791Y-76204137D01*
X61790374Y-76262126D01*
X61790370Y-76262128D01*
X61789358Y-76262600D01*
X61587306Y-76356818D01*
X61587304Y-76356819D01*
X61403764Y-76485334D01*
X61245334Y-76643764D01*
X61116819Y-76827304D01*
X61116818Y-76827306D01*
X61072382Y-76922600D01*
X61026209Y-76975039D01*
X60959016Y-76994191D01*
X60892135Y-76973975D01*
X60847618Y-76922600D01*
X60835725Y-76897096D01*
X60803181Y-76827305D01*
X60712924Y-76698404D01*
X60674668Y-76643768D01*
X60610052Y-76579152D01*
X60516233Y-76485333D01*
X60516229Y-76485330D01*
X60516228Y-76485329D01*
X60332700Y-76356821D01*
X60332696Y-76356819D01*
X60280445Y-76332454D01*
X60129630Y-76262128D01*
X60129627Y-76262127D01*
X60129625Y-76262126D01*
X59913208Y-76204137D01*
X59913200Y-76204136D01*
X59690002Y-76184609D01*
X59689998Y-76184609D01*
X59466799Y-76204136D01*
X59466791Y-76204137D01*
X59250374Y-76262126D01*
X59250370Y-76262128D01*
X59249358Y-76262600D01*
X59047306Y-76356818D01*
X59047304Y-76356819D01*
X58863764Y-76485334D01*
X58705334Y-76643764D01*
X58576819Y-76827304D01*
X58576818Y-76827306D01*
X58532382Y-76922600D01*
X58486209Y-76975039D01*
X58419016Y-76994191D01*
X58352135Y-76973975D01*
X58307618Y-76922600D01*
X58295725Y-76897096D01*
X58263181Y-76827305D01*
X58172924Y-76698404D01*
X58134668Y-76643768D01*
X58070052Y-76579152D01*
X57976233Y-76485333D01*
X57976229Y-76485330D01*
X57976228Y-76485329D01*
X57792700Y-76356821D01*
X57792696Y-76356819D01*
X57740445Y-76332454D01*
X57589630Y-76262128D01*
X57589627Y-76262127D01*
X57589625Y-76262126D01*
X57373208Y-76204137D01*
X57373200Y-76204136D01*
X57150002Y-76184609D01*
X57149998Y-76184609D01*
X56926799Y-76204136D01*
X56926791Y-76204137D01*
X56710374Y-76262126D01*
X56710370Y-76262128D01*
X56709358Y-76262600D01*
X56507306Y-76356818D01*
X56507304Y-76356819D01*
X56323764Y-76485334D01*
X56165334Y-76643764D01*
X56036819Y-76827304D01*
X56036818Y-76827306D01*
X55992382Y-76922600D01*
X55946209Y-76975039D01*
X55879016Y-76994191D01*
X55812135Y-76973975D01*
X55767618Y-76922600D01*
X55755725Y-76897096D01*
X55723181Y-76827305D01*
X55632924Y-76698404D01*
X55594668Y-76643768D01*
X55530052Y-76579152D01*
X55436233Y-76485333D01*
X55436229Y-76485330D01*
X55436228Y-76485329D01*
X55252700Y-76356821D01*
X55252696Y-76356819D01*
X55200445Y-76332454D01*
X55049630Y-76262128D01*
X55049627Y-76262127D01*
X55049625Y-76262126D01*
X54833208Y-76204137D01*
X54833200Y-76204136D01*
X54610002Y-76184609D01*
X54609998Y-76184609D01*
X54386799Y-76204136D01*
X54386791Y-76204137D01*
X54170374Y-76262126D01*
X54170370Y-76262128D01*
X54169358Y-76262600D01*
X53967306Y-76356818D01*
X53967304Y-76356819D01*
X53783764Y-76485334D01*
X53625334Y-76643764D01*
X53496819Y-76827304D01*
X53496818Y-76827306D01*
X53452382Y-76922600D01*
X53406209Y-76975039D01*
X53339016Y-76994191D01*
X53272135Y-76973975D01*
X53227618Y-76922600D01*
X53215725Y-76897096D01*
X53183181Y-76827305D01*
X53092924Y-76698404D01*
X53054668Y-76643768D01*
X52990052Y-76579152D01*
X52896233Y-76485333D01*
X52896229Y-76485330D01*
X52896228Y-76485329D01*
X52712700Y-76356821D01*
X52712696Y-76356819D01*
X52660445Y-76332454D01*
X52509630Y-76262128D01*
X52509627Y-76262127D01*
X52509625Y-76262126D01*
X52293208Y-76204137D01*
X52293200Y-76204136D01*
X52070002Y-76184609D01*
X52069998Y-76184609D01*
X51846799Y-76204136D01*
X51846791Y-76204137D01*
X51630374Y-76262126D01*
X51630370Y-76262128D01*
X51629358Y-76262600D01*
X51427306Y-76356818D01*
X51427304Y-76356819D01*
X51243764Y-76485334D01*
X51085334Y-76643764D01*
X50956820Y-76827303D01*
X50956819Y-76827305D01*
X50938716Y-76866126D01*
X50912106Y-76923192D01*
X50865933Y-76975630D01*
X50798739Y-76994782D01*
X50731858Y-76974566D01*
X50687342Y-76923191D01*
X50642747Y-76827557D01*
X50642746Y-76827555D01*
X50594664Y-76758887D01*
X50594664Y-76758886D01*
X50030559Y-77322991D01*
X50024582Y-77294225D01*
X49958819Y-77167307D01*
X49861251Y-77062838D01*
X49739116Y-76988566D01*
X49675660Y-76970786D01*
X50241112Y-76405334D01*
X50241112Y-76405333D01*
X50172445Y-76357253D01*
X50172443Y-76357252D01*
X49969459Y-76262600D01*
X49969450Y-76262596D01*
X49753124Y-76204632D01*
X49753113Y-76204630D01*
X49530002Y-76185111D01*
X49529998Y-76185111D01*
X49306886Y-76204630D01*
X49306875Y-76204632D01*
X49090549Y-76262596D01*
X49090540Y-76262600D01*
X48887556Y-76357253D01*
X48818887Y-76405334D01*
X49381234Y-76967681D01*
X49257276Y-77021525D01*
X49146392Y-77111735D01*
X49063959Y-77228517D01*
X49030135Y-77323688D01*
X48465334Y-76758887D01*
X48417254Y-76827554D01*
X48372657Y-76923192D01*
X48326484Y-76975631D01*
X48259290Y-76994782D01*
X48192409Y-76974566D01*
X48147893Y-76923191D01*
X48147617Y-76922600D01*
X48103181Y-76827305D01*
X48012924Y-76698404D01*
X47974668Y-76643768D01*
X47910052Y-76579152D01*
X47816233Y-76485333D01*
X47816229Y-76485330D01*
X47816228Y-76485329D01*
X47632700Y-76356821D01*
X47632696Y-76356819D01*
X47580445Y-76332454D01*
X47429630Y-76262128D01*
X47429627Y-76262127D01*
X47429625Y-76262126D01*
X47213208Y-76204137D01*
X47213200Y-76204136D01*
X46990002Y-76184609D01*
X46989998Y-76184609D01*
X46766799Y-76204136D01*
X46766791Y-76204137D01*
X46550374Y-76262126D01*
X46550370Y-76262128D01*
X46549358Y-76262600D01*
X46347306Y-76356818D01*
X46347304Y-76356819D01*
X46163764Y-76485334D01*
X46005334Y-76643764D01*
X45876819Y-76827304D01*
X45876818Y-76827306D01*
X45832382Y-76922600D01*
X45786209Y-76975039D01*
X45719016Y-76994191D01*
X45652135Y-76973975D01*
X45607618Y-76922600D01*
X45595725Y-76897096D01*
X45563181Y-76827305D01*
X45472924Y-76698404D01*
X45434668Y-76643768D01*
X45370052Y-76579152D01*
X45276233Y-76485333D01*
X45276229Y-76485330D01*
X45276228Y-76485329D01*
X45092700Y-76356821D01*
X45092696Y-76356819D01*
X45040445Y-76332454D01*
X44889630Y-76262128D01*
X44889627Y-76262127D01*
X44889625Y-76262126D01*
X44673208Y-76204137D01*
X44673200Y-76204136D01*
X44450002Y-76184609D01*
X44449998Y-76184609D01*
X44226799Y-76204136D01*
X44226791Y-76204137D01*
X44010374Y-76262126D01*
X44010370Y-76262128D01*
X44009358Y-76262600D01*
X43807306Y-76356818D01*
X43807304Y-76356819D01*
X43623764Y-76485334D01*
X43465334Y-76643764D01*
X43336819Y-76827304D01*
X43336818Y-76827306D01*
X43292382Y-76922600D01*
X43246209Y-76975039D01*
X43179016Y-76994191D01*
X43112135Y-76973975D01*
X43067618Y-76922600D01*
X43055725Y-76897096D01*
X43023181Y-76827305D01*
X42932924Y-76698404D01*
X42894668Y-76643768D01*
X42830052Y-76579152D01*
X42736233Y-76485333D01*
X42736229Y-76485330D01*
X42736228Y-76485329D01*
X42552700Y-76356821D01*
X42552696Y-76356819D01*
X42500445Y-76332454D01*
X42349630Y-76262128D01*
X42349627Y-76262127D01*
X42349625Y-76262126D01*
X42133208Y-76204137D01*
X42133200Y-76204136D01*
X41910002Y-76184609D01*
X41909998Y-76184609D01*
X41686799Y-76204136D01*
X41686791Y-76204137D01*
X41470374Y-76262126D01*
X41470370Y-76262128D01*
X41469358Y-76262600D01*
X41267306Y-76356818D01*
X41267304Y-76356819D01*
X41083764Y-76485334D01*
X40925334Y-76643764D01*
X40796819Y-76827304D01*
X40796818Y-76827306D01*
X40752382Y-76922600D01*
X40706209Y-76975039D01*
X40639016Y-76994191D01*
X40572135Y-76973975D01*
X40527618Y-76922600D01*
X40515725Y-76897096D01*
X40483181Y-76827305D01*
X40392924Y-76698404D01*
X40354668Y-76643768D01*
X40290052Y-76579152D01*
X40196233Y-76485333D01*
X40196229Y-76485330D01*
X40196228Y-76485329D01*
X40012700Y-76356821D01*
X40012696Y-76356819D01*
X39960445Y-76332454D01*
X39809630Y-76262128D01*
X39809627Y-76262127D01*
X39809625Y-76262126D01*
X39593208Y-76204137D01*
X39593200Y-76204136D01*
X39370002Y-76184609D01*
X39369998Y-76184609D01*
X39146799Y-76204136D01*
X39146791Y-76204137D01*
X38930374Y-76262126D01*
X38930370Y-76262128D01*
X38929358Y-76262600D01*
X38727306Y-76356818D01*
X38727304Y-76356819D01*
X38543764Y-76485334D01*
X38385334Y-76643764D01*
X38256819Y-76827304D01*
X38256818Y-76827306D01*
X38212382Y-76922600D01*
X38166209Y-76975039D01*
X38099016Y-76994191D01*
X38032135Y-76973975D01*
X37987618Y-76922600D01*
X37975725Y-76897096D01*
X37943181Y-76827305D01*
X37852923Y-76698402D01*
X37830597Y-76632197D01*
X37830500Y-76627281D01*
X37830500Y-70831351D01*
X57623034Y-70831351D01*
X57642858Y-71057948D01*
X57642860Y-71057959D01*
X57701730Y-71277666D01*
X57701735Y-71277680D01*
X57797863Y-71483827D01*
X57848974Y-71556821D01*
X58530046Y-70875749D01*
X58542835Y-70956497D01*
X58600359Y-71069394D01*
X58689955Y-71158990D01*
X58802852Y-71216514D01*
X58883599Y-71229302D01*
X58202526Y-71910374D01*
X58275513Y-71961481D01*
X58275521Y-71961485D01*
X58481668Y-72057613D01*
X58481682Y-72057618D01*
X58701389Y-72116488D01*
X58701400Y-72116490D01*
X58927998Y-72136315D01*
X58928002Y-72136315D01*
X59154599Y-72116490D01*
X59154610Y-72116488D01*
X59374317Y-72057618D01*
X59374331Y-72057613D01*
X59580478Y-71961485D01*
X59653471Y-71910373D01*
X58972400Y-71229302D01*
X59053148Y-71216514D01*
X59166045Y-71158990D01*
X59255641Y-71069394D01*
X59313165Y-70956497D01*
X59325953Y-70875749D01*
X60007024Y-71556820D01*
X60058136Y-71483827D01*
X60154264Y-71277680D01*
X60154269Y-71277666D01*
X60213139Y-71057959D01*
X60213141Y-71057948D01*
X60232966Y-70831351D01*
X60232966Y-70831346D01*
X60213141Y-70604749D01*
X60213139Y-70604738D01*
X60154269Y-70385031D01*
X60154264Y-70385017D01*
X60058136Y-70178870D01*
X60058132Y-70178862D01*
X60007025Y-70105875D01*
X59325953Y-70786947D01*
X59313165Y-70706201D01*
X59255641Y-70593304D01*
X59166045Y-70503708D01*
X59053148Y-70446184D01*
X58972401Y-70433395D01*
X59653472Y-69752323D01*
X59580478Y-69701212D01*
X59374331Y-69605084D01*
X59374317Y-69605079D01*
X59154610Y-69546209D01*
X59154599Y-69546207D01*
X58928002Y-69526383D01*
X58927998Y-69526383D01*
X58701400Y-69546207D01*
X58701389Y-69546209D01*
X58481682Y-69605079D01*
X58481673Y-69605083D01*
X58275516Y-69701215D01*
X58275512Y-69701217D01*
X58202526Y-69752322D01*
X58202526Y-69752323D01*
X58883599Y-70433395D01*
X58802852Y-70446184D01*
X58689955Y-70503708D01*
X58600359Y-70593304D01*
X58542835Y-70706201D01*
X58530046Y-70786947D01*
X57848974Y-70105875D01*
X57848973Y-70105875D01*
X57797868Y-70178861D01*
X57797866Y-70178865D01*
X57701734Y-70385022D01*
X57701730Y-70385031D01*
X57642860Y-70604738D01*
X57642858Y-70604749D01*
X57623034Y-70831346D01*
X57623034Y-70831351D01*
X37830500Y-70831351D01*
X37830500Y-68441588D01*
X37850185Y-68374549D01*
X37852925Y-68370465D01*
X37879965Y-68331848D01*
X37960568Y-68216734D01*
X38056739Y-68010496D01*
X38115635Y-67790692D01*
X38135468Y-67564000D01*
X38115635Y-67337308D01*
X38109389Y-67313999D01*
X48251127Y-67313999D01*
X48251128Y-67314000D01*
X49214314Y-67314000D01*
X49202359Y-67325955D01*
X49144835Y-67438852D01*
X49125014Y-67564000D01*
X49144835Y-67689148D01*
X49202359Y-67802045D01*
X49214314Y-67814000D01*
X48251128Y-67814000D01*
X48303730Y-68010317D01*
X48303734Y-68010326D01*
X48399865Y-68216482D01*
X48530342Y-68402820D01*
X48691179Y-68563657D01*
X48877517Y-68694134D01*
X49083673Y-68790265D01*
X49083682Y-68790269D01*
X49279999Y-68842872D01*
X49280000Y-68842871D01*
X49280000Y-67879686D01*
X49291955Y-67891641D01*
X49404852Y-67949165D01*
X49498519Y-67964000D01*
X49561481Y-67964000D01*
X49655148Y-67949165D01*
X49768045Y-67891641D01*
X49780000Y-67879686D01*
X49780000Y-68842872D01*
X49976317Y-68790269D01*
X49976326Y-68790265D01*
X50182482Y-68694134D01*
X50368820Y-68563657D01*
X50529657Y-68402820D01*
X50660134Y-68216482D01*
X50756265Y-68010326D01*
X50756269Y-68010317D01*
X50808872Y-67814000D01*
X49845686Y-67814000D01*
X49857641Y-67802045D01*
X49915165Y-67689148D01*
X49934986Y-67564000D01*
X49915165Y-67438852D01*
X49857641Y-67325955D01*
X49845686Y-67314000D01*
X50808872Y-67314000D01*
X50808872Y-67313999D01*
X50756269Y-67117682D01*
X50756265Y-67117673D01*
X50660134Y-66911517D01*
X50529657Y-66725179D01*
X50368820Y-66564342D01*
X50182482Y-66433865D01*
X49976328Y-66337734D01*
X49780000Y-66285127D01*
X49780000Y-67248314D01*
X49768045Y-67236359D01*
X49655148Y-67178835D01*
X49561481Y-67164000D01*
X49498519Y-67164000D01*
X49404852Y-67178835D01*
X49291955Y-67236359D01*
X49280000Y-67248314D01*
X49280000Y-66285127D01*
X49083671Y-66337734D01*
X48877517Y-66433865D01*
X48691179Y-66564342D01*
X48530342Y-66725179D01*
X48399865Y-66911517D01*
X48303734Y-67117673D01*
X48303730Y-67117682D01*
X48251127Y-67313999D01*
X38109389Y-67313999D01*
X38056739Y-67117504D01*
X37960568Y-66911266D01*
X37830047Y-66724861D01*
X37830045Y-66724858D01*
X37669141Y-66563954D01*
X37482734Y-66433432D01*
X37482732Y-66433431D01*
X37276497Y-66337261D01*
X37276488Y-66337258D01*
X37056697Y-66278366D01*
X37056693Y-66278365D01*
X37056692Y-66278365D01*
X37056691Y-66278364D01*
X37056686Y-66278364D01*
X36830002Y-66258532D01*
X36829998Y-66258532D01*
X36603313Y-66278364D01*
X36603302Y-66278366D01*
X36383511Y-66337258D01*
X36383502Y-66337261D01*
X36177267Y-66433431D01*
X36177265Y-66433432D01*
X35990858Y-66563954D01*
X35829954Y-66724858D01*
X35699432Y-66911265D01*
X35699431Y-66911267D01*
X35603261Y-67117502D01*
X35603258Y-67117511D01*
X35544366Y-67337302D01*
X35544364Y-67337313D01*
X35524532Y-67563998D01*
X35524532Y-67564001D01*
X33655000Y-67564001D01*
X33655000Y-35560000D01*
X36973684Y-35560000D01*
X36993212Y-35907740D01*
X36993214Y-35907752D01*
X37051553Y-36251113D01*
X37051555Y-36251122D01*
X37147972Y-36585792D01*
X37147974Y-36585798D01*
X37236240Y-36798890D01*
X37281259Y-36907576D01*
X37449738Y-37212416D01*
X37449741Y-37212421D01*
X37651280Y-37496462D01*
X37651286Y-37496470D01*
X37883365Y-37756166D01*
X37883368Y-37756169D01*
X38143064Y-37988248D01*
X38143067Y-37988250D01*
X38143069Y-37988252D01*
X38172918Y-38009431D01*
X38427113Y-38189793D01*
X38427118Y-38189796D01*
X38427121Y-38189797D01*
X38427123Y-38189799D01*
X38596512Y-38283417D01*
X38731959Y-38358276D01*
X38731963Y-38358278D01*
X38787049Y-38381095D01*
X38790234Y-38382481D01*
X38790500Y-38382584D01*
X38790503Y-38382586D01*
X38791731Y-38383064D01*
X38794079Y-38384007D01*
X39053737Y-38491561D01*
X39112425Y-38508468D01*
X39117258Y-38510103D01*
X39117282Y-38510030D01*
X39120641Y-38511121D01*
X39120647Y-38511122D01*
X39120656Y-38511126D01*
X39130688Y-38513762D01*
X39133258Y-38514470D01*
X39388418Y-38587981D01*
X39452640Y-38598892D01*
X39463080Y-38601147D01*
X39463313Y-38601195D01*
X39480433Y-38603656D01*
X39483544Y-38604143D01*
X39731790Y-38646322D01*
X39800910Y-38650203D01*
X39811601Y-38651271D01*
X39812932Y-38651462D01*
X39813996Y-38651615D01*
X39836909Y-38652269D01*
X39840127Y-38652406D01*
X40079535Y-38665851D01*
X40152820Y-38661735D01*
X40163260Y-38661592D01*
X40168144Y-38661732D01*
X40195259Y-38659402D01*
X40198701Y-38659158D01*
X40427280Y-38646322D01*
X40503746Y-38633329D01*
X40513871Y-38632037D01*
X40521138Y-38631413D01*
X40551018Y-38625358D01*
X40554717Y-38624669D01*
X40770652Y-38587981D01*
X40849230Y-38565342D01*
X40858921Y-38562969D01*
X40868374Y-38561054D01*
X40899743Y-38550861D01*
X40903631Y-38549670D01*
X41105333Y-38491561D01*
X41184845Y-38458625D01*
X41193936Y-38455272D01*
X41205326Y-38451572D01*
X41237053Y-38437082D01*
X41240969Y-38435378D01*
X41397025Y-38370737D01*
X41427104Y-38358279D01*
X41427105Y-38358277D01*
X41427113Y-38358275D01*
X41506223Y-38314552D01*
X41514631Y-38310317D01*
X41527603Y-38304393D01*
X41558577Y-38285714D01*
X41562506Y-38283445D01*
X41731947Y-38189799D01*
X41809232Y-38134962D01*
X41816895Y-38129942D01*
X41831001Y-38121437D01*
X41860296Y-38098847D01*
X41864149Y-38095996D01*
X42016001Y-37988252D01*
X42089988Y-37922132D01*
X42096814Y-37916463D01*
X42111566Y-37905089D01*
X42138346Y-37879062D01*
X42142110Y-37875553D01*
X42275703Y-37756168D01*
X42344781Y-37678870D01*
X42350811Y-37672580D01*
X42365641Y-37658169D01*
X42389391Y-37629123D01*
X42392814Y-37625120D01*
X42507787Y-37496466D01*
X42570462Y-37408133D01*
X42575531Y-37401484D01*
X42589913Y-37383896D01*
X42610047Y-37352565D01*
X42613190Y-37347913D01*
X42709334Y-37212412D01*
X42763952Y-37113587D01*
X42768150Y-37106552D01*
X42781458Y-37085846D01*
X42797697Y-37052816D01*
X42800376Y-37047683D01*
X42877810Y-36907578D01*
X42922853Y-36798833D01*
X42926106Y-36791644D01*
X42937779Y-36767904D01*
X42949883Y-36733978D01*
X42952089Y-36728252D01*
X43011096Y-36585798D01*
X43045016Y-36468057D01*
X43047358Y-36460785D01*
X43056839Y-36434215D01*
X43064791Y-36400015D01*
X43066398Y-36393839D01*
X43107516Y-36251117D01*
X43128867Y-36125451D01*
X43130327Y-36118190D01*
X43137085Y-36089130D01*
X43140963Y-36055330D01*
X43141894Y-36048778D01*
X43165857Y-35907745D01*
X43173286Y-35775450D01*
X43173898Y-35768295D01*
X43177471Y-35737151D01*
X43177472Y-35737146D01*
X43178128Y-35691145D01*
X43178307Y-35686047D01*
X43185386Y-35560000D01*
X65474149Y-35560000D01*
X65493677Y-35907740D01*
X65493679Y-35907752D01*
X65552018Y-36251113D01*
X65552020Y-36251122D01*
X65648437Y-36585792D01*
X65648439Y-36585798D01*
X65736705Y-36798890D01*
X65781724Y-36907576D01*
X65950203Y-37212416D01*
X65950206Y-37212421D01*
X66151745Y-37496462D01*
X66151751Y-37496470D01*
X66383830Y-37756166D01*
X66383833Y-37756169D01*
X66643529Y-37988248D01*
X66643532Y-37988250D01*
X66643534Y-37988252D01*
X66673383Y-38009431D01*
X66927578Y-38189793D01*
X66927583Y-38189796D01*
X66927586Y-38189797D01*
X66927588Y-38189799D01*
X67096977Y-38283417D01*
X67232424Y-38358276D01*
X67232428Y-38358278D01*
X67287514Y-38381095D01*
X67290699Y-38382481D01*
X67290965Y-38382584D01*
X67290968Y-38382586D01*
X67292196Y-38383064D01*
X67294544Y-38384007D01*
X67554202Y-38491561D01*
X67612890Y-38508468D01*
X67617723Y-38510103D01*
X67617747Y-38510030D01*
X67621106Y-38511121D01*
X67621112Y-38511122D01*
X67621121Y-38511126D01*
X67631153Y-38513762D01*
X67633723Y-38514470D01*
X67888883Y-38587981D01*
X67953105Y-38598892D01*
X67963545Y-38601147D01*
X67963778Y-38601195D01*
X67980898Y-38603656D01*
X67984009Y-38604143D01*
X68232255Y-38646322D01*
X68301375Y-38650203D01*
X68312066Y-38651271D01*
X68313397Y-38651462D01*
X68314461Y-38651615D01*
X68337374Y-38652269D01*
X68340592Y-38652406D01*
X68580000Y-38665851D01*
X68653285Y-38661735D01*
X68663725Y-38661592D01*
X68668609Y-38661732D01*
X68695724Y-38659402D01*
X68699166Y-38659158D01*
X68927745Y-38646322D01*
X69004211Y-38633329D01*
X69014336Y-38632037D01*
X69021603Y-38631413D01*
X69051483Y-38625358D01*
X69055182Y-38624669D01*
X69271117Y-38587981D01*
X69349695Y-38565342D01*
X69359386Y-38562969D01*
X69368839Y-38561054D01*
X69400208Y-38550861D01*
X69404096Y-38549670D01*
X69605798Y-38491561D01*
X69685310Y-38458625D01*
X69694401Y-38455272D01*
X69705791Y-38451572D01*
X69737518Y-38437082D01*
X69741434Y-38435378D01*
X69897490Y-38370737D01*
X69927569Y-38358279D01*
X69927570Y-38358277D01*
X69927578Y-38358275D01*
X70006688Y-38314552D01*
X70015096Y-38310317D01*
X70028068Y-38304393D01*
X70059042Y-38285714D01*
X70062971Y-38283445D01*
X70232412Y-38189799D01*
X70309697Y-38134962D01*
X70317360Y-38129942D01*
X70331466Y-38121437D01*
X70360761Y-38098847D01*
X70364614Y-38095996D01*
X70516466Y-37988252D01*
X70590453Y-37922132D01*
X70597279Y-37916463D01*
X70612031Y-37905089D01*
X70638811Y-37879062D01*
X70642575Y-37875553D01*
X70776168Y-37756168D01*
X70845246Y-37678870D01*
X70851276Y-37672580D01*
X70866106Y-37658169D01*
X70889856Y-37629123D01*
X70893279Y-37625120D01*
X71008252Y-37496466D01*
X71070927Y-37408133D01*
X71075996Y-37401484D01*
X71090378Y-37383896D01*
X71110512Y-37352565D01*
X71113655Y-37347913D01*
X71209799Y-37212412D01*
X71264417Y-37113587D01*
X71268615Y-37106552D01*
X71281923Y-37085846D01*
X71298162Y-37052816D01*
X71300841Y-37047683D01*
X71378275Y-36907578D01*
X71423318Y-36798833D01*
X71426571Y-36791644D01*
X71438244Y-36767904D01*
X71450348Y-36733978D01*
X71452554Y-36728252D01*
X71511561Y-36585798D01*
X71545481Y-36468057D01*
X71547823Y-36460785D01*
X71557304Y-36434215D01*
X71565256Y-36400015D01*
X71566863Y-36393839D01*
X71607981Y-36251117D01*
X71629332Y-36125451D01*
X71630792Y-36118190D01*
X71637550Y-36089130D01*
X71641428Y-36055330D01*
X71642359Y-36048778D01*
X71666322Y-35907745D01*
X71673751Y-35775450D01*
X71674363Y-35768295D01*
X71677936Y-35737151D01*
X71677937Y-35737146D01*
X71678593Y-35691145D01*
X71678772Y-35686047D01*
X71685851Y-35560000D01*
X71678772Y-35433957D01*
X71678593Y-35428852D01*
X71677937Y-35382854D01*
X71674360Y-35351682D01*
X71673751Y-35344543D01*
X71666322Y-35212255D01*
X71642366Y-35071262D01*
X71641424Y-35064636D01*
X71637550Y-35030870D01*
X71630792Y-35001809D01*
X71629327Y-34994519D01*
X71607981Y-34868883D01*
X71566868Y-34726178D01*
X71565256Y-34719982D01*
X71557304Y-34685785D01*
X71547829Y-34659232D01*
X71545472Y-34651910D01*
X71511562Y-34534207D01*
X71511561Y-34534202D01*
X71452566Y-34391776D01*
X71450341Y-34386000D01*
X71438246Y-34352102D01*
X71438244Y-34352096D01*
X71426578Y-34328370D01*
X71423302Y-34321126D01*
X71378280Y-34212433D01*
X71378278Y-34212429D01*
X71378275Y-34212422D01*
X71300861Y-34072352D01*
X71298124Y-34067106D01*
X71281922Y-34034152D01*
X71268625Y-34013462D01*
X71264412Y-34006403D01*
X71209796Y-33907583D01*
X71209793Y-33907578D01*
X71113678Y-33772117D01*
X71110504Y-33767422D01*
X71090378Y-33736104D01*
X71090372Y-33736097D01*
X71090372Y-33736096D01*
X71076028Y-33718555D01*
X71070891Y-33711816D01*
X71008247Y-33623527D01*
X70893326Y-33494932D01*
X70889824Y-33490837D01*
X70866106Y-33461831D01*
X70866105Y-33461830D01*
X70851276Y-33447418D01*
X70845240Y-33441123D01*
X70776169Y-33363833D01*
X70776166Y-33363830D01*
X70642604Y-33244471D01*
X70638811Y-33240937D01*
X70612031Y-33214911D01*
X70597315Y-33203563D01*
X70590409Y-33197827D01*
X70516476Y-33131756D01*
X70516469Y-33131751D01*
X70516466Y-33131748D01*
X70364626Y-33024011D01*
X70360726Y-33021126D01*
X70346520Y-33010171D01*
X70331469Y-32998564D01*
X70331458Y-32998557D01*
X70317376Y-32990065D01*
X70309664Y-32985014D01*
X70268585Y-32955867D01*
X70232414Y-32930202D01*
X70063035Y-32836589D01*
X70058985Y-32834250D01*
X70039626Y-32822577D01*
X70028068Y-32815607D01*
X70028062Y-32815604D01*
X70028058Y-32815602D01*
X70015127Y-32809697D01*
X70006656Y-32805430D01*
X69927576Y-32761724D01*
X69741481Y-32684641D01*
X69737421Y-32682873D01*
X69705797Y-32668430D01*
X69694413Y-32664731D01*
X69685282Y-32661362D01*
X69605809Y-32628443D01*
X69605803Y-32628441D01*
X69605798Y-32628439D01*
X69578974Y-32620711D01*
X69404132Y-32570338D01*
X69400146Y-32569117D01*
X69368839Y-32558945D01*
X69359387Y-32557030D01*
X69349692Y-32554655D01*
X69271127Y-32532021D01*
X69271113Y-32532018D01*
X69055245Y-32495340D01*
X69051391Y-32494622D01*
X69021612Y-32488588D01*
X69021604Y-32488587D01*
X69021603Y-32488587D01*
X69019746Y-32488427D01*
X69014334Y-32487962D01*
X69004193Y-32486666D01*
X68927746Y-32473678D01*
X68699258Y-32460846D01*
X68695602Y-32460586D01*
X68668608Y-32458267D01*
X68663740Y-32458407D01*
X68653250Y-32458262D01*
X68580000Y-32454149D01*
X68340664Y-32467589D01*
X68337257Y-32467733D01*
X68314469Y-32468384D01*
X68314447Y-32468386D01*
X68312056Y-32468730D01*
X68301381Y-32469795D01*
X68232252Y-32473678D01*
X67984023Y-32515853D01*
X67980904Y-32516342D01*
X67963789Y-32518803D01*
X67963541Y-32518853D01*
X67953102Y-32521107D01*
X67888883Y-32532019D01*
X67888876Y-32532020D01*
X67633831Y-32605497D01*
X67631039Y-32606266D01*
X67621128Y-32608872D01*
X67621125Y-32608872D01*
X67621121Y-32608874D01*
X67621116Y-32608875D01*
X67617757Y-32609967D01*
X67617733Y-32609896D01*
X67612901Y-32611527D01*
X67554202Y-32628438D01*
X67554197Y-32628440D01*
X67294625Y-32735958D01*
X67292202Y-32736932D01*
X67290740Y-32737501D01*
X67287551Y-32738888D01*
X67232433Y-32761719D01*
X67232421Y-32761725D01*
X66927583Y-32930203D01*
X66927578Y-32930206D01*
X66643537Y-33131745D01*
X66643529Y-33131751D01*
X66383833Y-33363830D01*
X66383830Y-33363833D01*
X66151751Y-33623529D01*
X66151745Y-33623537D01*
X65950206Y-33907578D01*
X65950203Y-33907583D01*
X65781724Y-34212423D01*
X65648437Y-34534207D01*
X65552020Y-34868877D01*
X65552018Y-34868886D01*
X65493679Y-35212247D01*
X65493677Y-35212259D01*
X65474149Y-35560000D01*
X43185386Y-35560000D01*
X43178307Y-35433957D01*
X43178128Y-35428852D01*
X43177472Y-35382854D01*
X43173895Y-35351682D01*
X43173286Y-35344543D01*
X43165857Y-35212255D01*
X43141901Y-35071262D01*
X43140959Y-35064636D01*
X43137085Y-35030870D01*
X43130327Y-35001809D01*
X43128862Y-34994519D01*
X43107516Y-34868883D01*
X43066403Y-34726178D01*
X43064791Y-34719982D01*
X43056839Y-34685785D01*
X43047364Y-34659232D01*
X43045007Y-34651910D01*
X43011097Y-34534207D01*
X43011096Y-34534202D01*
X42952101Y-34391776D01*
X42949876Y-34386000D01*
X42937781Y-34352102D01*
X42937779Y-34352096D01*
X42926113Y-34328370D01*
X42922837Y-34321126D01*
X42877815Y-34212433D01*
X42877813Y-34212429D01*
X42877810Y-34212422D01*
X42800396Y-34072352D01*
X42797659Y-34067106D01*
X42781457Y-34034152D01*
X42768160Y-34013462D01*
X42763947Y-34006403D01*
X42709331Y-33907583D01*
X42709328Y-33907578D01*
X42613213Y-33772117D01*
X42610039Y-33767422D01*
X42589913Y-33736104D01*
X42589907Y-33736097D01*
X42589907Y-33736096D01*
X42575563Y-33718555D01*
X42570426Y-33711816D01*
X42507782Y-33623527D01*
X42392861Y-33494932D01*
X42389359Y-33490837D01*
X42365641Y-33461831D01*
X42365640Y-33461830D01*
X42350811Y-33447418D01*
X42344775Y-33441123D01*
X42275704Y-33363833D01*
X42275701Y-33363830D01*
X42142139Y-33244471D01*
X42138346Y-33240937D01*
X42111566Y-33214911D01*
X42096850Y-33203563D01*
X42089944Y-33197827D01*
X42016011Y-33131756D01*
X42016004Y-33131751D01*
X42016001Y-33131748D01*
X41864161Y-33024011D01*
X41860261Y-33021126D01*
X41846055Y-33010171D01*
X41831004Y-32998564D01*
X41830993Y-32998557D01*
X41816911Y-32990065D01*
X41809199Y-32985014D01*
X41768120Y-32955867D01*
X41731949Y-32930202D01*
X41562570Y-32836589D01*
X41558520Y-32834250D01*
X41539161Y-32822577D01*
X41527603Y-32815607D01*
X41527597Y-32815604D01*
X41527593Y-32815602D01*
X41514662Y-32809697D01*
X41506191Y-32805430D01*
X41427111Y-32761724D01*
X41241016Y-32684641D01*
X41236956Y-32682873D01*
X41205332Y-32668430D01*
X41193948Y-32664731D01*
X41184817Y-32661362D01*
X41105344Y-32628443D01*
X41105338Y-32628441D01*
X41105333Y-32628439D01*
X41078509Y-32620711D01*
X40903667Y-32570338D01*
X40899681Y-32569117D01*
X40868374Y-32558945D01*
X40858922Y-32557030D01*
X40849227Y-32554655D01*
X40770662Y-32532021D01*
X40770648Y-32532018D01*
X40554780Y-32495340D01*
X40550926Y-32494622D01*
X40521147Y-32488588D01*
X40521139Y-32488587D01*
X40521138Y-32488587D01*
X40519281Y-32488427D01*
X40513869Y-32487962D01*
X40503728Y-32486666D01*
X40427281Y-32473678D01*
X40198793Y-32460846D01*
X40195137Y-32460586D01*
X40168143Y-32458267D01*
X40163275Y-32458407D01*
X40152785Y-32458262D01*
X40079535Y-32454149D01*
X39840199Y-32467589D01*
X39836792Y-32467733D01*
X39814004Y-32468384D01*
X39813982Y-32468386D01*
X39811591Y-32468730D01*
X39800916Y-32469795D01*
X39731787Y-32473678D01*
X39483558Y-32515853D01*
X39480439Y-32516342D01*
X39463324Y-32518803D01*
X39463076Y-32518853D01*
X39452637Y-32521107D01*
X39388418Y-32532019D01*
X39388411Y-32532020D01*
X39133366Y-32605497D01*
X39130574Y-32606266D01*
X39120663Y-32608872D01*
X39120660Y-32608872D01*
X39120656Y-32608874D01*
X39120651Y-32608875D01*
X39117292Y-32609967D01*
X39117268Y-32609896D01*
X39112436Y-32611527D01*
X39053737Y-32628438D01*
X39053732Y-32628440D01*
X38794160Y-32735958D01*
X38791737Y-32736932D01*
X38790275Y-32737501D01*
X38787086Y-32738888D01*
X38731968Y-32761719D01*
X38731956Y-32761725D01*
X38427118Y-32930203D01*
X38427113Y-32930206D01*
X38143072Y-33131745D01*
X38143064Y-33131751D01*
X37883368Y-33363830D01*
X37883365Y-33363833D01*
X37651286Y-33623529D01*
X37651280Y-33623537D01*
X37449741Y-33907578D01*
X37449738Y-33907583D01*
X37281259Y-34212423D01*
X37147972Y-34534207D01*
X37051555Y-34868877D01*
X37051553Y-34868886D01*
X36993214Y-35212247D01*
X36993212Y-35212259D01*
X36973684Y-35560000D01*
X33655000Y-35560000D01*
X33655000Y-31874000D01*
X33674685Y-31806961D01*
X33727489Y-31761206D01*
X33779000Y-31750000D01*
X74171000Y-31750000D01*
X74238039Y-31769685D01*
G37*
%TD.AperFunction*%
%TA.AperFunction,Conductor*%
G36*
X66815418Y-103045775D02*
G01*
X66881181Y-103172693D01*
X66978749Y-103277162D01*
X67100884Y-103351434D01*
X67164339Y-103369213D01*
X66598886Y-103934664D01*
X66600450Y-103952543D01*
X66613607Y-103969003D01*
X66620799Y-104038501D01*
X66589277Y-104100856D01*
X66529046Y-104136269D01*
X66498858Y-104140000D01*
X65582013Y-104140000D01*
X65514974Y-104120315D01*
X65469219Y-104067511D01*
X65459275Y-103998353D01*
X65488300Y-103934797D01*
X65510890Y-103914425D01*
X65533798Y-103898384D01*
X65596233Y-103854667D01*
X65754667Y-103696233D01*
X65883181Y-103512696D01*
X65927895Y-103416804D01*
X65974064Y-103364370D01*
X66041258Y-103345217D01*
X66108139Y-103365432D01*
X66152657Y-103416808D01*
X66197252Y-103512443D01*
X66197253Y-103512445D01*
X66245334Y-103581112D01*
X66809439Y-103017006D01*
X66815418Y-103045775D01*
G37*
%TD.AperFunction*%
%TA.AperFunction,Conductor*%
G36*
X68374665Y-103581112D02*
G01*
X68422742Y-103512451D01*
X68422743Y-103512450D01*
X68467341Y-103416809D01*
X68513513Y-103364370D01*
X68580707Y-103345217D01*
X68647588Y-103365432D01*
X68692105Y-103416807D01*
X68706735Y-103448181D01*
X68736819Y-103512696D01*
X68736821Y-103512700D01*
X68865329Y-103696228D01*
X68865334Y-103696234D01*
X69023765Y-103854665D01*
X69023771Y-103854670D01*
X69109110Y-103914425D01*
X69152735Y-103969002D01*
X69159929Y-104038500D01*
X69128406Y-104100855D01*
X69068176Y-104136269D01*
X69037987Y-104140000D01*
X68121141Y-104140000D01*
X68054102Y-104120315D01*
X68008347Y-104067511D01*
X67998403Y-103998353D01*
X68019601Y-103951935D01*
X68021112Y-103934665D01*
X67458765Y-103372318D01*
X67582724Y-103318475D01*
X67693608Y-103228265D01*
X67776041Y-103111483D01*
X67809864Y-103016311D01*
X68374665Y-103581112D01*
G37*
%TD.AperFunction*%
%TA.AperFunction,Conductor*%
G36*
X82055418Y-103045775D02*
G01*
X82121181Y-103172693D01*
X82218749Y-103277162D01*
X82340884Y-103351434D01*
X82404339Y-103369213D01*
X81838886Y-103934664D01*
X81840450Y-103952543D01*
X81853607Y-103969003D01*
X81860799Y-104038501D01*
X81829277Y-104100856D01*
X81769046Y-104136269D01*
X81738858Y-104140000D01*
X80822013Y-104140000D01*
X80754974Y-104120315D01*
X80709219Y-104067511D01*
X80699275Y-103998353D01*
X80728300Y-103934797D01*
X80750890Y-103914425D01*
X80773798Y-103898384D01*
X80836233Y-103854667D01*
X80994667Y-103696233D01*
X81123181Y-103512696D01*
X81167895Y-103416804D01*
X81214064Y-103364370D01*
X81281258Y-103345217D01*
X81348139Y-103365432D01*
X81392657Y-103416808D01*
X81437252Y-103512443D01*
X81437253Y-103512445D01*
X81485334Y-103581112D01*
X82049439Y-103017006D01*
X82055418Y-103045775D01*
G37*
%TD.AperFunction*%
%TD*%
M02*
